<?xml version="1.0" encoding="utf-8"?>
<!-- Generator: Adobe Illustrator 25.0.1, SVG Export Plug-In . SVG Version: 6.00 Build 0)  -->
<svg version="1.1" id="Capa_1" xmlns="http://www.w3.org/2000/svg" xmlns:xlink="http://www.w3.org/1999/xlink" x="0px" y="0px"
	 viewBox="0 0 512 512" style="enable-background:new 0 0 512 512;" xml:space="preserve">
<style type="text/css">
	.st0{fill:#FFFFFF;}
</style>
<g>
	<g>
		<path class="st0" d="M256,0C144.7,0,54.2,90.5,54.2,201.8c0,69.4,35.2,130.7,88.6,167v128.4c0,5,2.5,9.7,6.8,12.4
			c4.2,2.7,9.5,3.1,14.1,1.1l92.4-41.6l92.4,41.6c1.9,0.9,4,1.3,6.1,1.3c2.8,0,5.6-0.8,8-2.4c4.2-2.7,6.8-7.4,6.8-12.4V368.9
			c53.4-36.3,88.6-97.6,88.6-167C457.8,90.5,367.3,0,256,0z M339.7,474.4l-77.6-34.9c-1.9-0.9-4-1.3-6.1-1.3s-4.1,0.4-6.1,1.3
			l-77.6,34.9v-88.8c7.4,3.4,15,6.3,22.8,8.7c0.4,0.1,0.9,0.3,1.3,0.4c1,0.3,2,0.6,3,0.9c0.7,0.2,1.5,0.4,2.2,0.6
			c0.8,0.2,1.6,0.4,2.4,0.7c0.9,0.3,1.9,0.5,2.8,0.7c0.7,0.2,1.3,0.3,2,0.5c1.1,0.3,2.2,0.5,3.3,0.8c0.6,0.1,1.1,0.3,1.7,0.4
			c1.2,0.3,2.4,0.5,3.6,0.7c0.5,0.1,1,0.2,1.5,0.3c1.3,0.2,2.6,0.5,3.8,0.7c0.4,0.1,0.9,0.1,1.3,0.2c1.3,0.2,2.7,0.4,4,0.6
			c0.4,0.1,0.8,0.1,1.2,0.2c1.4,0.2,2.7,0.3,4.1,0.5c0.4,0,0.8,0.1,1.2,0.1c1.4,0.1,2.7,0.3,4.1,0.4c0.4,0,0.8,0.1,1.2,0.1
			c1.3,0.1,2.7,0.2,4,0.3c0.4,0,0.9,0.1,1.3,0.1c1.4,0.1,2.7,0.1,4.1,0.2c0.4,0,0.8,0,1.2,0c1.8,0,3.6,0.1,5.3,0.1
			c1.8,0,3.6,0,5.3-0.1c0.4,0,0.8,0,1.2,0c1.4,0,2.7-0.1,4.1-0.2c0.4,0,0.9-0.1,1.3-0.1c1.4-0.1,2.7-0.2,4-0.3
			c0.4,0,0.8-0.1,1.2-0.1c1.4-0.1,2.7-0.2,4.1-0.4c0.4,0,0.8-0.1,1.2-0.1c1.4-0.2,2.7-0.3,4.1-0.5c0.4-0.1,0.8-0.1,1.2-0.2
			c1.3-0.2,2.7-0.4,4-0.6c0.4-0.1,0.9-0.1,1.3-0.2c1.3-0.2,2.6-0.4,3.8-0.7c0.5-0.1,1-0.2,1.5-0.3c1.2-0.2,2.4-0.5,3.6-0.7
			c0.6-0.1,1.1-0.2,1.7-0.4c1.1-0.2,2.2-0.5,3.3-0.8c0.7-0.2,1.3-0.3,2-0.5c0.9-0.2,1.9-0.5,2.8-0.7c0.8-0.2,1.6-0.4,2.4-0.7
			c0.7-0.2,1.5-0.4,2.2-0.6c1-0.3,2-0.6,3-0.9c0.4-0.1,0.9-0.3,1.3-0.4c7.8-2.5,15.4-5.4,22.8-8.7L339.7,474.4L339.7,474.4z
			 M312.2,364.7c-0.6,0.2-1.2,0.4-1.8,0.6c-0.9,0.3-1.8,0.6-2.7,0.9c-1.1,0.3-2.1,0.6-3.2,1c-0.7,0.2-1.5,0.4-2.2,0.6
			c-1.4,0.4-2.8,0.8-4.2,1.1c-0.5,0.1-1.1,0.3-1.6,0.4c-1.4,0.3-2.8,0.7-4.2,1c-0.4,0.1-0.7,0.2-1,0.2c-1.8,0.4-3.6,0.7-5.4,1
			c-0.2,0-0.4,0.1-0.6,0.1c-1.6,0.3-3.3,0.5-4.9,0.8c-0.4,0.1-0.7,0.1-1.1,0.2c-1.7,0.2-3.5,0.5-5.2,0.6c-0.1,0-0.1,0-0.2,0
			c-1.8,0.2-3.7,0.3-5.5,0.5c-0.4,0-0.8,0-1.2,0.1c-1.4,0.1-2.9,0.2-4.3,0.2c-0.5,0-1,0-1.5,0.1c-1.8,0.1-3.6,0.1-5.4,0.1
			s-3.6,0-5.4-0.1c-0.5,0-1,0-1.5-0.1c-1.4-0.1-2.9-0.1-4.3-0.2c-0.4,0-0.8,0-1.2-0.1c-1.8-0.1-3.7-0.3-5.5-0.5c-0.1,0-0.1,0-0.2,0
			c-1.8-0.2-3.5-0.4-5.2-0.6c-0.4,0-0.7-0.1-1.1-0.2c-1.6-0.2-3.3-0.5-4.9-0.8c-0.2,0-0.4-0.1-0.6-0.1c-1.8-0.3-3.6-0.7-5.4-1
			c-0.3-0.1-0.7-0.2-1-0.2c-1.4-0.3-2.8-0.6-4.2-1c-0.5-0.1-1.1-0.3-1.6-0.4c-1.4-0.4-2.8-0.7-4.2-1.1c-0.8-0.2-1.5-0.4-2.2-0.6
			c-1.1-0.3-2.1-0.6-3.2-1c-0.9-0.3-1.8-0.6-2.7-0.9c-0.6-0.2-1.2-0.4-1.8-0.6c-67.5-23.4-116.1-87.5-116.1-162.9
			c0-95,77.3-172.3,172.3-172.3s172.3,77.3,172.3,172.3C428.3,277.2,379.7,341.4,312.2,364.7z"/>
	</g>
</g>
<g>
	<g>
		<path class="st0" d="M343.6,201.8l27.7-52.1c2.4-4.5,2.3-9.9-0.2-14.3s-7.2-7.2-12.3-7.4l-59-2l-31.3-50.1
			c-2.7-4.3-7.4-6.9-12.5-6.9s-9.8,2.6-12.5,6.9L212.2,126l-59,2c-5.1,0.2-9.7,3-12.3,7.4s-2.6,9.8-0.2,14.3l27.7,52.1L140.6,254
			c-2.4,4.5-2.3,9.9,0.2,14.3s7.2,7.2,12.3,7.4l59,2l31.3,50.1c2.7,4.3,7.4,6.9,12.5,6.9s9.8-2.6,12.5-6.9l31.3-50.1l59-2
			c5.1-0.2,9.7-3,12.3-7.4s2.6-9.8,0.2-14.3L343.6,201.8z M290.9,248.5c-4.9,0.2-9.4,2.8-12,6.9L256,292.1l-22.9-36.7
			c-2.6-4.2-7.1-6.8-12-6.9l-43.2-1.5l20.3-38.2c2.3-4.3,2.3-9.5,0-13.9l-20.3-38.2l43.2-1.5c4.9-0.2,9.4-2.8,12-6.9l22.9-36.7
			l22.9,36.7c2.6,4.2,7.1,6.8,12,6.9l43.2,1.5l-20.3,38.2c-2.3,4.3-2.3,9.5,0,13.9l20.3,38.2L290.9,248.5z"/>
	</g>
</g>
</svg>
