<?xml version="1.0" encoding="utf-8"?>
<!-- Generator: Adobe Illustrator 25.0.1, SVG Export Plug-In . SVG Version: 6.00 Build 0)  -->
<svg version="1.1" id="Layer_1" xmlns="http://www.w3.org/2000/svg" xmlns:xlink="http://www.w3.org/1999/xlink" x="0px" y="0px"
	 viewBox="0 0 512 512" style="enable-background:new 0 0 512 512;" xml:space="preserve">
<style type="text/css">
	.st0{fill:#FFFFFF;}
</style>
<path class="st0" d="M268,164c0-46.4-37.6-84-84-84s-84,37.6-84,84s37.6,84,84,84C230.4,247.9,267.9,210.4,268,164z M184,216
	c-28.7,0-52-23.3-52-52s23.3-52,52-52s52,23.3,52,52C236,192.7,212.7,216,184,216z"/>
<path class="st0" d="M496,0H16C7.2,0,0,7.2,0,16v344c0,8.8,7.2,16,16,16h64v16c0,19,13.4,35.4,32,39.2V496c0,8.8,7.2,16,16,16h112
	c8.8,0,16-7.2,16-16V345.9l39.2-19.6c3-1.5,5.4-3.9,7-6.8l47.1-88.2c2.9-5.5,3.6-11.8,1.9-17.8l31.6-71c3.6-8.1-0.1-17.5-8.2-21.1
	c-8.1-3.6-17.5,0.1-21.1,8.1l-29.7,66.9c-3.6,0.7-7.1,2.2-10,4.4L250.7,248H120c-22.1,0-40,17.9-40,40v56H32V32h448v312H288
	c-8.8,0-16,7.2-16,16s7.2,16,16,16h208c8.8,0,16-7.2,16-16V16C512,7.2,504.8,0,496,0z M112,288c0-4.4,3.6-8,8-8h136
	c3.5,0,6.8-1.1,9.6-3.2L304,248l-27.7,52l-43.4,21.7c-5.4,2.7-8.8,8.3-8.8,14.3v144h-80v-64c0-8.8-7.2-16-16-16h-8c-4.4,0-8-3.6-8-8
	V288z"/>
<circle class="st0" cx="392" cy="80" r="16"/>
</svg>
