<?xml version="1.0" encoding="utf-8"?>
<!-- Generator: Adobe Illustrator 25.0.1, SVG Export Plug-In . SVG Version: 6.00 Build 0)  -->
<svg version="1.1" id="Layer_1" xmlns="http://www.w3.org/2000/svg" xmlns:xlink="http://www.w3.org/1999/xlink" x="0px" y="0px"
	 viewBox="0 0 512 512" style="enable-background:new 0 0 512 512;" xml:space="preserve">
<style type="text/css">
	.st0{fill:#FFFFFF;}
</style>
<g>
	<g id="XMLID_2109_">
		<g id="XMLID_980_">
			<path id="XMLID_992_" class="st0" d="M496.9,131.6l-119-119c-16.8-16.8-44-16.8-60.8,0l-66.9,66.9c-3.9,3.9-3.9,10.2,0,14.1
				c3.9,3.9,10.2,3.9,14.1,0l66.9-66.9c9-9,23.5-9,32.5,0l119,119c9,9,9,23.5,0,32.5L286.7,374.3c-4.3,4.3-10.1,6.7-16.2,6.7
				s-11.9-2.4-16.2-6.7l-8.2-8.2l45.7-45.7c15.5-15.5,15.5-40.8,0-56.3c-15.5-15.5-40.8-15.5-56.3,0l-40.5,40.5l-6.6,0.1
				c-1.2,0-2.4,0.1-3.6,0.1l-49.5-49.5c-9-9-9-23.5,0-32.5l65.5-65.5c3.9-3.9,3.9-10.2,0-14.1c-3.9-3.9-10.2-3.9-14.1,0L121,208.6
				c-16.8,16.8-16.8,44,0,60.8l40,40c-12.2,4.2-23.3,11.2-32.7,20.5c-16.1,16.1-25.1,37.4-25.3,60.2l-0.1,7.1L5.5,494.8
				c-3.9,3.9-3.9,10.2,0,14.1c2,2,4.5,2.9,7.1,2.9s5.1-1,7.1-2.9l100.5-100.5c1.8-1.9,2.9-4.4,2.9-7l0.1-11.2
				c0.2-17.5,7.1-33.9,19.4-46.2c12.3-12.3,28.6-19.2,46-19.4l10.6-0.1c2.6,0,5.1-1.1,6.9-2.9l43.4-43.4c7.7-7.7,20.3-7.7,28.1,0
				s7.7,20.3,0,28.1l-65.1,65.1c-3.9,3.9-3.9,10.2,0,14.1c3.9,3.9,10.2,3.9,14.1,0l5.2-5.2l8.2,8.2c8.4,8.4,19.4,12.6,30.4,12.6
				c11,0,22-4.2,30.4-12.6l46.4-46.4l-25.9,70c-7.6,20.6-24.8,36.5-45.9,42.4l-80,22.6c-1.6,0.5-3.1,1.3-4.4,2.6l-15.4,15.4
				c-3.9,3.9-3.9,10.2,0,14.1c2,2,4.5,2.9,7.1,2.9c2.6,0,5.1-1,7.1-2.9l13.5-13.5l77.5-21.9c27.3-7.7,49.4-28.2,59.2-54.7
				l40.9-110.8l115.8-115.8C513.6,175.6,513.6,148.3,496.9,131.6L496.9,131.6z"/>
			<path id="XMLID_1133_" class="st0" d="M326.7,271c2,2,4.5,2.9,7.1,2.9s5.1-1,7.1-2.9l103.8-103.8c3.9-3.9,3.9-10.2,0-14.1
				c-3.9-3.9-10.2-3.9-14.1,0L326.7,256.9C322.8,260.8,322.8,267.1,326.7,271L326.7,271z"/>
			<path id="XMLID_1134_" class="st0" d="M217.3,189.7l-33.4,33.4c-3.9,3.9-3.9,10.2,0,14.1c2,2,4.5,2.9,7.1,2.9
				c2.6,0,5.1-1,7.1-2.9l33.4-33.4c3.9-3.9,3.9-10.2,0-14.1C227.6,185.8,221.2,185.8,217.3,189.7z"/>
			<path id="XMLID_1135_" class="st0" d="M225.4,128.4c2.6,0,5.2-1.1,7.1-2.9c1.9-1.9,2.9-4.4,2.9-7.1c0-2.6-1.1-5.2-2.9-7.1
				c-1.9-1.9-4.4-2.9-7.1-2.9s-5.2,1.1-7.1,2.9c-1.9,1.9-2.9,4.4-2.9,7.1c0,2.6,1.1,5.2,2.9,7.1
				C220.2,127.3,222.8,128.4,225.4,128.4z"/>
		</g>
	</g>
	<g>
		<path class="st0" d="M349.3,143.3c-19.6,0-35.5-15.9-35.5-35.5s15.9-35.5,35.5-35.5c19.6,0,35.5,15.9,35.5,35.5
			S368.8,143.3,349.3,143.3z M349.3,92.3c-8.6,0-15.5,7-15.5,15.5s7,15.5,15.5,15.5c8.6,0,15.5-7,15.5-15.5S357.8,92.3,349.3,92.3z"
			/>
	</g>
</g>
</svg>
