<?xml version="1.0" encoding="utf-8"?>
<!-- Generator: Adobe Illustrator 25.0.1, SVG Export Plug-In . SVG Version: 6.00 Build 0)  -->
<svg version="1.1" id="Layer_6" xmlns="http://www.w3.org/2000/svg" xmlns:xlink="http://www.w3.org/1999/xlink" x="0px" y="0px"
	 viewBox="0 0 512 512" style="enable-background:new 0 0 512 512;" xml:space="preserve">
<style type="text/css">
	.st0{fill:#FFFFFF;}
</style>
<path class="st0" d="M85.3,409.6c-28.3,0-51.2-22.9-51.2-51.2l0,0V256c0-9.5,7.7-17.1,17.1-17.1h34.1c28.3,0,51.2,22.9,51.2,51.2
	l0,0v68.3C136.5,386.7,113.6,409.6,85.3,409.6C85.3,409.6,85.3,409.6,85.3,409.6L85.3,409.6z M68.2,273v85.4
	c0.9,9.4,9.3,16.3,18.7,15.4c8.1-0.8,14.6-7.2,15.4-15.4v-68.3c0-9.5-7.7-17.1-17.1-17.1H68.2z"/>
<path class="st0" d="M53.9,204.6h-2.7c-9.3-1.6-15.6-10.4-14.1-19.7C57.5,64.1,172.1-17.3,292.9,3.1c45.4,7.7,87.3,29.3,119.9,61.8
	c32.6,32.5,54.2,74.4,61.8,119.8c2.5,9.1-2.9,18.5-12,21c-9.1,2.5-18.5-2.9-21-12c-0.3-1.1-0.5-2.3-0.6-3.4
	C423.6,88.2,326.7,19.4,224.6,36.7c-78.7,13.3-140.3,75-153.7,153.7C69.5,198.7,62.3,204.7,53.9,204.6z"/>
<path class="st0" d="M185.6,102.4c-9.4-0.3-16.8-8.3-16.5-17.7c0.2-5.9,3.5-11.3,8.7-14.3c49.1-24.8,107.2-24.8,156.3,0
	c8.5,4.1,12.1,14.3,8.1,22.8s-14.3,12.1-22.8,8.1c-0.4-0.2-0.8-0.4-1.2-0.6c-39.2-20.1-85.7-20.1-125,0
	C190.8,101.8,188.2,102.4,185.6,102.4L185.6,102.4z"/>
<path class="st0" d="M461,238.9h-34.2c-28.3,0-51.2,22.9-51.2,51.2l0,0v68.3c0,28.3,22.9,51.2,51.2,51.2c0,0,0,0,0,0
	c5-0.1,10-0.9,14.7-2.4c-6.4,21.7-26.2,36.6-48.8,36.6H304c-9.4-26.7-38.7-40.7-65.3-31.2c-26.7,9.4-40.7,38.7-31.2,65.3
	s38.7,40.7,65.3,31.2c14.6-5.2,26.1-16.6,31.2-31.2h88.6c47.1-0.1,85.2-38.2,85.3-85.3V256C477.9,246.6,470.4,239,461,238.9
	L461,238.9z M256,477.9c-9.5,0-17.1-7.7-17.1-17.1c0-9.5,7.7-17.1,17.1-17.1c9.5,0,17.1,7.7,17.1,17.1S265.5,477.9,256,477.9
	L256,477.9z M443.8,358.4c-0.9,9.4-9.3,16.3-18.7,15.4c-8.1-0.8-14.6-7.2-15.4-15.4v-68.3c0-9.5,7.7-17.1,17.1-17.1H444L443.8,358.4
	z"/>
</svg>
