<svg id="Layer_1" enable-background="new 0 0 64 64" height="512" viewBox="0 0 64 64" width="512" xmlns="http://www.w3.org/2000/svg"><g><path d="m59 6h-5v-3c0-1.654-1.346-3-3-3h-4c-1.654 0-3 1.346-3 3v3h-24v-3c0-1.654-1.346-3-3-3h-4c-1.654 0-3 1.346-3 3v3h-5c-2.757 0-5 2.243-5 5v40c0 2.757 2.243 5 5 5h30v7c0 .552.448 1 1 1h18c.552 0 1-.448 1-1v-7h4c2.757 0 5-2.243 5-5v-40c0-2.757-2.243-5-5-5zm-13-3c0-.551.449-1 1-1h4c.551 0 1 .449 1 1v8c0 .551-.449 1-1 1h-4c-.551 0-1-.449-1-1zm-34 0c0-.551.449-1 1-1h4c.551 0 1 .449 1 1v8c0 .551-.449 1-1 1h-4c-.551 0-1-.449-1-1zm25.555 43.168c-1.6-1.066-2.555-2.851-2.555-4.773v-2.395c0-.551.449-1 1-1h1v1c0 .552.448 1 1 1s1-.448 1-1v-2-12c0-.551.449-1 1-1s1 .449 1 1v8 6c0 .552.448 1 1 1s1-.448 1-1v-6c0-.551.449-1 1-1s1 .449 1 1v6c0 .552.448 1 1 1s1-.448 1-1v-6c0-.294.128-.572.353-.762.227-.193.518-.272.823-.224.462.076.824.556.824 1.093v1.893 4c0 .552.448 1 1 1s1-.448 1-1v-4c0-.294.128-.572.353-.762.228-.193.518-.273.823-.224.462.076.824.555.825 1.092v.002 8.948c0 .463-.109.927-.317 1.342l-.578 1.155c-.07.138-.106.292-.106.447v3h-14v-3c0-.334-.167-.646-.445-.832zm2.445-24.168c-1.654 0-3 1.346-3 3v3c-.551 0-1-.449-1-1v-6c0-.551.449-1 1-1h6c.551 0 1 .449 1 1v6c0 .551-.449 1-1 1v-3c0-1.654-1.346-3-3-3zm17 14c.551 0 1 .449 1 1v6c0 .551-.449 1-1 1h-2v-8zm-4 26h-16v-10h16zm9-11c0 1.654-1.346 3-3 3h-4v-3c0-.552-.448-1-1-1v-2.764l.472-.944c.047-.095.084-.194.125-.292h2.403c1.654 0 3-1.346 3-3v-6c0-1.654-1.346-3-3-3h-2.2c-.374-1.01-1.241-1.786-2.303-1.959-.557-.091-1.117-.026-1.623.179-.323-1.117-1.239-1.994-2.377-2.179-.878-.143-1.769.103-2.439.674-.02.017-.039.033-.058.05-.773-.692-2.001-.946-2.999-.593v-.172c1.654 0 3-1.346 3-3v-6c0-1.654-1.346-3-3-3h-6c-1.654 0-3 1.346-3 3v6c0 1.654 1.346 3 3 3v6h-1c-1.654 0-3 1.346-3 3v2.395c0 2.409 1.112 4.657 3 6.118v2.487c-.552 0-1 .448-1 1v3h-30.001c-1.654 0-3-1.346-3-3v-40c0-1.654 1.346-3 3-3h5v3c0 1.654 1.346 3 3 3h4c1.654 0 3-1.346 3-3v-3h24v3c0 1.654 1.346 3 3 3h4c1.654 0 3-1.346 3-3v-3h5c1.654 0 3 1.346 3 3z"/><path d="m15 18h-6c-1.654 0-3 1.346-3 3v6c0 1.654 1.346 3 3 3h6c1.654 0 3-1.346 3-3v-6c0-1.654-1.346-3-3-3zm1 9c0 .551-.449 1-1 1h-6c-.551 0-1-.449-1-1v-6c0-.551.449-1 1-1h6c.551 0 1 .449 1 1z"/><path d="m13.2 21.4-2.309 3.078-.185-.185c-.391-.391-1.023-.391-1.414 0s-.391 1.023 0 1.414l1 1c.189.189.444.293.708.293.023 0 .047-.001.071-.002.289-.021.555-.166.729-.397l3-4c.332-.442.242-1.069-.2-1.4-.442-.333-1.068-.242-1.4.199z"/><path d="m29 18h-6c-1.654 0-3 1.346-3 3v6c0 1.654 1.346 3 3 3h6c1.654 0 3-1.346 3-3v-6c0-1.654-1.346-3-3-3zm1 9c0 .551-.449 1-1 1h-6c-.551 0-1-.449-1-1v-6c0-.551.449-1 1-1h6c.551 0 1 .449 1 1z"/><path d="m27.2 21.4-2.309 3.078-.185-.185c-.391-.391-1.023-.391-1.414 0s-.391 1.023 0 1.414l1 1c.189.189.444.293.708.293.023 0 .047-.001.071-.002.289-.021.555-.166.729-.397l3-4c.332-.442.242-1.069-.2-1.4-.442-.333-1.068-.242-1.4.199z"/><path d="m57 18h-6c-1.654 0-3 1.346-3 3v6c0 1.654 1.346 3 3 3h6c1.654 0 3-1.346 3-3v-6c0-1.654-1.346-3-3-3zm1 9c0 .551-.449 1-1 1h-6c-.551 0-1-.449-1-1v-6c0-.551.449-1 1-1h6c.551 0 1 .449 1 1z"/><path d="m15 34h-6c-1.654 0-3 1.346-3 3v6c0 1.654 1.346 3 3 3h6c1.654 0 3-1.346 3-3v-6c0-1.654-1.346-3-3-3zm1 9c0 .551-.449 1-1 1h-6c-.551 0-1-.449-1-1v-6c0-.551.449-1 1-1h6c.551 0 1 .449 1 1z"/><path d="m29 34h-6c-1.654 0-3 1.346-3 3v6c0 1.654 1.346 3 3 3h6c1.654 0 3-1.346 3-3v-6c0-1.654-1.346-3-3-3zm1 9c0 .551-.449 1-1 1h-6c-.551 0-1-.449-1-1v-6c0-.551.449-1 1-1h6c.551 0 1 .449 1 1z"/></g></svg>