<svg xmlns="http://www.w3.org/2000/svg" xmlns:xlink="http://www.w3.org/1999/xlink" viewBox="0 0 400.41 355.43"><defs><style>.a,.aa,.ab,.ac,.b,.c,.d,.e,.f,.g,.h,.i,.j,.k,.l,.m,.n,.p,.q,.r,.s,.t,.u,.v,.w,.x,.y,.z{fill:#231f20;}.a,.aa,.ab,.ac,.ad,.ae,.af,.ag,.ah,.ai,.aj,.ak,.al,.am,.an,.ao,.ap,.aq,.ar,.as,.at,.au,.av,.aw,.ax,.ay,.az,.b,.ba,.bb,.bc,.c,.d,.e,.f,.g,.h,.i,.j,.k,.l,.m,.n,.o,.p,.q,.r,.s,.t,.u,.v,.w,.x,.y,.z{stroke-miterlimit:10;}.a{stroke:url(#a);}.b{stroke:url(#b);}.c{stroke:url(#c);}.d{stroke:url(#d);}.e{stroke:url(#e);}.f{stroke:url(#f);}.g{stroke:url(#g);}.h{stroke:url(#h);}.i{stroke:url(#i);}.j{stroke:url(#j);}.k{stroke:url(#k);}.l{stroke:url(#l);}.m{stroke:url(#m);}.n{stroke:url(#n);}.ad,.o{fill:none;}.o{stroke:url(#o);}.p{stroke:url(#p);}.q{stroke:url(#q);}.r{stroke:url(#r);}.s{stroke:url(#s);}.t{stroke:url(#t);}.u{stroke:url(#u);}.v{stroke:url(#v);}.w{stroke:url(#w);}.x{stroke:url(#x);}.y{stroke:url(#y);}.z{stroke:url(#z);}.aa{stroke:url(#aa);}.ab{stroke:url(#ab);}.ac{stroke:url(#ac);}.ad{stroke:url(#ad);}.ae{stroke:url(#ae);}.af{stroke:url(#af);}.ag{stroke:url(#ag);}.ah{stroke:url(#ah);}.ai{fill:url(#ai);stroke:url(#aj);}.aj{fill:url(#ak);stroke:url(#al);}.ak{fill:url(#am);stroke:url(#an);}.al{fill:url(#ao);stroke:url(#ap);}.am{fill:url(#aq);stroke:url(#ar);}.an{stroke:url(#as);}.ao{stroke:url(#at);}.ap{stroke:url(#au);}.aq{stroke:url(#av);}.ar{stroke:url(#aw);}.as{stroke:url(#ax);}.at{stroke:url(#ay);}.au{stroke:url(#az);}.av{stroke:url(#ba);}.aw{stroke:url(#bb);}.ax{stroke:url(#bc);}.ay{stroke:url(#bd);}.az{stroke:url(#be);}.ba{stroke:url(#bf);}.bb{stroke:url(#bg);}.bc{stroke:url(#bh);}</style><linearGradient id="a" x1="217.67" y1="351.41" x2="249.73" y2="351.41" gradientUnits="userSpaceOnUse"><stop offset="0.01" stop-color="#fbc93d"/><stop offset="0.15" stop-color="#c58d43"/><stop offset="0.29" stop-color="#a36d36"/><stop offset="0.39" stop-color="#905c2f"/><stop offset="0.54" stop-color="#b79056"/><stop offset="0.71" stop-color="#e4cd83"/><stop offset="1" stop-color="#bd891a"/></linearGradient><linearGradient id="b" x1="249.99" y1="341.61" x2="286.39" y2="341.61" xlink:href="#a"/><linearGradient id="c" x1="280.28" y1="326.65" x2="319.84" y2="326.65" xlink:href="#a"/><linearGradient id="d" x1="307.12" y1="306.91" x2="348.91" y2="306.91" xlink:href="#a"/><linearGradient id="e" x1="328.84" y1="282.95" x2="372.38" y2="282.95" xlink:href="#a"/><linearGradient id="f" x1="343.65" y1="255.6" x2="389.29" y2="255.6" xlink:href="#a"/><linearGradient id="g" x1="350.95" y1="225.77" x2="398.88" y2="225.77" xlink:href="#a"/><linearGradient id="h" x1="352.24" y1="193.43" x2="400.69" y2="193.43" xlink:href="#a"/><linearGradient id="i" x1="347.91" y1="157.65" x2="394.95" y2="157.65" xlink:href="#a"/><linearGradient id="j" x1="337.97" y1="123.63" x2="383" y2="123.63" xlink:href="#a"/><linearGradient id="k" x1="322.78" y1="92.52" x2="366.07" y2="92.52" xlink:href="#a"/><linearGradient id="l" x1="303.1" y1="65.66" x2="344.17" y2="65.66" xlink:href="#a"/><linearGradient id="m" x1="279.64" y1="44.46" x2="318.02" y2="44.46" xlink:href="#a"/><linearGradient id="n" x1="262.87" y1="34.42" x2="292.91" y2="34.42" xlink:href="#a"/><linearGradient id="o" x1="133.32" y1="210.63" x2="322.64" y2="210.63" gradientTransform="matrix(-1, 0, 0, 1, 510.61, 0)" xlink:href="#a"/><linearGradient id="p" x1="151.24" y1="351.41" x2="183.31" y2="351.41" xlink:href="#a"/><linearGradient id="q" x1="114.58" y1="341.61" x2="150.98" y2="341.61" xlink:href="#a"/><linearGradient id="r" x1="81.13" y1="326.65" x2="120.69" y2="326.65" xlink:href="#a"/><linearGradient id="s" x1="52.06" y1="306.91" x2="93.85" y2="306.91" xlink:href="#a"/><linearGradient id="t" x1="28.59" y1="282.95" x2="72.13" y2="282.95" xlink:href="#a"/><linearGradient id="u" x1="11.68" y1="255.6" x2="57.32" y2="255.6" xlink:href="#a"/><linearGradient id="v" x1="2.09" y1="225.77" x2="50.03" y2="225.77" xlink:href="#a"/><linearGradient id="w" x1="0.28" y1="193.43" x2="48.73" y2="193.43" xlink:href="#a"/><linearGradient id="x" x1="6.02" y1="157.65" x2="53.07" y2="157.65" xlink:href="#a"/><linearGradient id="y" x1="17.98" y1="123.63" x2="63" y2="123.63" xlink:href="#a"/><linearGradient id="z" x1="34.91" y1="92.52" x2="78.19" y2="92.52" xlink:href="#a"/><linearGradient id="aa" x1="56.8" y1="65.66" x2="97.87" y2="65.66" xlink:href="#a"/><linearGradient id="ab" x1="82.95" y1="44.46" x2="121.33" y2="44.46" xlink:href="#a"/><linearGradient id="ac" x1="108.06" y1="34.42" x2="138.1" y2="34.42" xlink:href="#a"/><linearGradient id="ad" x1="-163.08" y1="210.65" x2="26.26" y2="210.65" gradientTransform="translate(186.76)" xlink:href="#a"/><linearGradient id="ae" x1="86.28" y1="139.58" x2="120.07" y2="139.58" xlink:href="#a"/><linearGradient id="af" x1="123.48" y1="137.54" x2="132.85" y2="137.54" xlink:href="#a"/><linearGradient id="ag" x1="136.3" y1="142.42" x2="160.19" y2="142.42" xlink:href="#a"/><linearGradient id="ah" x1="162.69" y1="138.96" x2="187.98" y2="138.96" xlink:href="#a"/><linearGradient id="ai" x1="192.59" y1="139.58" x2="225.38" y2="139.58" gradientUnits="userSpaceOnUse"><stop offset="0" stop-color="#e91d2c"/><stop offset="1" stop-color="#e01826"/></linearGradient><linearGradient id="aj" x1="192.09" y1="139.58" x2="225.88" y2="139.58" xlink:href="#a"/><linearGradient id="ak" x1="229.05" y1="142.55" x2="253.33" y2="142.55" xlink:href="#ai"/><linearGradient id="al" x1="228.55" y1="142.55" x2="253.83" y2="142.55" xlink:href="#a"/><linearGradient id="am" x1="254.61" y1="143.02" x2="266.12" y2="143.02" xlink:href="#ai"/><linearGradient id="an" x1="254.11" y1="143.02" x2="266.62" y2="143.02" xlink:href="#a"/><linearGradient id="ao" x1="269.91" y1="137.54" x2="278.28" y2="137.54" xlink:href="#ai"/><linearGradient id="ap" x1="269.41" y1="137.54" x2="278.78" y2="137.54" xlink:href="#a"/><linearGradient id="aq" x1="280.38" y1="142.55" x2="304.26" y2="142.55" xlink:href="#ai"/><linearGradient id="ar" x1="279.43" y1="142.55" x2="305.21" y2="142.55" xlink:href="#a"/><linearGradient id="as" x1="103.29" y1="200.3" x2="132.73" y2="200.3" xlink:href="#a"/><linearGradient id="at" x1="134.51" y1="203.33" x2="158.6" y2="203.33" xlink:href="#a"/><linearGradient id="au" x1="161.31" y1="203.2" x2="176.58" y2="203.2" xlink:href="#a"/><linearGradient id="av" x1="177.27" y1="200.52" x2="192.78" y2="200.52" xlink:href="#a"/><linearGradient id="aw" x1="195.04" y1="198.32" x2="204.41" y2="198.32" xlink:href="#a"/><linearGradient id="ax" x1="206.01" y1="198.67" x2="220.41" y2="198.67" xlink:href="#a"/><linearGradient id="ay" x1="222.05" y1="198.32" x2="231.42" y2="198.32" xlink:href="#a"/><linearGradient id="az" x1="233.47" y1="203.33" x2="257.56" y2="203.33" xlink:href="#a"/><linearGradient id="ba" x1="258.87" y1="199.74" x2="284.16" y2="199.74" xlink:href="#a"/><linearGradient id="bb" x1="122.67" y1="258.47" x2="146.06" y2="258.47" xlink:href="#a"/><linearGradient id="bc" x1="148.61" y1="261.32" x2="163.88" y2="261.32" xlink:href="#a"/><linearGradient id="bd" x1="164.86" y1="261.44" x2="190.15" y2="261.44" xlink:href="#a"/><linearGradient id="be" x1="193.6" y1="256.43" x2="202.97" y2="256.43" xlink:href="#a"/><linearGradient id="bf" x1="206.42" y1="261.32" x2="230.31" y2="261.32" xlink:href="#a"/><linearGradient id="bg" x1="232.81" y1="261.44" x2="256.91" y2="261.44" xlink:href="#a"/><linearGradient id="bh" x1="259.62" y1="261.32" x2="274.88" y2="261.32" xlink:href="#a"/></defs><path class="a" d="M235.94,361.23a27.28,27.28,0,0,0-11.89-6.33,15.21,15.21,0,0,0-2.84-.34,15,15,0,0,0,2.75-.76c2.85-1,6.56-3.57,9.63-8.7a47.75,47.75,0,0,0,4.23-10.62c1-3.36,1.42-5.93,1.42-5.93s-.84.43-2.19,1.25-3.19,2.12-5.26,3.61A52.28,52.28,0,0,0,225.3,339a30.69,30.69,0,0,0-5.72,7.42,9.35,9.35,0,0,0-1.31,6.1,5.26,5.26,0,0,0,.87,2.24,5.36,5.36,0,0,0-.67,2.28,8.52,8.52,0,0,0,2,5.93,25.86,25.86,0,0,0,7.72,6.39,44,44,0,0,0,9.3,3.62,51.85,51.85,0,0,0,7.83,1.4c2,.23,3.27.27,3.27.27s-1.8-2.15-4.27-4.9A97.64,97.64,0,0,0,235.94,361.23Z" transform="translate(-0.28 -22.52)"/><path class="b" d="M280,359.26a90.87,90.87,0,0,0-10-6.6,27.25,27.25,0,0,0-12.93-3.81,14.85,14.85,0,0,0-2.85.24,14.27,14.27,0,0,0,2.54-1.3c2.59-1.54,5.7-4.84,7.68-10.45a48.85,48.85,0,0,0,2-11.27c.13-1.73.18-3.25.2-4.34V320l-1.88,1.68a62.73,62.73,0,0,0-4.42,4.6,50.27,50.27,0,0,0-5.24,6.74A30.75,30.75,0,0,0,251,341.4a9.42,9.42,0,0,0,0,6.25,5.18,5.18,0,0,0,1.3,2,5.4,5.4,0,0,0-.19,2.37,8.41,8.41,0,0,0,3.18,5.4,25.84,25.84,0,0,0,8.86,4.72,46.37,46.37,0,0,0,9.85,1.67,59.9,59.9,0,0,0,7.95-.21c1-.09,1.83-.19,2.39-.26l.86-.16-1.45-1.12Z" transform="translate(-0.28 -22.52)"/><path class="c" d="M301.75,337.35a33.47,33.47,0,0,0-7.84-1.48,24.41,24.41,0,0,0-5.58.38,14.6,14.6,0,0,0-2.76.79,14.61,14.61,0,0,0,2.25-1.77,15.19,15.19,0,0,0,3.22-4.46,22.46,22.46,0,0,0,2.17-7.34,49.87,49.87,0,0,0-.29-11.41c-.45-3.46-1.07-6.06-1.07-6.06s-.57.78-1.48,2.07a69.49,69.49,0,0,0-7.2,13,31.53,31.53,0,0,0-2.33,9.06,9.41,9.41,0,0,0,1.22,6.15,5.08,5.08,0,0,0,1.67,1.67,5.35,5.35,0,0,0,.3,2.39,8.41,8.41,0,0,0,4.19,4.62,25.05,25.05,0,0,0,9.64,2.84,44.47,44.47,0,0,0,10-.34,67.52,67.52,0,0,0,7.75-1.78,28.9,28.9,0,0,0,3.08-1.1s-2.46-1.21-5.82-2.77A88.27,88.27,0,0,0,301.75,337.35Z" transform="translate(-0.28 -22.52)"/><path class="d" d="M329.69,316a36,36,0,0,0-8,.13,20.45,20.45,0,0,0-5.37,1.51A14.66,14.66,0,0,0,313.8,319a14.45,14.45,0,0,0,1.86-2.16,17.42,17.42,0,0,0,2.24-5.05,20.89,20.89,0,0,0,.65-7.64A47.35,47.35,0,0,0,316,293c-1.17-3.33-2.26-5.73-2.26-5.73s-.44.85-1,2.33-1.51,3.47-2.29,5.94c-1.62,4.89-3.3,11.29-2.64,17.61a9.43,9.43,0,0,0,2.42,5.77,5.11,5.11,0,0,0,2,1.32,5.43,5.43,0,0,0,.77,2.27,8.46,8.46,0,0,0,5,3.7c6.28,2.06,13.83.69,19.71-1.49a53.82,53.82,0,0,0,7.24-3.28c1.75-1,2.79-1.69,2.79-1.69s-2.68-.73-6.25-1.55A97.35,97.35,0,0,0,329.69,316Z" transform="translate(-0.28 -22.52)"/><path class="e" d="M352.82,289.51c-6.18.71-10.27,2.47-12.75,4.26a24.08,24.08,0,0,0-2.22,1.81,10.38,10.38,0,0,0,1.36-2.5,19.39,19.39,0,0,0,.31-13,45.12,45.12,0,0,0-4.73-10.39c-1.8-3-3.34-5.14-3.34-5.14s-.26.91-.58,2.47-.7,3.75-1,6.29c-.16,1.27-.28,2.65-.34,4.1s-.17,2.9-.14,4.42a34.62,34.62,0,0,0,1.43,9.26,9.28,9.28,0,0,0,3.5,5.16,5.24,5.24,0,0,0,2.21.9,5.3,5.3,0,0,0,1.2,2.07,8.57,8.57,0,0,0,5.7,2.63,23.72,23.72,0,0,0,9.95-1.18,43.13,43.13,0,0,0,4.79-1.85c1.49-.74,2.93-1.55,4.26-2.37a44.88,44.88,0,0,0,6.43-4.67c1.54-1.32,2.42-2.21,2.42-2.21s-2.78-.18-6.45-.28A106.53,106.53,0,0,0,352.82,289.51Z" transform="translate(-0.28 -22.52)"/><path class="f" d="M370.18,258.92a30.78,30.78,0,0,0-7.23,3.27,20.25,20.25,0,0,0-4.43,3.46,19.11,19.11,0,0,0-1.77,2.24,12.91,12.91,0,0,0,.8-2.75,18,18,0,0,0,.16-5.49,24,24,0,0,0-2.44-7.3,45.89,45.89,0,0,0-6.75-9.22c-2.35-2.59-4.28-4.35-4.28-4.35s-.08.94-.09,2.52.12,3.84.26,6.37c.46,5.13,1.36,11.64,4.51,17.24a9.31,9.31,0,0,0,4.46,4.34,5.28,5.28,0,0,0,2.35.44,5.15,5.15,0,0,0,1.58,1.78,8.55,8.55,0,0,0,6.12,1.44c6.52-.6,13-4.79,17.52-9.12a44.55,44.55,0,0,0,5.36-5.88c1.25-1.59,1.95-2.64,1.95-2.64s-2.78.38-6.41,1A107.14,107.14,0,0,0,370.18,258.92Z" transform="translate(-0.28 -22.52)"/><path class="g" d="M381,225.45a30.69,30.69,0,0,0-6.45,4.66,22.55,22.55,0,0,0-3.62,4.28,14.66,14.66,0,0,0-1.3,2.55,15,15,0,0,0,.24-2.85,16.36,16.36,0,0,0-1-5.41,23.7,23.7,0,0,0-3.84-6.65,47,47,0,0,0-8.47-7.66c-2.83-2.07-5.07-3.4-5.07-3.4s.11.94.42,2.49.9,3.73,1.54,6.18a59.21,59.21,0,0,0,2.93,8,31,31,0,0,0,5,8,9.17,9.17,0,0,0,5.23,3.35,5.15,5.15,0,0,0,2.4,0,5.12,5.12,0,0,0,1.9,1.43,8.65,8.65,0,0,0,6.29.18,25.81,25.81,0,0,0,8.67-5,42.28,42.28,0,0,0,6.64-7.46,49.33,49.33,0,0,0,4.05-6.85c.91-1.81,1.39-3,1.39-3s-2.65.93-6.08,2.29A103,103,0,0,0,381,225.45Z" transform="translate(-0.28 -22.52)"/><path class="h" d="M394.53,183.5a103.89,103.89,0,0,0-9.63,7,30.44,30.44,0,0,0-5.39,5.84,23.5,23.5,0,0,0-2.69,4.93,15.24,15.24,0,0,0-.76,2.76,15.09,15.09,0,0,0-.33-2.84,15.88,15.88,0,0,0-2-5.1,23.78,23.78,0,0,0-5.09-5.76,46.84,46.84,0,0,0-9.89-5.83c-3.19-1.46-5.67-2.32-5.67-2.32s.3.9.93,2.36,1.71,3.49,2.81,5.77a55.06,55.06,0,0,0,4.48,7.28,30.77,30.77,0,0,0,6.47,6.8,9.37,9.37,0,0,0,5.81,2.23,5.39,5.39,0,0,0,2.35-.53,5.14,5.14,0,0,0,2.14,1,8.54,8.54,0,0,0,6.19-1.09,25.79,25.79,0,0,0,7.49-6.65,42.64,42.64,0,0,0,5-8.63,44.09,44.09,0,0,0,2.54-7.49c.51-2,.74-3.18.74-3.18S397.61,181.49,394.53,183.5Z" transform="translate(-0.28 -22.52)"/><path class="i" d="M376,167.65a14.37,14.37,0,0,0-.25,2.85,14.13,14.13,0,0,0-.85-2.72c-1-2.81-3.93-6.37-9.17-9.2a37.07,37.07,0,0,0-5.22-2.23c-1.87-.63-3.83-1.12-5.54-1.52-3.45-.78-6.06-1.13-6.06-1.13s.49.82,1.42,2.11l1.7,2.28c.61.87,1.31,1.82,2.11,2.82a49,49,0,0,0,5.92,6.21,29.8,29.8,0,0,0,7.57,5.39,9.41,9.41,0,0,0,6.17,1,5.09,5.09,0,0,0,2.17-1,5.45,5.45,0,0,0,2.33.57,8.48,8.48,0,0,0,5.82-2.3,26.25,26.25,0,0,0,6.13-8,46.43,46.43,0,0,0,3.11-9.45c.35-1.54.61-3,.82-4.35s.21-2.53.26-3.54c.09-2,.05-3.27.05-3.27s-2,1.89-4.63,4.48c-1.3,1.29-2.7,2.75-4.12,4.26s-2.86,3.07-4,4.54A27.86,27.86,0,0,0,376,167.65Z" transform="translate(-0.28 -22.52)"/><path class="j" d="M356.49,128.07a44.55,44.55,0,0,0-11.27-1.51c-3.55-.07-6.18.13-6.18.13s.65.7,1.83,1.77,2.73,2.62,4.74,4.23a63.53,63.53,0,0,0,7,4.91,30.62,30.62,0,0,0,8.55,3.72,9.54,9.54,0,0,0,6.27-.24,5,5,0,0,0,1.92-1.39,5.48,5.48,0,0,0,2.41.08,8.45,8.45,0,0,0,5.22-3.42,26.06,26.06,0,0,0,4.33-9.08,40,40,0,0,0,1.17-9.9,43.17,43.17,0,0,0-.52-8c-.33-2-.62-3.2-.62-3.2s-1.62,2.25-3.62,5.3a108.76,108.76,0,0,0-6.2,10.29,30.2,30.2,0,0,0-2.61,7.47,24.24,24.24,0,0,0-.57,5.6,15.24,15.24,0,0,0,.36,2.84,14.71,14.71,0,0,0-1.4-2.49,15.51,15.51,0,0,0-3.83-3.9A24,24,0,0,0,356.49,128.07Z" transform="translate(-0.28 -22.52)"/><path class="k" d="M330,100.82c-3.49.64-6,1.36-6,1.36s3.18,2.13,7.64,4.57c1.14.6,2.39,1.2,3.72,1.76.67.29,1.36.56,2.07.83s1.36.56,2.06.81a30.25,30.25,0,0,0,9.16,1.91,9.47,9.47,0,0,0,6.1-1.5,5.11,5.11,0,0,0,1.6-1.75,5.4,5.4,0,0,0,2.37-.41A8.36,8.36,0,0,0,363.1,104a25.9,25.9,0,0,0,2.38-9.76c.06-.86.09-1.73.09-2.59s-.1-1.68-.19-2.51c-.17-1.67-.43-3.29-.73-4.83a43.51,43.51,0,0,0-3.34-10.69s-1.13,2.53-2.48,5.92a104.66,104.66,0,0,0-4,11.32,30,30,0,0,0-1,7.84,20.92,20.92,0,0,0,.55,5.6,14.26,14.26,0,0,0,.94,2.71,14.56,14.56,0,0,0-1.89-2.15,16.82,16.82,0,0,0-4.53-3.06,24.09,24.09,0,0,0-7.52-1.78A45.4,45.4,0,0,0,330,100.82Z" transform="translate(-0.28 -22.52)"/><path class="l" d="M304.26,81.16s.87.39,2.39.92,3.51,1.36,6,2c5,1.3,11.35,2.84,17.74,1.81a9.55,9.55,0,0,0,5.68-2.7,5.06,5.06,0,0,0,1.21-2,5.49,5.49,0,0,0,2.24-.88A8.35,8.35,0,0,0,343,75.13c1.66-6.28.13-13.91-2.42-19.59A47.48,47.48,0,0,0,337,48.43c-1.09-1.7-1.84-2.7-1.84-2.7s-.59,2.71-1.24,6.3a99.65,99.65,0,0,0-1.68,11.9,29.59,29.59,0,0,0,.56,7.87,20,20,0,0,0,1.66,5.39,14.11,14.11,0,0,0,1.46,2.46,15.79,15.79,0,0,0-2.28-1.72,17.56,17.56,0,0,0-5.05-2.1,23.91,23.91,0,0,0-7.73-.23,45.83,45.83,0,0,0-11,3C306.61,80,304.26,81.16,304.26,81.16Z" transform="translate(-0.28 -22.52)"/><path class="m" d="M280.77,64.52s.93.2,2.52.41,3.71.63,6.29.81c5.22.24,11.68.52,17.75-1.79a9.56,9.56,0,0,0,5-3.78,5.05,5.05,0,0,0,.78-2.23,5.5,5.5,0,0,0,2-1.31,8.35,8.35,0,0,0,2.33-5.77c.37-6.47-2.64-13.66-6.28-18.71a52.13,52.13,0,0,0-4.93-6.27c-1.4-1.44-2.34-2.26-2.34-2.26s0,2.77.05,6.41a98.47,98.47,0,0,0,.73,12,30.15,30.15,0,0,0,2.12,7.61,20.72,20.72,0,0,0,2.7,5,15.65,15.65,0,0,0,1.93,2.12,15.66,15.66,0,0,0-2.58-1.24,17.88,17.88,0,0,0-5.37-1,23.94,23.94,0,0,0-7.62,1.31,46.58,46.58,0,0,0-10.12,5.15C282.83,62.86,280.77,64.52,280.77,64.52Z" transform="translate(-0.28 -22.52)"/><path class="n" d="M275.47,38.35c9.26,8,16.57,5.44,16.57,5.44s1.74-3.6-2.27-8c-8.65-9.55-25.89-11-25.89-11S270,33.63,275.47,38.35Z" transform="translate(-0.28 -22.52)"/><path class="o" d="M188.45,377.78a51.66,51.66,0,0,1,3.82-11,22,22,0,0,1,18.3-11.81A166.25,166.25,0,0,0,292,43.79" transform="translate(-0.28 -22.52)"/><path class="p" d="M165,361.23a27.28,27.28,0,0,1,11.89-6.33,15.21,15.21,0,0,1,2.84-.34,15,15,0,0,1-2.75-.76c-2.85-1-6.56-3.57-9.63-8.7a47.75,47.75,0,0,1-4.23-10.62c-1-3.36-1.42-5.93-1.42-5.93s.84.43,2.19,1.25,3.19,2.12,5.26,3.61a53.07,53.07,0,0,1,6.5,5.55,30.69,30.69,0,0,1,5.72,7.42,9.41,9.41,0,0,1,1.31,6.1,5.34,5.34,0,0,1-.88,2.24,5.2,5.2,0,0,1,.67,2.28,8.55,8.55,0,0,1-2,5.93,25.9,25.9,0,0,1-7.73,6.39,43.81,43.81,0,0,1-9.3,3.62,51.75,51.75,0,0,1-7.82,1.4c-2,.23-3.28.27-3.28.27s1.8-2.15,4.27-4.9A97.64,97.64,0,0,1,165,361.23Z" transform="translate(-0.28 -22.52)"/><path class="q" d="M120.94,359.26a91.83,91.83,0,0,1,10-6.6,27.28,27.28,0,0,1,12.93-3.81,15,15,0,0,1,2.86.24,14.66,14.66,0,0,1-2.55-1.3c-2.59-1.54-5.69-4.84-7.67-10.45a48.34,48.34,0,0,1-2-11.27c-.13-1.73-.18-3.25-.19-4.34s0-1.76,0-1.76l1.88,1.68c1.16,1.06,2.71,2.67,4.42,4.6a49.44,49.44,0,0,1,5.23,6.74,30.75,30.75,0,0,1,4.11,8.41,9.42,9.42,0,0,1,0,6.25,5.18,5.18,0,0,1-1.3,2,5.3,5.3,0,0,1,.2,2.37,8.5,8.5,0,0,1-3.18,5.4,26,26,0,0,1-8.87,4.72,46.37,46.37,0,0,1-9.85,1.67,59.9,59.9,0,0,1-8-.21c-1-.09-1.83-.19-2.39-.26l-.86-.16,1.46-1.12Z" transform="translate(-0.28 -22.52)"/><path class="r" d="M99.22,337.35a33.47,33.47,0,0,1,7.84-1.48,24.32,24.32,0,0,1,5.58.38,14.6,14.6,0,0,1,2.76.79,14.59,14.59,0,0,1-2.24-1.77,15.2,15.2,0,0,1-3.23-4.46,22.46,22.46,0,0,1-2.17-7.34,49.87,49.87,0,0,1,.29-11.41c.45-3.46,1.07-6.06,1.07-6.06s.57.78,1.48,2.07a53.35,53.35,0,0,1,3.43,5.38,51.94,51.94,0,0,1,3.78,7.65,32.2,32.2,0,0,1,2.33,9.06,9.54,9.54,0,0,1-1.22,6.15,5.05,5.05,0,0,1-1.68,1.67,5.42,5.42,0,0,1-.29,2.39,8.44,8.44,0,0,1-4.2,4.62,25.05,25.05,0,0,1-9.64,2.84,44.5,44.5,0,0,1-10-.34,68,68,0,0,1-7.75-1.78,28.08,28.08,0,0,1-3.07-1.1s2.46-1.21,5.81-2.77A88.88,88.88,0,0,1,99.22,337.35Z" transform="translate(-0.28 -22.52)"/><path class="s" d="M71.28,316a36,36,0,0,1,8,.13,20.42,20.42,0,0,1,5.38,1.51A14.53,14.53,0,0,1,87.17,319a15.06,15.06,0,0,1-1.85-2.16,17.15,17.15,0,0,1-2.25-5.05,21.11,21.11,0,0,1-.65-7.64A47.36,47.36,0,0,1,85,293c1.16-3.33,2.26-5.73,2.26-5.73s.43.85,1,2.33,1.5,3.47,2.29,5.94c1.61,4.89,3.29,11.29,2.63,17.61a9.37,9.37,0,0,1-2.42,5.77,5.11,5.11,0,0,1-2,1.32A5.31,5.31,0,0,1,88,322.5,8.52,8.52,0,0,1,83,326.2c-6.28,2.06-13.83.69-19.7-1.49A53.45,53.45,0,0,1,56,321.43c-1.75-1-2.79-1.69-2.79-1.69s2.68-.73,6.25-1.55A97.35,97.35,0,0,1,71.28,316Z" transform="translate(-0.28 -22.52)"/><path class="t" d="M48.16,289.51c6.17.71,10.26,2.47,12.75,4.26a25.2,25.2,0,0,1,2.21,1.81,10.73,10.73,0,0,1-1.36-2.5,19.46,19.46,0,0,1-.31-13,44.74,44.74,0,0,1,4.74-10.39c1.79-3,3.33-5.14,3.33-5.14s.27.91.58,2.47.71,3.75,1,6.29c.16,1.27.28,2.65.35,4.1a42.65,42.65,0,0,1,.13,4.42,34.6,34.6,0,0,1-1.42,9.26,9.34,9.34,0,0,1-3.51,5.16,5.24,5.24,0,0,1-2.21.9,5.3,5.3,0,0,1-1.2,2.07,8.54,8.54,0,0,1-5.7,2.63,23.73,23.73,0,0,1-9.95-1.18,43.91,43.91,0,0,1-4.79-1.85c-1.49-.74-2.92-1.55-4.26-2.37a45.46,45.46,0,0,1-6.43-4.67c-1.53-1.32-2.42-2.21-2.42-2.21s2.79-.18,6.46-.28A106.62,106.62,0,0,1,48.16,289.51Z" transform="translate(-0.28 -22.52)"/><path class="u" d="M30.79,258.92A30.78,30.78,0,0,1,38,262.19a20.25,20.25,0,0,1,4.43,3.46,19.33,19.33,0,0,1,1.78,2.24,12.31,12.31,0,0,1-.81-2.75,18.31,18.31,0,0,1-.16-5.49,24,24,0,0,1,2.45-7.3,45.84,45.84,0,0,1,6.74-9.22c2.35-2.59,4.28-4.35,4.28-4.35s.09.94.09,2.52-.12,3.84-.26,6.37c-.46,5.13-1.36,11.64-4.51,17.24a9.26,9.26,0,0,1-4.45,4.34,5.33,5.33,0,0,1-2.36.44,5.15,5.15,0,0,1-1.58,1.78,8.55,8.55,0,0,1-6.12,1.44c-6.52-.6-13-4.79-17.52-9.12a45.09,45.09,0,0,1-5.35-5.88c-1.26-1.59-1.95-2.64-1.95-2.64s2.77.38,6.4,1A107.14,107.14,0,0,1,30.79,258.92Z" transform="translate(-0.28 -22.52)"/><path class="v" d="M19.94,225.45a30.43,30.43,0,0,1,6.45,4.66A22.65,22.65,0,0,1,30,234.39a15.26,15.26,0,0,1,1.29,2.55,15,15,0,0,1-.24-2.85,16.36,16.36,0,0,1,1-5.41A24,24,0,0,1,35.88,222a46.69,46.69,0,0,1,8.48-7.66c2.82-2.07,5.06-3.4,5.06-3.4s-.11.94-.41,2.49-.91,3.73-1.55,6.18a56.62,56.62,0,0,1-2.93,8,31,31,0,0,1-5,8A9.22,9.22,0,0,1,34.31,239a5.1,5.1,0,0,1-2.39,0,5.24,5.24,0,0,1-1.9,1.43,8.68,8.68,0,0,1-6.3.18,25.9,25.9,0,0,1-8.67-5,42.28,42.28,0,0,1-6.64-7.46,48.15,48.15,0,0,1-4-6.85c-.91-1.81-1.39-3-1.39-3s2.64.93,6.07,2.29A102.12,102.12,0,0,1,19.94,225.45Z" transform="translate(-0.28 -22.52)"/><path class="w" d="M6.44,183.5a103.89,103.89,0,0,1,9.63,7,30.12,30.12,0,0,1,5.39,5.84,23.5,23.5,0,0,1,2.69,4.93,15.24,15.24,0,0,1,.76,2.76,15.21,15.21,0,0,1,.34-2.84,15.83,15.83,0,0,1,2-5.1,24,24,0,0,1,5.09-5.76,46.84,46.84,0,0,1,9.89-5.83c3.2-1.46,5.67-2.32,5.67-2.32s-.3.9-.93,2.36-1.7,3.49-2.8,5.77a56.27,56.27,0,0,1-4.49,7.28,30.72,30.72,0,0,1-6.46,6.8,9.41,9.41,0,0,1-5.82,2.23,5.32,5.32,0,0,1-2.34-.53,5.23,5.23,0,0,1-2.15,1A8.55,8.55,0,0,1,16.75,206a26,26,0,0,1-7.49-6.65,42.12,42.12,0,0,1-5-8.63,44.26,44.26,0,0,1-2.55-7.49c-.51-2-.74-3.18-.74-3.18S3.37,181.49,6.44,183.5Z" transform="translate(-0.28 -22.52)"/><path class="x" d="M25,167.65a15.05,15.05,0,0,1,.24,2.85,14.88,14.88,0,0,1,.85-2.72c1-2.81,3.93-6.37,9.17-9.2a37.07,37.07,0,0,1,5.22-2.23c1.87-.63,3.83-1.12,5.55-1.52,3.44-.78,6-1.13,6-1.13s-.49.82-1.42,2.11L49,158.09c-.61.87-1.31,1.82-2.11,2.82A49.54,49.54,0,0,1,41,167.12a29.68,29.68,0,0,1-7.58,5.39,9.41,9.41,0,0,1-6.17,1,5.09,5.09,0,0,1-2.17-1,5.39,5.39,0,0,1-2.33.57,8.48,8.48,0,0,1-5.82-2.3,26.56,26.56,0,0,1-6.13-8,46.43,46.43,0,0,1-3.11-9.45c-.34-1.54-.61-3-.82-4.35s-.21-2.53-.26-3.54c-.09-2,0-3.27,0-3.27s2,1.89,4.63,4.48c1.31,1.29,2.7,2.75,4.13,4.26s2.85,3.07,4,4.54A27.9,27.9,0,0,1,25,167.65Z" transform="translate(-0.28 -22.52)"/><path class="y" d="M44.49,128.07a44.55,44.55,0,0,1,11.27-1.51c3.54-.07,6.17.13,6.17.13s-.65.7-1.83,1.77-2.73,2.62-4.73,4.23a64.49,64.49,0,0,1-7,4.91,30.81,30.81,0,0,1-8.56,3.72,9.54,9.54,0,0,1-6.27-.24,5,5,0,0,1-1.92-1.39,5.42,5.42,0,0,1-2.4.08A8.4,8.4,0,0,1,24,136.35a25.71,25.71,0,0,1-4.33-9.08,39.09,39.09,0,0,1-1.17-9.9,43.29,43.29,0,0,1,.51-8c.33-2,.62-3.2.62-3.2s1.62,2.25,3.62,5.3a111,111,0,0,1,6.21,10.29,30.13,30.13,0,0,1,2.6,7.47,24.24,24.24,0,0,1,.57,5.6,15.24,15.24,0,0,1-.36,2.84,15.75,15.75,0,0,1,5.24-6.39A23.77,23.77,0,0,1,44.49,128.07Z" transform="translate(-0.28 -22.52)"/><path class="z" d="M71,100.82c3.49.64,6,1.36,6,1.36s-3.18,2.13-7.64,4.57c-1.14.6-2.38,1.2-3.72,1.76-.67.29-1.35.56-2.06.83s-1.36.56-2.07.81a30.25,30.25,0,0,1-9.16,1.91,9.49,9.49,0,0,1-6.1-1.5,5,5,0,0,1-1.59-1.75,5.45,5.45,0,0,1-2.38-.41A8.35,8.35,0,0,1,37.88,104a25.91,25.91,0,0,1-2.39-9.76c-.06-.86-.08-1.73-.08-2.59s.1-1.68.18-2.51c.17-1.67.43-3.29.73-4.83a43.26,43.26,0,0,1,3.35-10.69s1.12,2.53,2.47,5.92a104.66,104.66,0,0,1,4,11.32,29.57,29.57,0,0,1,1,7.84,20.92,20.92,0,0,1-.55,5.6,15.06,15.06,0,0,1-.93,2.71,14.42,14.42,0,0,1,1.88-2.15,16.82,16.82,0,0,1,4.53-3.06A24.16,24.16,0,0,1,59.65,100,45.28,45.28,0,0,1,71,100.82Z" transform="translate(-0.28 -22.52)"/><path class="aa" d="M96.71,81.16s-.87.39-2.38.92-3.52,1.36-6,2c-5,1.3-11.35,2.84-17.74,1.81a9.52,9.52,0,0,1-5.67-2.7,4.91,4.91,0,0,1-1.21-2,5.5,5.5,0,0,1-2.25-.88A8.39,8.39,0,0,1,58,75.13c-1.67-6.28-.13-13.91,2.41-19.59A48.37,48.37,0,0,1,64,48.43c1.08-1.7,1.83-2.7,1.83-2.7s.6,2.71,1.24,6.3a101.74,101.74,0,0,1,1.69,11.9,29.55,29.55,0,0,1-.57,7.87,20.41,20.41,0,0,1-1.65,5.39,15.48,15.48,0,0,1-1.46,2.46,15.1,15.1,0,0,1,2.27-1.72,17.56,17.56,0,0,1,5-2.1,23.93,23.93,0,0,1,7.73-.23,45.91,45.91,0,0,1,11,3C94.37,80,96.71,81.16,96.71,81.16Z" transform="translate(-0.28 -22.52)"/><path class="ab" d="M120.2,64.52s-.93.2-2.52.41-3.71.63-6.29.81c-5.21.24-11.68.52-17.74-1.79a9.55,9.55,0,0,1-5-3.78,5.05,5.05,0,0,1-.78-2.23,5.43,5.43,0,0,1-2-1.31,8.3,8.3,0,0,1-2.34-5.77c-.37-6.47,2.65-13.66,6.28-18.71a54.22,54.22,0,0,1,4.93-6.27C96.1,24.44,97,23.62,97,23.62s0,2.77,0,6.41a96.51,96.51,0,0,1-.73,12,30.15,30.15,0,0,1-2.12,7.61,20.37,20.37,0,0,1-2.7,5,14.44,14.44,0,0,1-1.93,2.12,15.66,15.66,0,0,1,2.58-1.24,17.88,17.88,0,0,1,5.37-1,23.85,23.85,0,0,1,7.62,1.31,46.58,46.58,0,0,1,10.12,5.15C118.15,62.86,120.2,64.52,120.2,64.52Z" transform="translate(-0.28 -22.52)"/><path class="ac" d="M125.5,38.35c-9.25,8-16.56,5.44-16.56,5.44s-1.74-3.6,2.26-8c8.66-9.55,25.89-11,25.89-11S131,33.63,125.5,38.35Z" transform="translate(-0.28 -22.52)"/><path class="ad" d="M212.53,377.84a51.84,51.84,0,0,0-3.82-11.09,22,22,0,0,0-18.31-11.81A166.24,166.24,0,0,1,108.94,43.79" transform="translate(-0.28 -22.52)"/><path class="ae" d="M119.57,125.11v28.94h-7.06V136.69L106,154.05h-5.69l-6.52-17.4v17.4h-7V125.11h8.33l8.13,20,8-20Z" transform="translate(-0.28 -22.52)"/><path class="af" d="M125.15,127.56a3.55,3.55,0,0,1-1.17-2.7,3.59,3.59,0,0,1,1.17-2.74,4.29,4.29,0,0,1,3-1.1,4.21,4.21,0,0,1,3,1.1,3.57,3.57,0,0,1,1.18,2.74,3.53,3.53,0,0,1-1.18,2.7,4.2,4.2,0,0,1-3,1.09A4.29,4.29,0,0,1,125.15,127.56Zm6.54,3.48v23h-7V131Z" transform="translate(-0.28 -22.52)"/><path class="ag" d="M157.28,133.42a10.23,10.23,0,0,1,2.41,7.19v13.44h-7V141.56a5,5,0,0,0-1.2-3.59,4.68,4.68,0,0,0-6.43,0,5,5,0,0,0-1.2,3.59v12.49h-7V131h7v3.06a7.47,7.47,0,0,1,2.89-2.42,9.19,9.19,0,0,1,4.08-.88A8.34,8.34,0,0,1,157.28,133.42Z" transform="translate(-0.28 -22.52)"/><path class="ah" d="M164.53,136.28a10,10,0,0,1,3.65-4.12,9.56,9.56,0,0,1,5.16-1.45,9.07,9.07,0,0,1,4.14.95,7.69,7.69,0,0,1,3,2.56V123.54h7v30.51h-7v-3.3a7.16,7.16,0,0,1-2.83,2.64,8.82,8.82,0,0,1-4.26,1,9.4,9.4,0,0,1-5.16-1.46,10.14,10.14,0,0,1-3.65-4.17,15.18,15.18,0,0,1,0-12.47Zm14.44,2.1a5,5,0,0,0-7.14,0,5.74,5.74,0,0,0-1.46,4.15,5.85,5.85,0,0,0,1.46,4.18,4.91,4.91,0,0,0,7.14,0,6.67,6.67,0,0,0,0-8.33Z" transform="translate(-0.28 -22.52)"/><path class="ai" d="M225.38,125.11v28.94h-7.06V136.69l-6.47,17.36h-5.69l-6.52-17.4v17.4h-7V125.11h8.33l8.13,20,8-20Z" transform="translate(-0.28 -22.52)"/><path class="aj" d="M230.39,136.28a9.93,9.93,0,0,1,3.65-4.12,9.51,9.51,0,0,1,5.15-1.45,8.88,8.88,0,0,1,4.27,1,7.32,7.32,0,0,1,2.82,2.6V131h7.05v23h-7.05V150.8a7.57,7.57,0,0,1-2.86,2.59,8.88,8.88,0,0,1-4.27,1,9.28,9.28,0,0,1-5.11-1.46,10.07,10.07,0,0,1-3.65-4.17,15.18,15.18,0,0,1,0-12.47Zm14.43,2.1a5,5,0,0,0-7.13,0,5.7,5.7,0,0,0-1.47,4.15,5.81,5.81,0,0,0,1.47,4.18,4.71,4.71,0,0,0,3.56,1.55,4.77,4.77,0,0,0,3.57-1.53,6.67,6.67,0,0,0,0-8.33Z" transform="translate(-0.28 -22.52)"/><path class="ak" d="M265.5,157q0,4.24-2.15,6.13a8.78,8.78,0,0,1-6,1.87h-2.76v-6h1.69a2.43,2.43,0,0,0,1.65-.45,1.93,1.93,0,0,0,.5-1.48V131h7.05Zm-6.58-29.46a3.55,3.55,0,0,1-1.17-2.7,3.59,3.59,0,0,1,1.17-2.74,4.28,4.28,0,0,1,3-1.1,4.21,4.21,0,0,1,3,1.1,3.6,3.6,0,0,1,1.18,2.74,3.56,3.56,0,0,1-1.18,2.7,4.2,4.2,0,0,1-3,1.09A4.27,4.27,0,0,1,258.92,127.56Z" transform="translate(-0.28 -22.52)"/><path class="al" d="M271.09,127.56a3.53,3.53,0,0,1-1.18-2.7,3.57,3.57,0,0,1,1.18-2.74,4.67,4.67,0,0,1,6,0,3.59,3.59,0,0,1,1.17,2.74,3.55,3.55,0,0,1-1.17,2.7,4.7,4.7,0,0,1-6,0Zm6.53,3.48v23h-7.05V131Z" transform="translate(-0.28 -22.52)"/><path class="am" d="M296.34,154.05l-4.41-6.39-3.71,6.39h-7.63l7.59-11.75L280.38,131h7.92l4.41,6.35,3.71-6.35h7.63l-7.71,11.59,7.92,11.42Z" transform="translate(-0.28 -22.52)"/><path class="an" d="M105.65,192.67a13.29,13.29,0,0,1,5.17-5.24,15.05,15.05,0,0,1,7.53-1.88,14.35,14.35,0,0,1,8.82,2.73,13,13,0,0,1,4.91,7.42h-7.75a6.26,6.26,0,0,0-2.46-2.76,6.8,6.8,0,0,0-3.6-.95,6.69,6.69,0,0,0-5.28,2.27,10.1,10.1,0,0,0,0,12.12,6.72,6.72,0,0,0,5.28,2.27,6.89,6.89,0,0,0,3.6-1,6.26,6.26,0,0,0,2.46-2.76h7.75a13,13,0,0,1-4.91,7.4,14.46,14.46,0,0,1-8.82,2.7,15.05,15.05,0,0,1-7.53-1.88,13.35,13.35,0,0,1-5.17-5.21,16.62,16.62,0,0,1,0-15.28Z" transform="translate(-0.28 -22.52)"/><path class="ao" d="M158,205H142a4.81,4.81,0,0,0,1.38,3.28,4.25,4.25,0,0,0,3,1.13,3.7,3.7,0,0,0,3.67-2.23h7.5a10.13,10.13,0,0,1-2.08,4.09,10.42,10.42,0,0,1-3.77,2.84,12.06,12.06,0,0,1-5.07,1,12.32,12.32,0,0,1-6-1.44,10.3,10.3,0,0,1-4.13-4.12,12.75,12.75,0,0,1-1.48-6.27,13,13,0,0,1,1.46-6.27,10.17,10.17,0,0,1,4.1-4.12,13.35,13.35,0,0,1,12-.05,10.07,10.07,0,0,1,4.07,4A12.19,12.19,0,0,1,158.1,203,18.59,18.59,0,0,1,158,205Zm-7.1-3.92a3.65,3.65,0,0,0-1.23-2.89,4.6,4.6,0,0,0-3.1-1.07,4.52,4.52,0,0,0-3,1,4.59,4.59,0,0,0-1.5,2.93Z" transform="translate(-0.28 -22.52)"/><path class="ap" d="M172,192.67a7.93,7.93,0,0,1,4.12-1.09V199h-1.94a6,6,0,0,0-4,1.13c-.88.76-1.32,2.09-1.32,4v10.68h-7.05v-23h7.05v3.84A9.31,9.31,0,0,1,172,192.67Z" transform="translate(-0.28 -22.52)"/><path class="aq" d="M192.28,208.85v6H188.7a8.78,8.78,0,0,1-6-1.87c-1.43-1.25-2.15-3.3-2.15-6.13v-9.15h-2.8v-5.86h2.8v-5.61h7.05v5.61h4.62v5.86h-4.62v9.24a1.93,1.93,0,0,0,.5,1.48,2.43,2.43,0,0,0,1.65.45Z" transform="translate(-0.28 -22.52)"/><path class="ar" d="M196.72,188.34a3.72,3.72,0,0,1,0-5.44,4.67,4.67,0,0,1,6,0,3.75,3.75,0,0,1,0,5.44,4.7,4.7,0,0,1-6,0Zm6.53,3.48v23H196.2v-23Z" transform="translate(-0.28 -22.52)"/><path class="as" d="M219.91,197.68h-3.79v17.15h-7.05V197.68h-2.56v-5.86h2.56v-.66q0-4.24,2.43-6.45t7.13-2.21c.53,0,.91,0,1.16,0v6a4.05,4.05,0,0,0-2.85.58,3.19,3.19,0,0,0-.82,2.52v.2h3.79Z" transform="translate(-0.28 -22.52)"/><path class="at" d="M223.73,188.34a3.72,3.72,0,0,1,0-5.44,4.67,4.67,0,0,1,6,0,3.75,3.75,0,0,1,0,5.44,4.7,4.7,0,0,1-6,0Zm6.53,3.48v23h-7v-23Z" transform="translate(-0.28 -22.52)"/><path class="au" d="M256.94,205H241a4.81,4.81,0,0,0,1.38,3.28,4.25,4.25,0,0,0,3,1.13A3.69,3.69,0,0,0,249,207.2h7.51a10.39,10.39,0,0,1-2.08,4.09,10.54,10.54,0,0,1-3.78,2.84,12.06,12.06,0,0,1-5.07,1,12.38,12.38,0,0,1-6-1.44,10.28,10.28,0,0,1-4.12-4.12,14,14,0,0,1,0-12.54,10,10,0,0,1,4.1-4.12,13.35,13.35,0,0,1,12-.05,10.11,10.11,0,0,1,4.06,4,12.08,12.08,0,0,1,1.46,6.06A18.59,18.59,0,0,1,256.94,205Zm-7.09-3.92a3.62,3.62,0,0,0-1.24-2.89,4.56,4.56,0,0,0-3.09-1.07,4.51,4.51,0,0,0-3,1A4.65,4.65,0,0,0,241,201.1Z" transform="translate(-0.28 -22.52)"/><path class="av" d="M260.71,197.06a10,10,0,0,1,3.65-4.12,9.48,9.48,0,0,1,5.16-1.45,9.07,9.07,0,0,1,4.14.95,7.54,7.54,0,0,1,2.95,2.56V184.32h7.05v30.51h-7.05v-3.3a7.2,7.2,0,0,1-2.82,2.64,8.88,8.88,0,0,1-4.27,1,9.49,9.49,0,0,1-5.16-1.46,10.2,10.2,0,0,1-3.65-4.17,15.18,15.18,0,0,1,0-12.47Zm14.44,2.1a5,5,0,0,0-7.14,0,5.74,5.74,0,0,0-1.46,4.15,5.85,5.85,0,0,0,1.46,4.18,4.91,4.91,0,0,0,7.14,0,6.67,6.67,0,0,0,0-8.33Z" transform="translate(-0.28 -22.52)"/><path class="aw" d="M145.56,244v5.65h-7.67V273h-7v-23.3h-7.67V244Z" transform="translate(-0.28 -22.52)"/><path class="ax" d="M159.25,250.78a8,8,0,0,1,4.13-1.09v7.46h-1.94a5.92,5.92,0,0,0-4,1.14c-.88.75-1.32,2.08-1.32,4V273h-7v-23h7v3.83A9.47,9.47,0,0,1,159.25,250.78Z" transform="translate(-0.28 -22.52)"/><path class="ay" d="M166.7,255.17a10,10,0,0,1,3.65-4.12,9.52,9.52,0,0,1,5.15-1.44,8.86,8.86,0,0,1,4.27,1,7.3,7.3,0,0,1,2.82,2.59v-3.25h7.06v23h-7.06v-3.26a7.59,7.59,0,0,1-2.86,2.6,8.88,8.88,0,0,1-4.27,1,9.32,9.32,0,0,1-5.11-1.47,10,10,0,0,1-3.65-4.16,15.2,15.2,0,0,1,0-12.48Zm14.43,2.11a5,5,0,0,0-7.13,0,5.7,5.7,0,0,0-1.47,4.15,5.85,5.85,0,0,0,1.47,4.19,4.7,4.7,0,0,0,3.56,1.54,4.78,4.78,0,0,0,3.57-1.52,6.67,6.67,0,0,0,0-8.33Z" transform="translate(-0.28 -22.52)"/><path class="az" d="M195.27,246.45a3.55,3.55,0,0,1-1.17-2.7,3.59,3.59,0,0,1,1.17-2.74,4.29,4.29,0,0,1,3-1.1,4.21,4.21,0,0,1,3,1.1,3.57,3.57,0,0,1,1.18,2.74,3.53,3.53,0,0,1-1.18,2.7,4.2,4.2,0,0,1-3,1.09A4.29,4.29,0,0,1,195.27,246.45Zm6.54,3.49v23h-7.05v-23Z" transform="translate(-0.28 -22.52)"/><path class="ba" d="M227.4,252.31a10.23,10.23,0,0,1,2.41,7.19V273h-7v-12.5a5.06,5.06,0,0,0-1.2-3.59,4.68,4.68,0,0,0-6.43,0,5.06,5.06,0,0,0-1.2,3.59V273h-7.05v-23H214V253a7.45,7.45,0,0,1,2.89-2.41,9.05,9.05,0,0,1,4.08-.89A8.34,8.34,0,0,1,227.4,252.31Z" transform="translate(-0.28 -22.52)"/><path class="bb" d="M256.28,263.13h-16a4.77,4.77,0,0,0,1.39,3.28,4.18,4.18,0,0,0,3,1.13,3.72,3.72,0,0,0,3.68-2.22h7.5a10.32,10.32,0,0,1-5.86,6.92,12.06,12.06,0,0,1-5.07,1,12.38,12.38,0,0,1-6-1.45,10.21,10.21,0,0,1-4.12-4.12,14,14,0,0,1,0-12.54,10.11,10.11,0,0,1,4.1-4.12,12.45,12.45,0,0,1,6.06-1.44,12.24,12.24,0,0,1,5.94,1.4,10,10,0,0,1,4.06,4,12.09,12.09,0,0,1,1.47,6.06A18.52,18.52,0,0,1,256.28,263.13Zm-7.09-3.92a3.59,3.59,0,0,0-1.24-2.88,4.51,4.51,0,0,0-3.09-1.08,4.46,4.46,0,0,0-3,1,4.6,4.6,0,0,0-1.51,2.92Z" transform="translate(-0.28 -22.52)"/><path class="bc" d="M270.26,250.78a8,8,0,0,1,4.12-1.09v7.46h-1.93a5.92,5.92,0,0,0-4,1.14c-.88.75-1.32,2.08-1.32,4V273h-7.05v-23h7.05v3.83A9.28,9.28,0,0,1,270.26,250.78Z" transform="translate(-0.28 -22.52)"/></svg>