<?xml version="1.0" standalone="no"?>
<!DOCTYPE svg PUBLIC "-//W3C//DTD SVG 20010904//EN"
 "http://www.w3.org/TR/2001/REC-SVG-20010904/DTD/svg10.dtd">
<svg version="1.0" xmlns="http://www.w3.org/2000/svg"
 width="454.000000pt" height="340.000000pt" viewBox="0 0 454.000000 340.000000"
 preserveAspectRatio="xMidYMid meet">
<metadata>
Created by potrace 1.16, written by Peter Selinger 2001-2019
</metadata>
<g transform="translate(0.000000,340.000000) scale(0.100000,-0.100000)"
fill="#000000" stroke="none">
<path d="M2010 3126 c-577 -102 -1024 -533 -1147 -1106 -26 -121 -26 -449 0
-570 59 -275 188 -513 386 -710 201 -201 435 -328 711 -387 121 -26 449 -26
570 0 553 119 978 544 1097 1097 26 121 26 449 0 570 -118 549 -539 973 -1087
1095 -101 23 -426 29 -530 11z m-346 -605 c19 -17 133 -106 399 -309 49 -37
107 -82 129 -100 26 -21 44 -29 52 -24 6 5 61 47 121 93 341 258 450 343 453
350 2 5 8 9 13 9 5 0 9 -75 9 -175 0 -165 -1 -175 -20 -185 -49 -26 -84 19
-79 99 2 28 2 51 0 51 -3 0 -14 -8 -25 -19 -45 -40 -462 -354 -471 -354 -5 0
-110 76 -233 169 -123 93 -234 177 -248 187 l-24 19 -2 -584 c-1 -320 -3 -610
-3 -644 0 -68 -14 -94 -52 -94 -55 0 -53 -34 -53 779 0 413 3 751 7 751 4 0
16 -9 27 -19z m1495 -1497 c-16 -20 -63 -17 -82 4 -15 17 -17 74 -19 570 l-3
553 -80 -64 c-225 -178 -718 -559 -730 -563 -14 -6 -443 320 -452 343 -3 8 -1
25 5 39 23 49 55 34 256 -116 l186 -141 253 198 c138 108 329 256 422 329 94
73 188 148 210 167 l40 35 3 -671 c1 -486 -1 -674 -9 -683z m-1711 1226 c107
-80 122 -95 122 -120 0 -20 -8 -35 -24 -45 -26 -18 -48 -12 -89 22 -16 13 -32
23 -35 23 -4 0 -6 -241 -4 -536 2 -470 0 -540 -13 -560 -18 -28 -60 -32 -87
-7 -17 15 -18 49 -18 671 0 545 2 653 13 649 8 -3 69 -46 135 -97z m1375 -412
c16 -12 17 -46 15 -418 l-3 -405 -32 -3 c-62 -6 -63 -2 -63 418 0 365 1 377
20 398 24 25 39 27 63 10z"/>
</g>
</svg>
