<?xml version="1.0" encoding="utf-8"?>
<!-- Generator: Adobe Illustrator 25.0.1, SVG Export Plug-In . SVG Version: 6.00 Build 0)  -->
<svg version="1.1" id="Layer_1" xmlns="http://www.w3.org/2000/svg" xmlns:xlink="http://www.w3.org/1999/xlink" x="0px" y="0px"
	 viewBox="0 0 512 512" style="enable-background:new 0 0 512 512;" xml:space="preserve">
<style type="text/css">
	.st0{fill:#E31928;}
</style>
<path d="M472.3,361.6c0.4-1.5,0-3.1-0.9-4.4l-53.2-69.7c0-0.1-0.1-0.1-0.2-0.1c-0.1-0.2-0.3-0.3-0.4-0.5c-0.1-0.1-0.2-0.1-0.3-0.2
	c-0.3-0.3-0.6-0.5-1-0.7c0,0,0,0-0.1,0l0,0c0,0-0.1,0-0.1,0l-129.4-58.1l19.7-21.8l27.3,23h35.1L260.5,12.9L152.5,229.1l35.1,0
	l27.3-23l19.7,21.8l-129.2,58c-0.5,0.2-0.8,0.5-1.2,0.8c-0.1,0.1-0.3,0.1-0.4,0.3c-0.1,0.1-0.2,0.2-0.3,0.3
	c-0.1,0.1-0.2,0.2-0.3,0.4l-53.4,69.6c-1,1.2-1.3,2.8-0.9,4.4c0.4,1.5,1.4,2.8,2.8,3.5l50.5,24.7v40.2c0,2.1,1.2,3.9,3.1,4.8
	l153.3,68.9c0.7,0.3,1.4,0.5,2.1,0.5c0.7,0,1.5-0.2,2.1-0.5l153.5-68.9c1.9-0.8,3.1-2.7,3.1-4.8v-40.2l50.3-24.7
	C470.9,364.4,471.9,363.2,472.3,361.6L472.3,361.6z M221.2,197.6l39.3-152.2l39.5,151.9l-39.6,43.8L221.2,197.6z M337.4,218.6
	l-26.8-22.6L278.1,71.4l73.6,147.2L337.4,218.6L337.4,218.6z M183.7,218.6l-14.3,0l73.8-147.6l-32.2,124.7L183.7,218.6z
	 M260.5,256.7l18.7-20.7l122,54.8l-140.5,63.4l-140.7-63.4l121.9-54.7L260.5,256.7z M408.8,298.8v84.5l-93.8,46l-46.5-67.2
	L408.8,298.8z M252.9,362.1l-46.6,67.3l-93.8-46v-84.5L252.9,362.1z M61.9,358.6l40.1-52.4v72L61.9,358.6z M408.8,426.7l-148.3,66.5
	l-148-66.5V395l93.2,45.7c2.3,1.1,5.1,0.4,6.6-1.7l48.4-69.9L309,439c1,1.5,2.6,2.3,4.3,2.3c0.8,0,1.6-0.2,2.3-0.5l93.2-45.8
	L408.8,426.7z M419.3,378.2v-71.9l40,52.3L419.3,378.2z"/>
<path class="st0" d="M401.3,110.6h10.4v10.4h-10.4V110.6z"/>
<path class="st0" d="M449.2,214.3h10.4v10.4h-10.4V214.3z"/>
<path class="st0" d="M73.2,214.3h10.4v10.4H73.2L73.2,214.3z"/>
<path class="st0" d="M343.9,54.4v-9.1h9.1V34.9h-9.1v-9.1h-10.4v9.1h-9.1v10.4h9.1v9.1H343.9z"/>
<path class="st0" d="M160.3,101.6h9.1V91.1h-9.1v-9.1h-10.4v9.1h-9.1v10.4h9.1v9.1h10.4V101.6z"/>
</svg>
