<?xml version="1.0" encoding="utf-8"?>
<!-- Generator: Adobe Illustrator 25.0.1, SVG Export Plug-In . SVG Version: 6.00 Build 0)  -->
<svg version="1.1" id="Layer_1" xmlns="http://www.w3.org/2000/svg" xmlns:xlink="http://www.w3.org/1999/xlink" x="0px" y="0px"
	 viewBox="0 0 400 400" style="enable-background:new 0 0 400 400;" xml:space="preserve">
<style type="text/css">
	.st0{fill:none;}
	.st1{fill:#E51B29;}
	.st2{fill:#FFFFFF;}
</style>
<rect class="st0" width="400" height="303.5"/>
<path class="st1" d="M400,176.9H73c12-15.2,24-30.4,36.1-45.5C97,117.1,85,102.8,73,88.5c109,0,218,0,327,0V176.9z"/>
<g>
	<path class="st2" d="M178.3,128.7c-0.8,1.5-2.1,2.7-3.7,3.5c-2,1-4.2,1.4-6.4,1.3h-5.8l0,12.9h-5.2v-31.8l11,0
		c2.1-0.1,4.3,0.4,6.2,1.3c1.6,0.7,2.9,1.9,3.8,3.4c0.8,1.5,1.3,3.1,1.2,4.8C179.4,125.7,179,127.3,178.3,128.7z M172.6,127.9
		c1-1,1.5-2.4,1.4-3.8c0-3.5-2-5.2-5.9-5.2h-5.8v10.4l5.8,0C169.8,129.4,171.4,128.9,172.6,127.9L172.6,127.9z"/>
	<path class="st2" d="M192.7,121.9c1.4-0.7,2.9-1.1,4.5-1.1l0,5.4h-1.3c-1.7-0.1-3.4,0.4-4.6,1.6c-1,1-1.6,2.8-1.6,5.4v13.3l-5.2,0
		l0-25.3l5.2,0v3.6C190.4,123.6,191.4,122.6,192.7,121.9z"/>
	<path class="st2" d="M224.9,135.8h-19.3c0.1,3.8,3.4,6.8,7.2,6.7c2.5,0.2,4.9-1.2,5.9-3.5l5.6,0c-0.7,2.3-2.2,4.3-4.1,5.7
		c-2.2,1.5-4.8,2.3-7.4,2.2c-2.3,0-4.5-0.5-6.5-1.6c-1.9-1.1-3.4-2.7-4.4-4.6c-1.1-2.1-1.7-4.5-1.6-6.8c0-2.4,0.5-4.7,1.6-6.9
		c1-1.9,2.5-3.5,4.4-4.5c2-1.1,4.3-1.7,6.6-1.6c2.2,0,4.4,0.5,6.4,1.5c1.8,1,3.3,2.5,4.4,4.4c1.1,2,1.6,4.2,1.6,6.5
		C225.1,134,225.1,134.9,224.9,135.8z M219.6,131.6c0-1.8-0.7-3.5-2.1-4.6c-1.4-1.2-3.2-1.8-5-1.7c-1.7,0-3.4,0.6-4.6,1.7
		c-1.3,1.2-2.1,2.9-2.3,4.7L219.6,131.6z"/>
	<path class="st2" d="M240.8,125.5h-4.7l0,20.9h-5.3l0-20.9l-3,0v-4.2l3,0l0-1.8c0-2.9,0.8-5,2.3-6.3c1.5-1.3,4-2,7.3-2l0,4.4
		c-1.2-0.1-2.4,0.2-3.3,0.9c-0.7,0.9-1.1,2-1,3.1v1.8h4.7L240.8,125.5z"/>
	<path class="st2" d="M268.3,135.8H249c0.1,3.8,3.3,6.8,7.2,6.7c0,0,0,0,0,0c2.5,0.2,4.9-1.2,5.9-3.5h5.6c-0.7,2.3-2.2,4.3-4.1,5.7
		c-2.2,1.5-4.8,2.3-7.4,2.2c-2.3,0-4.5-0.5-6.5-1.6c-1.9-1.1-3.4-2.7-4.5-4.6c-1.1-2.1-1.7-4.4-1.6-6.8c0-2.4,0.5-4.7,1.6-6.9
		c1-1.9,2.5-3.5,4.4-4.5c2-1.1,4.3-1.6,6.6-1.6c2.2,0,4.4,0.5,6.4,1.5c1.8,1,3.3,2.5,4.4,4.4c1.1,2,1.6,4.2,1.6,6.5
		C268.5,134,268.4,134.9,268.3,135.8z M263,131.6c0-1.8-0.7-3.5-2.1-4.6c-1.4-1.2-3.2-1.8-5-1.7c-1.7,0-3.4,0.6-4.6,1.7
		c-1.3,1.2-2.1,2.9-2.3,4.7L263,131.6z"/>
	<path class="st2" d="M281.9,121.9c1.4-0.7,2.9-1.1,4.5-1.1l0,5.4l-1.3,0c-1.7-0.1-3.4,0.4-4.7,1.6c-1,1-1.6,2.8-1.6,5.4v13.3
		l-5.2,0l0-25.2h5.2v3.6C279.6,123.6,280.6,122.6,281.9,121.9z"/>
	<path class="st2" d="M299.4,121.9c1.4-0.7,2.9-1.1,4.5-1.1l0,5.4h-1.3c-1.7-0.1-3.4,0.4-4.6,1.6c-1,1-1.6,2.8-1.6,5.4v13.3h-5.2
		l0-25.2l5.2,0v3.6C297.1,123.6,298.2,122.6,299.4,121.9z"/>
	<path class="st2" d="M331.7,135.8h-19.3c0.1,1.9,0.9,3.6,2.2,4.9c1.4,1.2,3.1,1.9,5,1.8c2.5,0.2,4.9-1.2,5.9-3.5l5.6,0
		c-0.7,2.3-2.2,4.3-4.1,5.7c-2.2,1.5-4.8,2.3-7.4,2.2c-2.3,0-4.5-0.5-6.5-1.6c-1.9-1.1-3.5-2.7-4.5-4.6c-1.1-2.1-1.7-4.5-1.6-6.8
		c-0.1-2.4,0.5-4.7,1.6-6.9c1-1.9,2.5-3.5,4.4-4.5c2-1.1,4.3-1.7,6.6-1.6c2.2,0,4.4,0.5,6.4,1.5c1.8,1,3.4,2.5,4.4,4.4
		c1.1,2,1.6,4.2,1.6,6.5C331.9,134,331.8,134.9,331.7,135.8z M326.4,131.6c0-1.8-0.7-3.5-2.1-4.6c-1.4-1.2-3.2-1.8-5-1.7
		c-1.7,0-3.4,0.6-4.6,1.7c-1.3,1.2-2.1,2.9-2.3,4.6H326.4z"/>
	<path class="st2" d="M336.8,127c2-3.9,6-6.2,10.4-6.2c1.7,0,3.3,0.4,4.9,1.1c1.5,0.6,2.8,1.6,3.8,2.9l0-12.2l5.3,0l0,33.8l-5.3,0
		l0-3.8c-0.9,1.3-2.1,2.3-3.5,3c-1.6,0.8-3.4,1.2-5.2,1.2c-2.1,0-4.2-0.6-6-1.7c-1.8-1.1-3.3-2.7-4.3-4.7c-1.1-2.1-1.6-4.4-1.6-6.8
		C335.2,131.4,335.7,129.1,336.8,127z M354.8,129.3c-0.7-1.2-1.6-2.2-2.8-2.9c-1.1-0.7-2.4-1-3.8-1c-1.3,0-2.6,0.3-3.8,1
		c-1.2,0.7-2.2,1.7-2.8,2.9c-0.8,1.4-1.1,2.9-1.1,4.5c0,1.6,0.3,3.2,1.1,4.6c0.7,1.2,1.6,2.3,2.8,3c2.3,1.4,5.2,1.4,7.5,0
		c1.2-0.7,2.2-1.7,2.8-3C356.2,135.5,356.2,132.1,354.8,129.3z"/>
</g>
</svg>
