<svg id="Layer_1" enable-background="new 0 0 512 512" height="512" viewBox="0 0 512 512" width="512" xmlns="http://www.w3.org/2000/svg"><path d="m504.5 149.985h-37.534c-4.143 0-7.5 3.357-7.5 7.5v11.267h-46.466v-79.566h12.5c4.143 0 7.5-3.357 7.5-7.5v-37.535c0-4.143-3.357-7.5-7.5-7.5h-37.534c-4.143 0-7.5 3.357-7.5 7.5v37.534c0 4.143 3.357 7.5 7.5 7.5h10.034v79.566h-134.5v-51h31.899v11.267c0 4.143 3.357 7.5 7.5 7.5h37.534c4.143 0 7.5-3.357 7.5-7.5v-37.533c0-4.143-3.357-7.5-7.5-7.5h-37.534c-4.143 0-7.5 3.357-7.5 7.5v11.267h-31.899v-49.966h11.267c4.143 0 7.5-3.357 7.5-7.5v-37.534c0-4.143-3.357-7.5-7.5-7.5h-37.533c-4.143 0-7.5 3.357-7.5 7.5v37.534c0 4.143 3.357 7.5 7.5 7.5h11.266v49.966h-31.899v-11.267c0-4.143-3.357-7.5-7.5-7.5h-37.534c-4.143 0-7.5 3.357-7.5 7.5v37.533c0 4.143 3.357 7.5 7.5 7.5h37.534c4.143 0 7.5-3.357 7.5-7.5v-11.267h31.899v51h-134.5v-79.565h10.034c4.143 0 7.5-3.357 7.5-7.5v-37.535c0-4.143-3.357-7.5-7.5-7.5h-37.534c-4.143 0-7.5 3.357-7.5 7.5v37.534c0 4.143 3.357 7.5 7.5 7.5h12.5v79.566h-46.466v-11.267c0-4.143-3.357-7.5-7.5-7.5h-37.534c-4.143 0-7.5 3.357-7.5 7.5v37.533c0 4.143 3.357 7.5 7.5 7.5h37.534c4.143 0 7.5-3.357 7.5-7.5v-11.267h142.406v57.547h-74.34v-11.147c0-4.143-3.357-7.5-7.5-7.5h-37.534c-4.143 0-7.5 3.357-7.5 7.5v37.534c0 4.143 3.357 7.5 7.5 7.5h37.534c4.143 0 7.5-3.357 7.5-7.5v-11.387h81.84c4.143 0 7.5-3.357 7.5-7.5v-65.047h38.56v114.004h-27.53c-9.697 0-9.697 15 0 15h63.647l-24.669 35.209h-131.074l24.67-35.209h27.637c9.697 0 9.697-15 0-15h-31.54c-2.446 0-4.738 1.193-6.143 3.196l-35.179 50.209c-3.419 4.882.182 11.804 6.143 11.804h27.678v141.283c0 4.143 3.357 7.5 7.5 7.5h212.72c4.143 0 7.5-3.357 7.5-7.5v-35.996c0-9.697-15-9.697-15 0v28.496h-48.331v-167.729l21.546 30.751c1.404 2.003 3.696 3.196 6.143 3.196h20.643v63.287c0 9.697 15 9.697 15 0v-63.287h27.678c5.961 0 9.561-6.922 6.143-11.804l-35.178-50.209c-1.403-2.003-3.696-3.196-6.143-3.196h-98.861v-114.003h38.56v65.047c0 4.143 3.357 7.5 7.5 7.5h81.84v11.387c0 4.143 3.357 7.5 7.5 7.5h37.534c4.143 0 7.5-3.357 7.5-7.5v-37.534c0-4.143-3.357-7.5-7.5-7.5h-37.534c-4.143 0-7.5 3.357-7.5 7.5v11.147h-74.34v-57.547h142.406v11.267c0 4.143 3.357 7.5 7.5 7.5h37.534c4.143 0 7.5-3.357 7.5-7.5v-37.533c0-4.143-3.357-7.501-7.5-7.501zm-109.034-98.334h22.534v22.534h-22.534zm-85.067 47.334h22.534v22.533h-22.534zm-65.666-83.733h22.533v22.534h-22.533zm-43.132 106.267h-22.534v-22.534h22.534zm-107.601-69.868h22.534v22.534h-22.534zm-56.466 135.868h-22.534v-22.533h22.534zm68.067 72.667h-22.535v-22.534h22.534v22.534zm51.539 236.562v-133.783h106.712c2.446 0 4.739-1.193 6.143-3.196l21.535-30.737v167.717h-134.39zm201.317-183.992 24.669 35.209h-45.005l-24.67-35.209zm47.942-75.105h22.534v22.534h-22.534zm90.601-50.132h-22.534v-22.533h22.534z" fill="#020202"/></svg>