<?xml version="1.0" encoding="utf-8"?>
<!-- Generator: Adobe Illustrator 25.0.1, SVG Export Plug-In . SVG Version: 6.00 Build 0)  -->
<svg version="1.1" id="Layer_1" xmlns="http://www.w3.org/2000/svg" xmlns:xlink="http://www.w3.org/1999/xlink" x="0px" y="0px"
	 viewBox="0 0 677.9 490.2" style="enable-background:new 0 0 677.9 490.2;" xml:space="preserve">
<style type="text/css">
	.st0{fill:none;}
	.st1{fill:#E21928;}
	.st2{fill:#263238;}
</style>
<rect x="429.3" y="246.1" class="st0" width="83.5" height="24.1"/>
<circle class="st1" cx="165.5" cy="139.4" r="5"/>
<circle cx="189.5" cy="139.4" r="5"/>
<circle cx="213.5" cy="139.4" r="5"/>
<path class="st1" d="M533.5,168.6c-2.8,0-5,2.2-5,5v8c0,2.8,2.2,5,5,5s5-2.2,5-5v-8C538.5,170.9,536.2,168.6,533.5,168.6z"/>
<path d="M560.1,8.6H352.3c-14.8,0.1-26.9,12.1-26.9,26.9v77H159.3c-14.8,0-26.9,12.1-26.9,26.9v282c0,14.8,12.1,26.9,26.9,26.9
	h371.1c14.8,0,26.9-12.1,26.9-26.9V210.9h2.8c14.8-0.1,26.9-12.1,26.9-26.9V35.6C586.9,20.7,574.9,8.7,560.1,8.6z M328.2,196.1
	l0.8,1.4c4.8,8.3,13.7,13.4,23.3,13.4h2.8v39.9c0,2.6,2.1,4.6,4.7,4.6c1.1,0,2.2-0.4,3-1.1l22-18.9v114.6h-57.5v-17.6
	c0-14.8-12.1-26.9-26.9-26.9h-10.1l5.6-4.9c5.8-5.1,9.1-12.4,9.1-20.2v-14.8c-0.3-14.9-12.6-26.7-27.4-26.4
	c-14.5,0.3-26.1,11.9-26.4,26.4v14.8c0,7.7,3.3,15.1,9.1,20.2l5.6,4.9h-10.1c-14.8,0.1-26.9,12.1-26.9,26.9v17.6h-57.5v-154
	L328.2,196.1z M317.9,332.4v17.6h-79.8v-17.6c0-9.7,7.9-17.6,17.6-17.6h44.5C310,314.8,317.9,322.7,317.9,332.4z M278,298.1
	c-9.7,0-17.6-7.9-17.6-17.6v-14.9c0-9.7,7.9-17.6,17.6-17.6s17.6,7.9,17.6,17.6l0,0v14.8C295.7,290.2,287.8,298.1,278,298.1
	L278,298.1z M141.7,139.4c0-9.7,7.9-17.6,17.6-17.6h166.1v35.3H141.7V139.4z M548,421.5c0,9.7-7.9,17.6-17.6,17.6H159.3
	c-9.7,0-17.6-7.9-17.6-17.6V166.4h183.7v20.4H166.7c-2.6,0-4.6,2.1-4.6,4.6v163.3c0,2.6,2.1,4.6,4.6,4.6h222.7
	c2.6,0,4.6-2.1,4.6-4.6V227.5l19.3-16.6H548V421.5z M577.7,184c0,9.7-7.9,17.6-17.6,17.6H411.6c-1.1,0-2.2,0.4-3,1.1l-44.3,38v-34.5
	c0-2.6-2.1-4.6-4.6-4.6h-7.4c-9.7,0-17.6-7.9-17.6-17.6V35.6c0-9.7,7.9-17.6,17.6-17.6h207.8c9.7,0,17.6,7.9,17.6,17.6V184z"/>
<path d="M539.4,68.3L539.4,68.3l-81.6-29.7c-1-0.4-2.1-0.4-3.2,0l-81.6,29.7c-1.2,0.4-2.1,1.3-2.6,2.4c-1.1,2.3-0.1,5.1,2.3,6.2
	c0.1,0.1,0.2,0.1,0.3,0.1l26.6,9.7V132c0,1.9,1.1,3.6,2.9,4.3c26.7,10.7,40.1,15.1,53.7,15.1s27-4.5,53.7-15.1
	c1.8-0.7,2.9-2.4,2.9-4.3V86.7l13-4.7v57.5c0,2.6,2.1,4.6,4.6,4.6s4.6-2.1,4.6-4.6V78.6l4.4-1.6c1.2-0.4,2.1-1.3,2.6-2.4
	c1.1-2.3,0.1-5.1-2.3-6.2C539.6,68.4,539.5,68.3,539.4,68.3z M503.5,128.9l-1.8,0.7c-21.3,8.5-33.4,12.7-45.6,12.7
	s-24.3-4.2-45.6-12.7l-1.8-0.7V90.1l45.7,16.6c1,0.4,2.1,0.4,3.2,0l45.7-16.6V128.9z M456.2,97.4l-68.1-24.8l68.1-24.8l68.1,24.8
	L456.2,97.4z"/>
<path class="st2" d="M657.3,83.5c-0.5,0-1-0.2-1.4-0.6l-16.5-16.5c-0.8-0.8-0.8-2,0-2.8l16.5-16.5c0.8-0.8,2-0.8,2.8,0l16.5,16.5
	c0.8,0.8,0.8,2,0,2.8l-16.5,16.5C658.4,83.3,657.9,83.5,657.3,83.5z M643.7,65l13.7,13.7L671,65l-13.7-13.7L643.7,65z"/>
<path class="st2" d="M95.2,439.6c-0.5,0-1-0.2-1.4-0.6l-16.5-16.5c-0.4-0.4-0.6-0.9-0.6-1.4c0-0.5,0.2-1,0.6-1.4l16.5-16.5
	c0.8-0.8,2-0.8,2.8,0c0,0,0,0,0,0l16.5,16.5c0.4,0.4,0.6,0.9,0.6,1.4c0,0.5-0.2,1-0.6,1.4l-16.5,16.5
	C96.3,439.4,95.7,439.6,95.2,439.6z M81.5,421.1l13.7,13.7l13.7-13.7l-13.7-13.7L81.5,421.1z"/>
<path class="st2" d="M23.3,407.6c-0.5,0-1-0.2-1.4-0.6L5.4,390.5c-0.8-0.8-0.8-2,0-2.8c0,0,0,0,0,0l16.5-16.5c0.8-0.8,2-0.8,2.8,0
	l16.5,16.4c0.8,0.8,0.8,2,0,2.8c0,0,0,0,0,0l-16.5,16.5C24.4,407.3,23.9,407.5,23.3,407.6z M9.6,389.1l13.7,13.6L37,389l-13.7-13.7
	L9.6,389.1z"/>
<path class="st2" d="M626.7,98.8c-0.5,0-1-0.2-1.4-0.6l-9-9c-0.8-0.8-0.8-2,0-2.8c0,0,0,0,0,0l9-9c0.8-0.8,2-0.8,2.8,0c0,0,0,0,0,0
	l9,9c0.8,0.8,0.8,2,0,2.8c0,0,0,0,0,0l-9,9C627.7,98.6,627.2,98.8,626.7,98.8z M620.5,87.8l6.2,6.2l6.2-6.2l-6.2-6.2L620.5,87.8z"/>
<path class="st2" d="M631.7,414.3c-4.8,0-8.7-3.9-8.7-8.7c0-4.8,3.9-8.7,8.7-8.7c4.8,0,8.7,3.9,8.7,8.7l0,0
	C640.4,410.4,636.5,414.2,631.7,414.3z M631.7,400.9c-2.6,0-4.7,2.1-4.7,4.7c0,2.6,2.1,4.7,4.7,4.7c2.6,0,4.7-2.1,4.7-4.7l0,0
	C636.4,403,634.3,400.9,631.7,400.9z"/>
<path class="st2" d="M83.4,305.9c-4.8,0-8.7-3.9-8.7-8.7c0-4.8,3.9-8.7,8.7-8.7s8.7,3.9,8.7,8.7c0,0,0,0,0,0
	C92,302,88.2,305.9,83.4,305.9z M83.4,292.6c-2.6,0-4.7,2.1-4.7,4.7c0,2.6,2.1,4.7,4.7,4.7c2.6,0,4.7-2.1,4.7-4.7
	S86,292.6,83.4,292.6L83.4,292.6z"/>
<path class="st1" d="M419.1,285.1H523c2.6,0,4.6-2.1,4.6-4.6l0,0v-44.6c0-2.6-2.1-4.6-4.6-4.6l0,0H419.1c-2.6,0-4.6,2.1-4.6,4.6v0
	v44.5C414.4,283,416.5,285.1,419.1,285.1C419,285.1,419,285.1,419.1,285.1z M423.7,240.6h94.6v35.2h-94.6V240.6z"/>
<path d="M419.1,359.3H523c2.6,0,4.6-2.1,4.6-4.6v-44.6c0-2.6-2.1-4.6-4.6-4.6H419.1c-2.6,0-4.6,2.1-4.6,4.6v44.5
	C414.4,357.2,416.5,359.3,419.1,359.3C419.1,359.3,419.1,359.3,419.1,359.3z M423.7,314.8h94.6v35.3h-94.6V314.8z"/>
<path class="st1" d="M419.1,389H523c2.6,0.1,4.7-1.9,4.9-4.4c0.1-2.6-1.9-4.7-4.4-4.9c-0.1,0-0.3,0-0.4,0H419.1
	c-2.6-0.1-4.7,1.9-4.9,4.4c-0.1,2.6,1.9,4.7,4.4,4.9C418.8,389,418.9,389,419.1,389z"/>
<path d="M419.1,411.3h44.5c2.6,0,4.6-2.1,4.6-4.6c0-2.6-2.1-4.6-4.6-4.6h-44.5c-2.6,0-4.6,2.1-4.6,4.6S416.5,411.3,419.1,411.3
	C419.1,411.3,419.1,411.3,419.1,411.3z"/>
<path d="M493.3,402h-7.4c-2.6,0-4.6,2.1-4.6,4.6c0,2.6,2.1,4.6,4.6,4.6h7.4c2.6,0,4.6-2.1,4.6-4.6S495.8,402,493.3,402
	C493.3,402,493.3,402,493.3,402z"/>
<path d="M389.4,379.8H208.7l-0.3-2.4c-0.3-2.5-2.6-4.3-5.2-4c-2.1,0.3-3.8,1.9-4,4l-0.3,2.4h-32.2c-2.6-0.1-4.7,1.9-4.9,4.4
	c-0.1,2.6,1.9,4.7,4.4,4.9c0.1,0,0.3,0,0.4,0h32.5v2.8c0,2.6,2.1,4.6,4.6,4.6c2.6,0,4.6-2.1,4.6-4.6c0,0,0,0,0,0V389h180.9
	c2.6,0.1,4.7-1.9,4.9-4.4c0.1-2.6-1.9-4.7-4.4-4.9C389.7,379.7,389.5,379.7,389.4,379.8z"/>
<circle class="st1" cx="205.3" cy="385.6" r="13.4"/>
</svg>
