<?xml version="1.0" encoding="utf-8"?>
<!-- Generator: Adobe Illustrator 25.0.1, SVG Export Plug-In . SVG Version: 6.00 Build 0)  -->
<svg version="1.1" id="Layer_1" xmlns="http://www.w3.org/2000/svg" xmlns:xlink="http://www.w3.org/1999/xlink" x="0px" y="0px"
	 viewBox="0 0 512 512" style="enable-background:new 0 0 512 512;" xml:space="preserve">
<style type="text/css">
	.st0{fill-rule:evenodd;clip-rule:evenodd;}
	.st1{fill-rule:evenodd;clip-rule:evenodd;fill:url(#SVGID_1_);}
</style>
<path class="st0" d="M69.3,357.3V138.2c0-8.8,7.2-16,16-16h27.4c8.8,0,16,7.2,16,16s-7.2,16-16,16h-11.4v203.1H192
	c8.8,0,16,7.2,16,16v0c0,2.9,2.4,5.3,5.3,5.3h85.4c2.9,0,5.3-2.4,5.3-5.3v0c0-8.8,7.2-16,16-16h90.7V154.2h-11.4
	c-8.8,0-16-7.2-16-16s7.2-16,16-16h27.4c8.8,0,16,7.2,16,16v219.1h26.7c8.8,0,16,7.2,16,16v31.9c0,12.8-5.1,25-14.1,34
	s-21.3,14.1-34,14.1c-39.6,0-322.8,0-362.4,0c-12.8,0-25-5.1-34-14.1s-14.1-21.3-14.1-34v-31.9c0-8.8,7.2-16,16-16H69.3z
	 M453.3,389.3H332.4c-6,12.6-18.8,21.3-33.7,21.3h-85.4c-14.9,0-27.7-8.7-33.7-21.3H58.7v15.9c0,4.3,1.7,8.4,4.7,11.4
	c3,3,7.1,4.7,11.4,4.7h362.4c4.3,0,8.4-1.7,11.4-4.7c3-3,4.7-7.1,4.7-11.4V389.3z"/>
<path class="st0" d="M256,58.5c-61.8,0-112,50.2-112,112c0,61.8,50.2,112,112,112s112-50.2,112-112C368,108.7,317.8,58.5,256,58.5z
	 M256,90.5c44.2,0,80,35.8,80,80c0,44.1-35.8,80-80,80s-80-35.9-80-80C176,126.4,211.8,90.5,256,90.5z"/>
<linearGradient id="SVGID_1_" gradientUnits="userSpaceOnUse" x1="234.6667" y1="170.5084" x2="290.6454" y2="170.5084">
	<stop  offset="0" style="stop-color:#E91D2C"/>
	<stop  offset="1" style="stop-color:#E01826"/>
</linearGradient>
<path class="st1" d="M285.5,178.8c3.2-1.6,5.1-4.8,5.1-8.3c0-3.5-2-6.8-5.1-8.3c-11.5-5.8-26.6-13.3-37.4-18.7
	c-2.9-1.5-6.3-1.3-9.1,0.4c-2.8,1.7-4.4,4.7-4.4,7.9v37.4c0,3.2,1.7,6.2,4.4,7.9c2.8,1.7,6.2,1.9,9.1,0.4
	C258.9,192.1,274,184.6,285.5,178.8L285.5,178.8z"/>
<path class="st0" d="M234.7,336h42.7c8.8,0,16-7.2,16-16c0-8.8-7.2-16-16-16h-42.7c-8.8,0-16,7.2-16,16
	C218.7,328.8,225.8,336,234.7,336z"/>
</svg>
