<?xml version="1.0" encoding="utf-8"?>
<!-- Generator: Adobe Illustrator 25.0.1, SVG Export Plug-In . SVG Version: 6.00 Build 0)  -->
<svg version="1.1" id="Layer_1" xmlns="http://www.w3.org/2000/svg" xmlns:xlink="http://www.w3.org/1999/xlink" x="0px" y="0px"
	 viewBox="0 0 512 512" style="enable-background:new 0 0 512 512;" xml:space="preserve">
<style type="text/css">
	.st0{fill:none;stroke:#FF0000;stroke-width:15;stroke-miterlimit:10;}
	.st1{fill:url(#SVGID_1_);}
</style>
<g>
	<linearGradient id="SVGID_1_" gradientUnits="userSpaceOnUse" x1="256" y1="481.7427" x2="256" y2="30.2573">
		<stop  offset="0" style="stop-color:#3097E4"/>
		<stop  offset="0.3942" style="stop-color:#2A74A7"/>
		<stop  offset="1" style="stop-color:#203A43"/>
	</linearGradient>
	<path class="st1" d="M390.7,325.5c0,5.5,0,10.7,0,15.8c0.1,22-0.6,44,0.4,66c0.9,18.8-6.7,32.4-20.9,43.4
		c-15.9,12.2-34.2,19.3-53.5,23.7c-49.1,11.2-97.8,10.3-145.6-6.4c-15.1-5.3-29-12.7-40.2-24.3c-8.6-8.9-13.2-19.2-13-31.9
		c0.3-26.5,0.1-53,0.1-79.5c0-2,0-4,0-6.5c-2.1-0.1-3.8-0.4-5.6-0.4c-7,0-14-0.2-21,0c-30.1,1-52.6-12.9-69.2-36.6
		c-32.8-47-13.7-114.7,38-136.1c17.7-7.3,35.8-8.3,54.3-3.3c1,0.3,1.9,0.6,2.9,0.8c0.3,0.1,0.7,0,0.8,0
		C126,86.2,157.1,42.1,223.7,31.5c49.9-7.9,102.7,22,124.2,77.7c1-0.3,2.1-0.6,3.1-1c53-25,113.8-4.6,141.1,47.3
		c23.6,45,17.1,98.2-17.3,135.6c-20.9,22.7-47.3,34-78.2,34.2C394.8,325.3,393,325.4,390.7,325.5z M133.8,174.1
		c-2.8-1.4-6.1-3.1-9.3-4.8c-19.1-10-38.8-11.5-58.8-3.1c-47.9,20-60.5,86-23.8,123.6c11.5,11.8,25.2,19.8,42,20.8
		c9.6,0.6,19.3-0.1,29,0.2c3.9,0.1,5.2-1.1,5.1-5.1c-0.2-17,0.1-34-0.2-51c-0.2-12.1,4.5-22,12.5-30.6
		c10.7-11.5,24.1-18.8,38.7-24.1c48.2-17.5,97.4-18.4,147.1-7.4c20.2,4.5,39.3,11.8,55.5,25c11.5,9.4,19.7,20.6,19.4,36.5
		c-0.3,16.8-0.3,33.7-0.4,50.5c0,1.8,0,3.6,0,5.5c1.7,0.2,2.8,0.5,3.9,0.5c18.2,0,35.3-4.3,50.8-14.2c44.5-28.3,59.1-88.1,33-135.4
		c-26.4-47.7-86.4-65-133-32.5c-1.8,1.3-3.8,2.4-6,3.8c-0.9-2.9-1.6-5.3-2.3-7.7c-3.7-13.3-9.2-25.7-17.6-36.7
		c-24.4-32-56.5-47.5-96.7-41.8c-51.6,7.3-87,53.1-88.9,102.8C133.6,157.3,133.8,165.6,133.8,174.1z M255.7,305.8
		c2.3-0.1,6.1-0.3,10-0.5c24.6-0.9,48.6-5,71.6-14.3c11.3-4.6,22.1-10.3,30.5-19.4c11.7-12.5,11.4-25.7-0.5-38
		c-9-9.3-20.2-15.2-32.1-19.7c-30.8-11.8-62.9-15-95.7-13.3c-25.1,1.3-49.5,5.9-72.6,16.2c-10.4,4.6-20.2,10.4-27.5,19.4
		c-9,10.9-9,22.2-0.1,33.1c6.9,8.5,15.9,14.1,25.7,18.6C193.2,301.3,223.4,305.2,255.7,305.8z M132.6,365.3c0,2.6,0,4.2,0,5.8
		c0,13.5,0.2,27-0.1,40.5c-0.2,8,2.6,14.6,7.8,20.4c7.9,8.7,17.7,14.7,28.4,19c49.2,19.6,99.6,20.4,150.4,7.4
		c16.7-4.3,32.5-10.9,45.7-22.6c7.1-6.3,11.9-13.7,11.6-23.8c-0.4-13.8-0.3-27.6-0.4-41.5c0-1.4-0.2-2.8-0.4-4.8
		c-14.9,12.8-31.7,20.3-49.6,25.5c-30.7,9-62.1,11.4-93.9,8.7C196.5,396.9,162.4,389.3,132.6,365.3z M132.6,284.6
		c0,16,0.3,30.8-0.1,45.6c-0.2,9.4,3.2,16.8,9.7,23.2c10.1,10,22.4,16,35.5,20.7c28.1,10.1,57.3,13.1,87,12
		c25.4-0.9,50.3-5,73.9-14.9c10.6-4.5,20.7-10,28.8-18.5c5.6-5.9,8.9-12.5,8.6-21c-0.4-13.8-0.1-27.7-0.1-41.5
		c0-1.4-0.2-2.8-0.2-3.8c-8.9,5.2-17.1,11.2-26.2,15.4c-40.8,18.5-83.8,21.5-127.6,16.6C189.8,314.8,159.1,306.6,132.6,284.6z"/>
</g>
</svg>
