<?xml version="1.0" encoding="utf-8"?>
<!-- Generator: Adobe Illustrator 25.0.1, SVG Export Plug-In . SVG Version: 6.00 Build 0)  -->
<svg version="1.1" id="Layer_1" xmlns="http://www.w3.org/2000/svg" xmlns:xlink="http://www.w3.org/1999/xlink" x="0px" y="0px"
	 viewBox="0 0 512 512" style="enable-background:new 0 0 512 512;" xml:space="preserve">
<style type="text/css">
	.st0{fill:#FE0000;}
	.st1{fill:none;stroke:#FE0000;stroke-width:15;stroke-miterlimit:10;}
	.st2{fill:none;stroke:#FE0000;stroke-width:10;stroke-miterlimit:10;}
	.st3{fill:none;stroke:#FE0000;stroke-width:6;stroke-miterlimit:10;}
	.st4{fill:url(#SVGID_1_);}
	.st5{fill:url(#SVGID_2_);}
	.st6{fill:url(#SVGID_3_);}
	.st7{fill:url(#SVGID_4_);}
	.st8{fill:url(#SVGID_5_);}
	.st9{fill:url(#SVGID_6_);}
	.st10{fill:url(#SVGID_7_);}
	.st11{fill:url(#SVGID_8_);}
</style>
<g>
	<linearGradient id="SVGID_1_" gradientUnits="userSpaceOnUse" x1="256" y1="447.618" x2="256" y2="64.3821">
		<stop  offset="0" style="stop-color:#ED213A"/>
		<stop  offset="0.2133" style="stop-color:#DF2236"/>
		<stop  offset="0.6116" style="stop-color:#BC252B"/>
		<stop  offset="1" style="stop-color:#93291E"/>
	</linearGradient>
	<path class="st4" d="M66.3,324.1c5.1,0,9.5,0,14.4,0c0.2,3.2,0.3,6.3,0.5,9.7c135.5,0,270.8,0,406.7,0c0-2,0-3.8,0-5.6
		c0-79.5,0-159.1,0-238.6c0-8.9-1.6-10.5-10.4-10.5c-126.9,0-253.9,0-380.8,0C84.9,79.1,81,83,81,95.1c0,11.8-0.1,23.6,0.1,35.4
		c0,3.2-0.8,4.6-4.2,4.4c-3.3-0.2-6.6-0.1-10.5-0.1c0-5.3,0-10,0-14.8c0-9.7-0.1-19.3,0.1-29C66.7,76.2,77.2,65.4,92,64.4
		c1.3-0.1,2.7-0.1,4-0.1c127.4,0,254.9,0,382.3,0c12.8,0,21.1,5.7,23.6,16.4c0.5,2.1,0.6,4.3,0.6,6.4c0,84,0,168.1,0,252.1
		c0,2.4-0.5,5-1.4,7.2c-12.9,31.1-26.1,62.2-39,93.4c-2.4,5.9-6.5,7.7-12.5,7.7c-37.6-0.1-75.2,0-112.8,0c-104.1,0-208.3,0-312.4,0
		c-1.7,0-3.3,0.1-5,0c-8.7-0.6-12.6-8.3-8-15.8C22,414.6,32.7,397.6,43,380.4c6.5-10.8,12.4-22,19-32.8c3.2-5.3,5.1-10.7,4.3-16.9
		C66.1,328.7,66.3,326.7,66.3,324.1z M484.1,348.8c-7.1,0-13.2,0-19.3,0c-126.4,0-252.8,0-379.1-0.1c-5.4,0-8.4,1.4-11.2,6.4
		c-14.1,24.6-28.8,49-43.3,73.4c-0.7,1.2-1.4,2.5-2.3,4.1c1.9,0.1,3.2,0.2,4.5,0.2c137,0,274,0,411.1,0.1c3.7,0,5.1-1.3,6.4-4.5
		c6.6-16.2,13.4-32.2,20.1-48.3C475.2,370,479.4,360,484.1,348.8z"/>
	<linearGradient id="SVGID_2_" gradientUnits="userSpaceOnUse" x1="284.2398" y1="276.0895" x2="284.2398" y2="167.8959">
		<stop  offset="0" style="stop-color:#ED213A"/>
		<stop  offset="0.2133" style="stop-color:#DF2236"/>
		<stop  offset="0.6116" style="stop-color:#BC252B"/>
		<stop  offset="1" style="stop-color:#93291E"/>
	</linearGradient>
	<path class="st5" d="M393.7,188.3c-3.6-5.3-6.8-10.1-10.5-15.7c18.3-1.6,35.7-3.1,54.2-4.7c-7.9,17.1-15.4,33.4-23.2,50.3
		c-4.1-6-8-11.6-12.2-17.7c-2.8,2-5.4,3.9-8,5.8c-22,16.4-44.1,32.6-66,49.2c-3.4,2.6-5.3,2.3-8.2-0.6c-22.7-22-45.6-43.7-68.4-65.6
		c-0.6-0.6-1.3-1-2.2-1.7c-36.2,29.4-72.3,58.7-108.9,88.4c-3.1-3.8-6.1-7.5-9.3-11.4c39.8-32.3,79.2-64.3,119.2-96.8
		c24.9,23.8,49.7,47.5,74.8,71.4C347.8,222.4,370.5,205.5,393.7,188.3z"/>
	<linearGradient id="SVGID_3_" gradientUnits="userSpaceOnUse" x1="73.823" y1="277.8697" x2="73.823" y2="147.9056">
		<stop  offset="0" style="stop-color:#ED213A"/>
		<stop  offset="0.2133" style="stop-color:#DF2236"/>
		<stop  offset="0.6116" style="stop-color:#BC252B"/>
		<stop  offset="1" style="stop-color:#93291E"/>
	</linearGradient>
	<path class="st6" d="M72.8,147.9c22.5,0.9,40.2,8.4,49.8,29.1c5.7,12.5,5.4,25.7,1,38.4c-3,8.5-7.4,16.6-11.8,24.5
		c-5.1,9.1-11.1,17.7-10.7,28.9c0.1,5.1-4.6,8.9-10.2,8.9c-11.4,0.1-22.9,0.1-34.3,0c-5.7-0.1-10.1-3.9-10-9
		c0.2-10.6-4.7-19.2-10.2-27.5c-8.8-13.4-15.4-27.6-15.5-44c-0.1-24.5,15.8-43.6,40.1-48C65.1,148.5,69.4,148.3,72.8,147.9z
		 M87.2,254.3c6.9-12.7,13.8-24.9,20.3-37.3c1.7-3.2,2.6-6.8,3.4-10.4c4.7-20-4.9-37.2-24.1-42.1c-6.1-1.6-12.9-1.8-19.2-1.4
		c-21.5,1.5-35.1,19.3-31.5,40.5c1.8,10.5,6.8,19.6,12,28.7c4.8,8.6,8.4,17.9,12.5,26.9c0.6,1.3,1.2,2.5,1.8,3.8
		c0.4-0.2,0.8-0.3,1.2-0.5c-0.9-3.4-2.1-6.8-2.6-10.3c-1.3-8.5,3.6-16,10.3-16.6c12-1.1,15.1,4.5,16,14.4
		C87.3,251.4,87.2,252.7,87.2,254.3z M79.5,244.9c0.1,5.2-0.4,10-6.5,13c-1.4-2.2-3.2-4.3-3.9-6.7c-0.7-2.3-0.1-4.9-0.1-8.1
		c-3.5,6-3,14.5,1.4,18.1c1.5,1.2,5.4,1.3,7,0.2C81.4,258.7,82.3,250,79.5,244.9z"/>
	<linearGradient id="SVGID_4_" gradientUnits="userSpaceOnUse" x1="73.368" y1="294.5789" x2="73.368" y2="285.1323">
		<stop  offset="0" style="stop-color:#ED213A"/>
		<stop  offset="0.2133" style="stop-color:#DF2236"/>
		<stop  offset="0.6116" style="stop-color:#BC252B"/>
		<stop  offset="1" style="stop-color:#93291E"/>
	</linearGradient>
	<path class="st7" d="M92.3,285.3c0,3.5,0,6.2,0,9.3c-12.4,0-24.6,0-37.1,0c-0.2-1-0.3-2.1-0.5-3.2c-1-5.1,1.2-6.5,6.2-6.3
		C71.1,285.5,81.4,285.3,92.3,285.3z"/>
	<linearGradient id="SVGID_5_" gradientUnits="userSpaceOnUse" x1="73.3411" y1="311.7893" x2="73.3411" y2="300.5096">
		<stop  offset="0" style="stop-color:#ED213A"/>
		<stop  offset="0.2133" style="stop-color:#DF2236"/>
		<stop  offset="0.6116" style="stop-color:#BC252B"/>
		<stop  offset="1" style="stop-color:#93291E"/>
	</linearGradient>
	<path class="st8" d="M53.5,300.5c5.6,0.4,10.4,0.8,15.2,1c3.5,0.1,6.9,0.1,10.4-0.1c4.6-0.2,9.3-0.6,14-0.9
		c-0.5,6.7-5.2,9.8-15.4,10.9C65.6,312.9,56.3,309.1,53.5,300.5z"/>
	<linearGradient id="SVGID_6_" gradientUnits="userSpaceOnUse" x1="255.9495" y1="409.0008" x2="255.9495" y2="395.0891">
		<stop  offset="0" style="stop-color:#ED213A"/>
		<stop  offset="0.2133" style="stop-color:#DF2236"/>
		<stop  offset="0.6116" style="stop-color:#BC252B"/>
		<stop  offset="1" style="stop-color:#93291E"/>
	</linearGradient>
	<path class="st9" d="M97.5,409c0-4.7,0-9.2,0-13.9c105.7,0,211.1,0,316.9,0c0,4.6,0,9.1,0,13.9C308.9,409,203.5,409,97.5,409z"/>
	<linearGradient id="SVGID_7_" gradientUnits="userSpaceOnUse" x1="268.7984" y1="383.7674" x2="268.7984" y2="369.9566">
		<stop  offset="0" style="stop-color:#ED213A"/>
		<stop  offset="0.2133" style="stop-color:#DF2236"/>
		<stop  offset="0.6116" style="stop-color:#BC252B"/>
		<stop  offset="1" style="stop-color:#93291E"/>
	</linearGradient>
	<path class="st10" d="M427.2,383.8c-105.8,0-211.1,0-316.8,0c0-4.6,0-9,0-13.8c105.6,0,211.1,0,316.8,0
		C427.2,374.5,427.2,378.9,427.2,383.8z"/>
</g>
</svg>
