<?xml version="1.0" encoding="utf-8"?>
<!-- Generator: Adobe Illustrator 25.0.1, SVG Export Plug-In . SVG Version: 6.00 Build 0)  -->
<svg version="1.1" id="Layer_1" xmlns="http://www.w3.org/2000/svg" xmlns:xlink="http://www.w3.org/1999/xlink" x="0px" y="0px"
	 viewBox="0 0 512 512" style="enable-background:new 0 0 512 512;" xml:space="preserve">
<style type="text/css">
	.st0{fill:none;stroke:#000000;stroke-width:15;stroke-miterlimit:10;}
	.st1{fill:url(#SVGID_1_);}
	.st2{fill:url(#SVGID_2_);}
	.st3{fill:url(#SVGID_3_);}
	.st4{fill:url(#SVGID_4_);}
</style>
<g>
	<linearGradient id="SVGID_1_" gradientUnits="userSpaceOnUse" x1="252.2027" y1="331.1808" x2="252.2027" y2="180.5255">
		<stop  offset="0" style="stop-color:#4286F4"/>
		<stop  offset="0.1649" style="stop-color:#3373D8"/>
		<stop  offset="0.3656" style="stop-color:#2561BD"/>
		<stop  offset="0.5703" style="stop-color:#1A54AA"/>
		<stop  offset="0.7795" style="stop-color:#144D9F"/>
		<stop  offset="1" style="stop-color:#124A9B"/>
	</linearGradient>
	<path class="st1" d="M252.7,267.1c-17.9,17.9-34.8,34.4-54.8,47.3c-14.7,9.4-30.3,16.2-48,16.7c-45.6,1.2-79.9-33.8-78-79.6
		c1.9-48.4,51.3-81.9,98.5-66.8c21.3,6.8,38.7,19.8,55.1,34.4c4.7,4.2,9.3,8.6,13.9,12.9c4.4,4.2,5.1,9.3,1.7,12.6
		c-3.5,3.4-7.8,2.9-12.2-1.5c-14.9-14.6-30.5-28.4-49.1-38.2c-26.5-14-55.3-10.8-75,8.3c-19.6,19-23.8,49.7-10.1,73.1
		c14.3,24.5,42.8,35.5,70.3,27.3c14.2-4.2,26.4-11.9,37.8-21c16.6-13.2,31.3-28.3,45.7-43.9c20.9-22.7,42.9-44.4,71.2-58.2
		c21.9-10.7,44.7-14.2,67.4-3.3c26.8,12.8,44.3,33.5,45.6,64.1c1.3,30-13.1,63.1-50.5,75.7c-2.2,0.7-4.5,1.4-6.6,2.2
		c-5.3,1.9-10.1,0-11.3-4.7c-1.3-4.9,1.4-8.9,6.9-10.2c16.9-3.9,30.2-12.7,38.6-28.3c20.5-37.7-0.6-82.1-42.7-89.5
		c-17.9-3.1-33.9,3.1-49,11.8c-16.2,9.3-29.5,22.2-43,34.8c-4.4,4.1-8.3,8.6-12.9,13.6c9.3,8.7,18.5,18.3,28.7,26.7
		c9.7,8.1,20.3,15.1,30.7,22.3c4.2,2.9,6,7,3.6,10.9c-2.3,3.9-6.8,4.9-11.3,2.3c-17.9-10.3-33.5-23.5-48.1-37.9
		C261.1,276.7,257.1,272,252.7,267.1z"/>
	<linearGradient id="SVGID_2_" gradientUnits="userSpaceOnUse" x1="144.8492" y1="478.7934" x2="144.8492" y2="26.7036">
		<stop  offset="0" style="stop-color:#4286F4"/>
		<stop  offset="0.1649" style="stop-color:#3373D8"/>
		<stop  offset="0.3656" style="stop-color:#2561BD"/>
		<stop  offset="0.5703" style="stop-color:#1A54AA"/>
		<stop  offset="0.7795" style="stop-color:#144D9F"/>
		<stop  offset="1" style="stop-color:#124A9B"/>
	</linearGradient>
	<path class="st2" d="M234,32.4c0.1-1.9,0.2-3.5,0.3-5.7c8,4.2,15.6,8.1,23.9,12.4c-7.9,5-14.9,9.5-22.6,14.4
		c-0.4-2.1-0.7-3.7-1-5.2c-78,4.9-169,68.4-185.6,175.3C30,346.9,120.3,454.3,236.3,464.8c-0.4,4.7-0.7,9.3-1.1,14
		c-81.8-4.2-182.6-70-200.9-188.1C13.7,157.8,110.8,43.7,234,32.4z"/>
	<linearGradient id="SVGID_3_" gradientUnits="userSpaceOnUse" x1="369.0349" y1="485.2964" x2="369.0349" y2="33.3922">
		<stop  offset="0" style="stop-color:#4286F4"/>
		<stop  offset="0.1649" style="stop-color:#3373D8"/>
		<stop  offset="0.3656" style="stop-color:#2561BD"/>
		<stop  offset="0.5703" style="stop-color:#1A54AA"/>
		<stop  offset="0.7795" style="stop-color:#144D9F"/>
		<stop  offset="1" style="stop-color:#124A9B"/>
	</linearGradient>
	<path class="st3" d="M276.1,47.4c0.5-4.9,0.9-9.4,1.4-14c78.7,4,178.7,67,199.3,182.8c23.9,133.6-72.5,250.6-195.7,263.3
		c-0.3,1.7-0.6,3.4-1,5.8c-7.6-4.8-14.6-9.3-22.6-14.3c8.1-4.3,15.5-8.2,23.4-12.3c0.4,1.9,0.8,3.4,1.1,4.8
		c90.8-9.9,175-85.7,182.8-192C473.4,155.5,387,58.1,276.1,47.4z"/>
</g>
</svg>
