<?xml version="1.0" encoding="utf-8"?>
<!-- Generator: Adobe Illustrator 25.0.1, SVG Export Plug-In . SVG Version: 6.00 Build 0)  -->
<svg version="1.1" id="Layer_1" xmlns="http://www.w3.org/2000/svg" xmlns:xlink="http://www.w3.org/1999/xlink" x="0px" y="0px"
	 viewBox="0 0 512 512" style="enable-background:new 0 0 512 512;" xml:space="preserve">
<style type="text/css">
	.st0{fill:none;stroke:url(#SVGID_1_);stroke-width:15;stroke-miterlimit:10;}
	.st1{fill:none;stroke:url(#SVGID_2_);stroke-width:15;stroke-miterlimit:10;}
	.st2{fill:none;stroke:url(#SVGID_3_);stroke-width:15;stroke-miterlimit:10;}
	.st3{fill:none;stroke:url(#SVGID_4_);stroke-width:15;stroke-miterlimit:10;}
	.st4{fill:url(#SVGID_5_);}
</style>
<g>
	<g>
		<g>
			<g>
				<g>
					<linearGradient id="SVGID_1_" gradientUnits="userSpaceOnUse" x1="333.795" y1="202.3118" x2="333.795" y2="57.5">
						<stop  offset="0" style="stop-color:#70C172"/>
						<stop  offset="0.1167" style="stop-color:#65B878"/>
						<stop  offset="0.4697" style="stop-color:#42A786"/>
						<stop  offset="0.7763" style="stop-color:#239D8D"/>
						<stop  offset="1" style="stop-color:#109A8F"/>
					</linearGradient>
					<path class="st0" d="M205.4,152.8c0-2.8,1.5-9,2.8-11.9c1.8-4,3.7-7.9,5.8-11.8c0.6-1.1,1.7-1.8,2.7-2.6
						c6.9-6.1,14.8-7.5,23.3-4.4c3.7,1.4,6,0.9,8.6-2.3c6-7.4,13.3-13.5,21.3-18.8c1.1-0.8,1.5-1.5,1.2-2.9
						c-0.7-4.2-1.7-8.4-0.7-12.8c1.7-7.6,5.9-13.2,13.3-16c4.5-1.7,9.2-3.5,13.9-4.1c9.2-1.1,16.3,3,21.1,10.9
						c0.9,1.4,1.7,2.8,2.4,4.4c0.7,1.5,1.6,1.9,3.1,1.8c9.2-0.8,18.4-0.2,27.5,1.4c1.5,0.3,3,0.5,4.5,0.9c1.2,0.3,1.8-0.1,2.5-1
						c2.5-3.3,4.7-6.9,8.2-9.4c7.1-4.9,14.6-5.5,22.4-1.9c3.3,1.5,6.6,3.2,9.3,5.6c6.9,6.3,8.6,14.3,6.2,23.2
						c-0.5,1.7-0.7,3.5-1.3,5.2c-0.4,1.2,0,1.9,0.8,2.5c-6.2-5.2,4.1,0,18.1,19.5c0.6,0.9,1.3,1.1,2.3,0.9c3.8-0.6,7.5-1.2,11.3-1.7
						c10.6-1.3,20.1,4.7,23.6,14.8c1.3,3.8,2.7,7.5,2.7,11.6c-0.1,10.7-4.5,19-13.9,24c-4.2,2.2-5.6,4.5-5,9.3
						c0.6,4.8,0.5,9.6,0.1,14.4"/>
				</g>
			</g>
		</g>
	</g>
	<g>
		<g>
			<linearGradient id="SVGID_2_" gradientUnits="userSpaceOnUse" x1="256" y1="454.5" x2="256" y2="141.1055">
				<stop  offset="0" style="stop-color:#70C172"/>
				<stop  offset="0.1167" style="stop-color:#65B878"/>
				<stop  offset="0.4697" style="stop-color:#42A786"/>
				<stop  offset="0.7763" style="stop-color:#239D8D"/>
				<stop  offset="1" style="stop-color:#109A8F"/>
			</linearGradient>
			<path class="st1" d="M503.4,344c0,56.9-42.1,103-93.9,103H74.5c-36.4,0-65.9-32.4-65.9-72.3c0-34.9,22.6-64.1,52.6-70.8
				c7.1-62.8,55.9-111.5,115.2-111.5c19.1,0,37.1,5.1,53,14c16-34.3,48.5-57.8,86.1-57.8c49.1,0,89.7,40.3,95.8,92.4
				C462.3,242,503.4,287.7,503.4,344z"/>
			<linearGradient id="SVGID_3_" gradientUnits="userSpaceOnUse" x1="152.8694" y1="315.1992" x2="152.8694" y2="244.985">
				<stop  offset="0" style="stop-color:#70C172"/>
				<stop  offset="0.1167" style="stop-color:#65B878"/>
				<stop  offset="0.4697" style="stop-color:#42A786"/>
				<stop  offset="0.7763" style="stop-color:#239D8D"/>
				<stop  offset="1" style="stop-color:#109A8F"/>
			</linearGradient>
			<path class="st2" d="M114.6,314c1.8-11.3,6-22.3,12.7-32c16.6-24.1,44.1-34,69.3-27.6"/>
		</g>
	</g>
</g>
</svg>
