<?xml version="1.0" encoding="utf-8"?>
<!-- Generator: Adobe Illustrator 25.0.1, SVG Export Plug-In . SVG Version: 6.00 Build 0)  -->
<svg version="1.1" id="Layer_1" xmlns="http://www.w3.org/2000/svg" xmlns:xlink="http://www.w3.org/1999/xlink" x="0px" y="0px"
	 viewBox="0 0 512 512" style="enable-background:new 0 0 512 512;" xml:space="preserve">
<style type="text/css">
	.st0{fill:url(#SVGID_1_);}
	.st1{fill:url(#SVGID_2_);}
	.st2{fill:url(#SVGID_3_);}
</style>
<g>
	<linearGradient id="SVGID_1_" gradientUnits="userSpaceOnUse" x1="256" y1="499.2527" x2="256" y2="12.7474">
		<stop  offset="0" style="stop-color:#EF9921"/>
		<stop  offset="2.267718e-02" style="stop-color:#EF9622"/>
		<stop  offset="0.3161" style="stop-color:#EF7D2D"/>
		<stop  offset="0.5864" style="stop-color:#EF6834"/>
		<stop  offset="0.823" style="stop-color:#F05A37"/>
		<stop  offset="1" style="stop-color:#F15537"/>
	</linearGradient>
	<path class="st0" d="M487.7,252.7l-16.9-2.4c0.1-2.9,0.2-5.8,0.2-8.6c0-61.2-23.8-118.7-67.1-161.9S303.2,12.7,242,12.7
		c-92.1,0-174.9,54.8-210.9,139.6c-1.5,3.6,0.2,7.8,3.8,9.3c3.6,1.5,7.8-0.2,9.3-3.8c2-4.7,4.2-9.3,6.5-13.9
		c12.8-9.6,27.3-18,43-25.3c-6.8,20.2-11.9,41.7-15.1,64.1c-17.3,3.7-32.9,8.1-46.4,13c0.7-3,1.4-6,2.2-9c1-3.8-1.3-7.7-5.1-8.7
		c-3.8-1-7.7,1.3-8.7,5.1c-5,19-7.6,38.8-7.6,58.6c0,61.2,23.8,118.7,67.1,161.9s100.8,67.1,161.9,67.1c23.2,0,46.1-3.5,68.1-10.3
		c12.2,11.2,26.3,20.5,42.1,27.4l25,10.9c0.9,0.4,1.9,0.6,2.8,0.6c1,0,1.9-0.2,2.8-0.6l25-10.9c12.1-5.3,23.5-12.1,33.9-20.4
		c3.1-2.4,3.6-6.9,1.1-10c-2.5-3.1-6.9-3.6-10-1.1c-9.4,7.5-19.7,13.7-30.7,18.5l-22.1,9.6l-22.1-9.6c-15.5-6.7-29.3-16.1-40.9-27.5
		c-0.1-0.1-0.1-0.1-0.2-0.2c-26.1-25.5-41.6-60.8-41.6-98.7v-81.7l19.4-2.7c27.9-3.9,54.4-15.1,76.7-32.2l6.9-5.3
		c1-0.8,2.5-0.8,3.5,0l6.9,5.3c22.3,17.1,48.9,28.2,76.7,32.2l19.4,2.7v81.7c0,31.9-11.2,63-31.4,87.6c-2.5,3-2.1,7.5,1,10
		c3,2.5,7.5,2.1,10-1c22.4-27.2,34.7-61.5,34.7-96.6v-82.6C499,259.2,494.1,253.6,487.7,252.7L487.7,252.7z M407.3,197.9
		c18.2,4.1,34.2,8.9,47.4,14.3c1.3,9.7,2,19.6,2,29.5c0,2,0,4.1-0.1,6.2c-16.7-3.6-32.7-10.1-47.2-19.1
		C409.1,218.4,408.4,208.1,407.3,197.9L407.3,197.9z M303.8,93.1c24.2,3.8,47.3,9.9,68.5,18.1c8.1,21.3,14.3,44.4,18.1,68.7
		c-23.4-4.3-49.3-7.6-77-9.7C311.5,142.5,308.2,116.5,303.8,93.1z M299.1,169.2c-18.5-1.1-37.6-1.7-57.1-1.7
		c-19.5,0-38.6,0.6-57.1,1.7c2.2-28.1,5.7-54.6,10.2-78.1c15.3-1.8,31-2.8,46.9-2.8s31.6,0.9,46.9,2.8
		C293.4,114.6,296.9,141.1,299.1,169.2L299.1,169.2z M339.6,50.4c9.5,12.8,18,27.3,25.3,43.1c-20.2-6.8-41.7-11.9-64-15.1
		c-3.7-17.3-8.1-32.9-13-46.4C305.9,35.8,323.3,42,339.6,50.4z M390.2,118.7c15.8,7.3,30.3,15.8,43.1,25.4
		c8.4,16.3,14.6,33.7,18.5,51.8c-13.5-4.9-29.1-9.3-46.4-13C402.1,160.5,397,138.9,390.2,118.7L390.2,118.7z M416.1,116
		c-10.3-5.8-21.2-11-32.7-15.7c-4.7-11.5-9.9-22.4-15.7-32.7c9.2,6.7,17.9,14.1,26.1,22.3C402,98.1,409.4,106.8,416.1,116L416.1,116
		z M271.5,29c5.4,13.2,10.2,29.2,14.3,47.4c-14.4-1.5-29-2.3-43.8-2.3c-14.8,0-29.5,0.8-43.8,2.3c4.1-18.2,8.9-34.2,14.3-47.4
		c9.7-1.3,19.6-2,29.5-2C252,27,261.8,27.7,271.5,29z M196.1,31.9c-4.9,13.5-9.3,29.1-13,46.4c-22.4,3.3-43.9,8.4-64.1,15.2
		c7.3-15.7,15.7-30.2,25.3-43C160.6,42.1,178,35.9,196.1,31.9z M67.8,116c13.6-18.8,30-35.1,48.5-48.5
		c-5.8,10.3-11.1,21.3-15.7,32.8C89.1,105,78.1,110.2,67.8,116z M111.5,111.2c21.3-8.1,44.4-14.2,68.6-18.1
		c-4.3,23.4-7.6,49.4-9.7,77c-27.7,2.1-53.6,5.4-77,9.7C97.3,155.6,103.4,132.5,111.5,111.2L111.5,111.2z M268,394.3
		c-8.6,0.6-17.3,0.9-26,0.9c-15.9,0-31.6-0.9-46.9-2.8c-4.6-23.5-8-50-10.2-78.1c18.5,1.1,37.6,1.7,57.1,1.7
		c6.3,0,12.6-0.1,18.9-0.2v32.7C260.9,364.3,263.3,379.7,268,394.3L268,394.3z M180.1,390.3c-24.3-3.9-47.4-10-68.6-18.1
		c-8.1-21.3-14.2-44.4-18.1-68.6c23.4,4.3,49.4,7.6,77,9.7C172.5,340.9,175.8,366.9,180.1,390.3z M144.3,433.1
		c-9.6-12.9-18.1-27.3-25.3-43.1c20.2,6.8,41.7,11.9,64.1,15.1c3.7,17.3,8.1,32.9,13,46.4C178.1,447.7,160.7,441.5,144.3,433.1z
		 M32.1,287.6c13.5,4.9,29.1,9.3,46.4,13c3.3,22.4,8.4,43.9,15.1,64.1C78,357.5,63.5,349,50.6,339.4C42.3,323,36.1,305.7,32.1,287.6
		z M91.3,288.6c-1.8-15.3-2.8-31-2.8-46.9s0.9-31.6,2.8-46.9c23.5-4.6,50-8,78.1-10.2c-1.1,18.5-1.7,37.6-1.7,57.1
		c0,19.5,0.6,38.6,1.7,57.1C141.3,296.6,114.9,293.2,91.3,288.6L91.3,288.6z M76.7,197.9c-1.5,14.4-2.3,29-2.3,43.8
		s0.8,29.5,2.3,43.8c-18.2-4.1-34.2-8.9-47.4-14.3c-1.3-9.7-2-19.6-2-29.5c0-9.9,0.7-19.8,2-29.5C42.4,206.8,58.5,202,76.7,197.9
		L76.7,197.9z M67.9,367.5c10.3,5.8,21.2,11,32.7,15.7c4.7,11.5,9.9,22.4,15.7,32.7c-9.2-6.7-17.9-14.1-26.1-22.3
		C82,385.4,74.6,376.7,67.9,367.5z M212.5,454.5c-5.4-13.2-10.2-29.2-14.3-47.4c14.4,1.5,29,2.3,43.8,2.3c10.4,0,20.8-0.4,31.1-1.2
		c2.4,5.7,5.2,11.2,8.3,16.5c-3.1,11.2-6.4,21.1-9.9,29.7c-9.7,1.3-19.6,2-29.5,2C232,456.5,222.2,455.8,212.5,454.5L212.5,454.5z
		 M291.7,440.2c2.2,3,4.6,5.9,7.1,8.7c-3.6,1-7.2,1.9-10.9,2.7C289.2,447.9,290.5,444.2,291.7,440.2L291.7,440.2z M292.5,249.9
		l-20.3,2.9c-6.5,0.9-11.3,6.5-11.3,13v35.7c-6.3,0.1-12.6,0.2-18.9,0.2c-19.8,0-39.3-0.6-58.1-1.8c-1.2-18.9-1.8-38.4-1.8-58.1
		s0.6-39.3,1.8-58.1c18.9-1.2,38.4-1.8,58.1-1.8c19.8,0,39.3,0.6,58.1,1.8c1.2,18.9,1.8,38.4,1.8,58.1c0,2.1,0,4.2,0,6.5
		C298.8,248.9,295.7,249.4,292.5,249.9L292.5,249.9z M369.5,215.2l-6.9,5.3c-14,10.7-29.7,18.8-46.4,24c0-0.9,0-1.9,0-2.8
		c0-19.5-0.6-38.6-1.7-57.1c28.1,2.2,54.6,5.7,78.1,10.2c0.9,7.8,1.6,15.7,2.1,23.6l-4.3-3.3C384.2,210.5,375.6,210.5,369.5,215.2
		L369.5,215.2z"/>
	<linearGradient id="SVGID_2_" gradientUnits="userSpaceOnUse" x1="379.9305" y1="438.9109" x2="379.9305" y2="267.3523">
		<stop  offset="0" style="stop-color:#EF9921"/>
		<stop  offset="2.267718e-02" style="stop-color:#EF9622"/>
		<stop  offset="0.3161" style="stop-color:#EF7D2D"/>
		<stop  offset="0.5864" style="stop-color:#EF6834"/>
		<stop  offset="0.823" style="stop-color:#F05A37"/>
		<stop  offset="1" style="stop-color:#F15537"/>
	</linearGradient>
	<path class="st1" d="M437.8,299.5c2.6-2.9,2.4-7.4-0.5-10.1c-15.8-14.2-36.2-22-57.4-22c-47.3,0-85.8,38.5-85.8,85.8
		c0,47.3,38.5,85.8,85.8,85.8c47.3,0,85.8-38.5,85.8-85.8c0-13.1-2.9-25.6-8.5-37.3c-1.7-3.5-6-5-9.5-3.3s-5,6-3.3,9.5
		c4.7,9.7,7.1,20.2,7.1,31.1c0,39.4-32.1,71.5-71.5,71.5c-39.4,0-71.5-32.1-71.5-71.5c0-39.4,32.1-71.5,71.5-71.5
		c17.7,0,34.7,6.5,47.9,18.4C430.7,302.6,435.2,302.4,437.8,299.5L437.8,299.5z"/>
	<linearGradient id="SVGID_3_" gradientUnits="userSpaceOnUse" x1="384.148" y1="389.9357" x2="384.148" y2="315.4293">
		<stop  offset="0" style="stop-color:#EF9921"/>
		<stop  offset="2.267718e-02" style="stop-color:#EF9622"/>
		<stop  offset="0.3161" style="stop-color:#EF7D2D"/>
		<stop  offset="0.5864" style="stop-color:#EF6834"/>
		<stop  offset="0.823" style="stop-color:#F05A37"/>
		<stop  offset="1" style="stop-color:#F15537"/>
	</linearGradient>
	<path class="st2" d="M409,318.3l-41.2,54.4l-9.7-7.8c-3.1-2.5-7.6-2-10,1.1c-2.5,3.1-2,7.6,1.1,10l15.5,12.4c1.3,1,2.8,1.6,4.5,1.6
		c0.3,0,0.6,0,0.9-0.1c1.9-0.2,3.6-1.2,4.8-2.8l45.6-60.3c2.4-3.1,1.8-7.6-1.4-10C415.8,314.5,411.4,315.1,409,318.3L409,318.3z"/>
</g>
</svg>
