<?xml version="1.0" encoding="utf-8"?>
<!-- Generator: Adobe Illustrator 25.0.1, SVG Export Plug-In . SVG Version: 6.00 Build 0)  -->
<svg version="1.1" id="Layer_1" xmlns="http://www.w3.org/2000/svg" xmlns:xlink="http://www.w3.org/1999/xlink" x="0px" y="0px"
	 viewBox="0 0 512 512" style="enable-background:new 0 0 512 512;" xml:space="preserve">
<style type="text/css">
	.st0{fill:url(#Shape_2_);}
	.st1{fill:url(#Shape_3_);}
	.st2{fill:url(#Path_4_);}
	.st3{fill:url(#Path_5_);}
	.st4{fill:url(#Path_6_);}
	.st5{fill:url(#Path_7_);}
	.st6{fill:url(#SVGID_1_);}
</style>
<g id="_x30_35---Data-Science">
	<linearGradient id="Shape_2_" gradientUnits="userSpaceOnUse" x1="259.7747" y1="507.8032" x2="259.7747" y2="4.1946">
		<stop  offset="0" style="stop-color:#3097E4"/>
		<stop  offset="0.12" style="stop-color:#2F91DA"/>
		<stop  offset="0.3211" style="stop-color:#2C82C0"/>
		<stop  offset="0.5786" style="stop-color:#286A96"/>
		<stop  offset="0.8795" style="stop-color:#23495C"/>
		<stop  offset="1" style="stop-color:#203A43"/>
	</linearGradient>
	<path id="Shape" class="st0" d="M512,130.1c0-18.5-15-33.6-33.6-33.6c-8.1,0-15.9,3-21.9,8.3c-24.5-12.6-57.4-18.2-95.8-16.2
		C335.6,34.9,299.1,4.2,260.2,4.2c-12.5,0.1-24.8,3.2-35.9,9.1c-12.9-12.2-33.1-12.1-46,0.1c-12.9,12.3-13.9,32.4-2.3,45.9
		c-6.2,9.3-11.6,19.1-16.3,29.2c-28.1-2.2-56.3,1.4-83,10.5c-23.3,7.5-42.6,24.3-53.2,46.4c-14.3,32.4-5.2,71.8,21.7,110.9
		c-24.7,36-33.5,71.3-25.2,100.4c-9.5,7.7-14,20-11.8,32c2.2,12,10.8,21.9,22.4,25.7s24.4,1,33.3-7.3c25.3,11.8,53,17.6,80.9,16.7
		c4.9,0,9.9-0.3,14.9-0.5c25.2,53.7,61.6,84.5,100.6,84.5s75.3-30.7,100.6-84.4c5,0.3,10,0.5,14.8,0.5c23.2,0.4,46.3-3.3,68.2-10.9
		c23.3-7.5,42.6-24.3,53.2-46.4c14.3-32.4,5.2-71.8-21.7-110.9c24.7-36,33.6-71.3,25.2-100.4C507.8,148.9,512,139.8,512,130.1
		L512,130.1z M478.4,113.3c9.3,0,16.8,7.5,16.8,16.8s-7.5,16.8-16.8,16.8c-9.3,0-16.8-7.5-16.8-16.8S469.2,113.3,478.4,113.3z
		 M286.7,394.2c9.7-3.8,19.5-8,29.2-12.5c17.5-8.2,34.5-17.4,50.9-27.5c-4.1,17.7-9.7,35.1-16.8,51.8
		C328.6,404,307.4,400,286.7,394.2z M377.7,256c0,25.2-2.1,50.4-6.4,75.3c-19.9,13.3-40.8,25.1-62.6,35.3
		c-15.9,7.4-32.1,13.9-48.7,19.6c-16.5-5.7-32.7-12.2-48.5-19.6c-21.7-10.1-42.6-21.8-62.5-35.1c-8.5-49.9-8.5-100.8,0-150.7
		c19.9-13.3,40.8-25.1,62.6-35.3c15.8-7.4,32-13.9,48.5-19.5c39.2,13.3,76.6,31.7,111.1,54.6C375.6,205.5,377.8,230.7,377.7,256
		L377.7,256z M390.4,194.1c24.1,17.5,45.6,38.3,64.1,61.6c-18.4,23.5-39.9,44.4-64.1,62c2.7-20.4,4-41.1,4-61.7
		C394.5,235.3,393.2,214.6,390.4,194.1z M170.2,405.7c-7-16.6-12.5-33.8-16.6-51.4c16.4,10.1,33.4,19.2,50.8,27.4
		c9.8,4.6,19.5,8.6,29.3,12.5C213,399.9,191.7,403.8,170.2,405.7L170.2,405.7z M233.6,117.8c-9.7,3.8-19.4,7.9-29.1,12.5
		c-17.5,8.2-34.5,17.4-50.9,27.5c4.1-17.7,9.7-35,16.7-51.7C191.7,108.1,212.9,112.1,233.6,117.8L233.6,117.8z M130,317.9
		c-24.1-17.5-45.6-38.3-64.1-61.6c18.4-23.5,39.9-44.4,64.1-62C124.5,235.3,124.5,276.9,130,317.9L130,317.9z M315.9,130.3
		c-9.7-4.5-19.5-8.7-29.2-12.5c20.8-5.7,42-9.6,63.5-11.5c7,16.6,12.5,33.8,16.6,51.4C350.3,147.6,333.3,138.5,315.9,130.3z
		 M201.4,21c9.3,0,16.8,7.5,16.8,16.8s-7.5,16.8-16.8,16.8s-16.8-7.5-16.8-16.8S192.2,21,201.4,21z M189.6,69.1
		c3.8,1.5,7.8,2.2,11.8,2.3c18.5,0,33.6-15,33.6-33.6c0-3.5-0.6-7-1.8-10.3c8.4-4.2,17.6-6.4,27-6.5c30.9,0,60.6,25.1,82.7,69.2
		c-28.1,3.1-55.8,9.2-82.7,18.1c-26.9-8.9-54.6-15.1-82.7-18.3C181.1,82.8,185.2,75.8,189.6,69.1z M38.8,152.2
		c8.8-18,24.6-31.5,43.8-37.4c20.1-7,41.2-10.4,62.5-10c2.5,0,5,0.2,7.6,0.3c-8.4,21.3-14.7,43.3-18.8,65.9
		c-29.4,19.7-55.7,43.7-78.1,71.1C34.6,209.5,27.5,177.8,38.8,152.2L38.8,152.2z M42,398.7c-9.3,0-16.8-7.5-16.8-16.8
		c0-9.3,7.5-16.8,16.8-16.8s16.8,7.5,16.8,16.8C58.8,391.2,51.2,398.7,42,398.7z M73.4,393.2c1.4-3.6,2.1-7.4,2.1-11.3
		c0-10.1-4.5-19.6-12.2-26c-7.8-6.4-18-8.9-27.9-6.9c-5.2-22.4,1.9-49.6,20.4-78.3c22.4,27.3,48.7,51.1,78.1,70.7
		c4.1,22.4,10.4,44.3,18.7,65.4C125.5,408.7,98.4,404,73.4,393.2L73.4,393.2z M260.2,491c-30.9,0-60.6-25.1-82.7-69.2
		c28.2-3.1,55.9-9.2,82.8-18.2c26.8,8.9,54.5,15.1,82.6,18.3C320.8,466,291.1,491,260.2,491L260.2,491z M481.6,359.8
		c-8.8,18-24.6,31.5-43.8,37.5c-22.5,7.7-46.3,11.1-70.1,9.8c8.4-21.3,14.7-43.4,18.9-65.9c29.4-19.7,55.7-43.7,78.1-71.1
		C485.8,302.5,492.9,334.2,481.6,359.8z M464.6,241.3c-22.4-27.3-48.7-51.1-78.1-70.7c-4.1-22.4-10.4-44.3-18.7-65.4
		c27.1-1.8,54.2,2.9,79.2,13.7c-1.4,3.6-2.1,7.4-2.1,11.3c0,10.1,4.5,19.6,12.2,26c7.8,6.4,18,8.9,27.9,6.9
		C490.2,185.4,483.1,212.6,464.6,241.3L464.6,241.3z"/>
	<linearGradient id="Shape_3_" gradientUnits="userSpaceOnUse" x1="260.1967" y1="331.541" x2="260.1967" y2="180.459">
		<stop  offset="0" style="stop-color:#3097E4"/>
		<stop  offset="0.12" style="stop-color:#2F91DA"/>
		<stop  offset="0.3211" style="stop-color:#2C82C0"/>
		<stop  offset="0.5786" style="stop-color:#286A96"/>
		<stop  offset="0.8795" style="stop-color:#23495C"/>
		<stop  offset="1" style="stop-color:#203A43"/>
	</linearGradient>
	<path id="Shape_1_" class="st1" d="M167.9,205.6v33.6c0,6.2,2.4,12.2,6.5,16.8c-4.2,4.6-6.5,10.6-6.5,16.8v33.6
		c0,13.9,11.3,25.2,25.2,25.2h134.3c13.9,0,25.2-11.3,25.2-25.2v-33.6c0-6.2-2.4-12.2-6.5-16.8c4.2-4.6,6.5-10.6,6.5-16.8v-33.6
		c0-13.9-11.3-25.2-25.2-25.2H193C179.1,180.5,167.9,191.7,167.9,205.6z M335.7,306.4c0,4.6-3.8,8.4-8.4,8.4H193
		c-4.6,0-8.4-3.8-8.4-8.4v-33.6c0-4.6,3.8-8.4,8.4-8.4h134.3c4.6,0,8.4,3.8,8.4,8.4V306.4z M335.7,205.6v33.6c0,4.6-3.8,8.4-8.4,8.4
		H193c-4.6,0-8.4-3.8-8.4-8.4v-33.6c0-4.6,3.8-8.4,8.4-8.4h134.3C332,197.2,335.7,201,335.7,205.6z"/>
	<linearGradient id="Path_4_" gradientUnits="userSpaceOnUse" x1="214.0328" y1="230.8197" x2="214.0328" y2="214.0328">
		<stop  offset="0" style="stop-color:#3097E4"/>
		<stop  offset="0.12" style="stop-color:#2F91DA"/>
		<stop  offset="0.3211" style="stop-color:#2C82C0"/>
		<stop  offset="0.5786" style="stop-color:#286A96"/>
		<stop  offset="0.8795" style="stop-color:#23495C"/>
		<stop  offset="1" style="stop-color:#203A43"/>
	</linearGradient>
	<path id="Path" class="st2" d="M209.8,230.8h8.4c4.6,0,8.4-3.8,8.4-8.4c0-4.6-3.8-8.4-8.4-8.4h-8.4c-4.6,0-8.4,3.8-8.4,8.4
		C201.4,227.1,205.2,230.8,209.8,230.8z"/>
	<linearGradient id="Path_5_" gradientUnits="userSpaceOnUse" x1="293.7705" y1="230.8197" x2="293.7705" y2="214.0328">
		<stop  offset="0" style="stop-color:#3097E4"/>
		<stop  offset="0.12" style="stop-color:#2F91DA"/>
		<stop  offset="0.3211" style="stop-color:#2C82C0"/>
		<stop  offset="0.5786" style="stop-color:#286A96"/>
		<stop  offset="0.8795" style="stop-color:#23495C"/>
		<stop  offset="1" style="stop-color:#203A43"/>
	</linearGradient>
	<path id="Path_1_" class="st3" d="M277,230.8h33.6c4.6,0,8.4-3.8,8.4-8.4c0-4.6-3.8-8.4-8.4-8.4H277c-4.6,0-8.4,3.8-8.4,8.4
		C268.6,227.1,272.3,230.8,277,230.8z"/>
	<linearGradient id="Path_6_" gradientUnits="userSpaceOnUse" x1="214.0328" y1="297.9672" x2="214.0328" y2="281.1803">
		<stop  offset="0" style="stop-color:#3097E4"/>
		<stop  offset="0.12" style="stop-color:#2F91DA"/>
		<stop  offset="0.3211" style="stop-color:#2C82C0"/>
		<stop  offset="0.5786" style="stop-color:#286A96"/>
		<stop  offset="0.8795" style="stop-color:#23495C"/>
		<stop  offset="1" style="stop-color:#203A43"/>
	</linearGradient>
	<path id="Path_2_" class="st4" d="M218.2,281.2h-8.4c-4.6,0-8.4,3.8-8.4,8.4s3.8,8.4,8.4,8.4h8.4c4.6,0,8.4-3.8,8.4-8.4
		S222.9,281.2,218.2,281.2z"/>
	<linearGradient id="Path_7_" gradientUnits="userSpaceOnUse" x1="293.7705" y1="297.9672" x2="293.7705" y2="281.1803">
		<stop  offset="0" style="stop-color:#3097E4"/>
		<stop  offset="0.12" style="stop-color:#2F91DA"/>
		<stop  offset="0.3211" style="stop-color:#2C82C0"/>
		<stop  offset="0.5786" style="stop-color:#286A96"/>
		<stop  offset="0.8795" style="stop-color:#23495C"/>
		<stop  offset="1" style="stop-color:#203A43"/>
	</linearGradient>
	<path id="Path_3_" class="st5" d="M310.6,281.2H277c-4.6,0-8.4,3.8-8.4,8.4s3.8,8.4,8.4,8.4h33.6c4.6,0,8.4-3.8,8.4-8.4
		S315.2,281.2,310.6,281.2z"/>
</g>
</svg>
