<?xml version="1.0" encoding="utf-8"?>
<!-- Generator: Adobe Illustrator 25.0.1, SVG Export Plug-In . SVG Version: 6.00 Build 0)  -->
<svg version="1.1" id="Layer_1" xmlns="http://www.w3.org/2000/svg" xmlns:xlink="http://www.w3.org/1999/xlink" x="0px" y="0px"
	 viewBox="0 0 511 511" style="enable-background:new 0 0 511 511;" xml:space="preserve">
<style type="text/css">
	.st0{fill:url(#SVGID_1_);}
	.st1{fill:url(#SVGID_2_);}
	.st2{fill:url(#SVGID_3_);}
	.st3{fill:url(#SVGID_4_);}
	.st4{fill:url(#SVGID_5_);}
	.st5{fill:url(#SVGID_6_);}
	.st6{fill:url(#SVGID_7_);}
	.st7{fill:url(#SVGID_8_);}
	.st8{fill:url(#SVGID_9_);}
	.st9{fill:url(#SVGID_10_);}
	.st10{fill:url(#SVGID_11_);}
	.st11{fill:url(#SVGID_12_);}
	.st12{fill:url(#SVGID_13_);}
	.st13{fill:url(#SVGID_14_);}
	.st14{fill:url(#SVGID_15_);}
	.st15{fill:url(#SVGID_16_);}
	.st16{fill:url(#SVGID_17_);}
	.st17{fill:url(#SVGID_18_);}
	.st18{fill:url(#SVGID_19_);}
	.st19{fill:url(#SVGID_20_);}
	.st20{fill:url(#SVGID_21_);}
	.st21{fill:url(#SVGID_22_);}
	.st22{fill:url(#SVGID_23_);}
</style>
<linearGradient id="SVGID_1_" gradientUnits="userSpaceOnUse" x1="50.5875" y1="316.6" x2="50.5875" y2="378.4509" gradientTransform="matrix(1 0 0 -1 0 512)">
	<stop  offset="0" style="stop-color:#ED213A"/>
	<stop  offset="3.095973e-02" style="stop-color:#E92139"/>
	<stop  offset="0.3164" style="stop-color:#C4252D"/>
	<stop  offset="0.582" style="stop-color:#A92725"/>
	<stop  offset="0.8179" style="stop-color:#992820"/>
	<stop  offset="1" style="stop-color:#93291E"/>
</linearGradient>
<path class="st0" d="M57,193.2c1.5,1.5,3.4,2.2,5.3,2.2s3.8-0.7,5.3-2.2c2.9-2.9,2.9-7.7,0-10.6l-18.2-18.2l18.2-18.2
	c2.9-2.9,2.9-7.7,0-10.6c-2.9-2.9-7.7-2.9-10.6,0L33.6,159c-1.4,1.4-2.2,3.3-2.2,5.3s0.8,3.9,2.2,5.3L57,193.2z"/>
<linearGradient id="SVGID_2_" gradientUnits="userSpaceOnUse" x1="130.05" y1="316.6" x2="130.05" y2="378.4548" gradientTransform="matrix(1 0 0 -1 0 512)">
	<stop  offset="0" style="stop-color:#ED213A"/>
	<stop  offset="3.095973e-02" style="stop-color:#E92139"/>
	<stop  offset="0.3164" style="stop-color:#C4252D"/>
	<stop  offset="0.582" style="stop-color:#A92725"/>
	<stop  offset="0.8179" style="stop-color:#992820"/>
	<stop  offset="1" style="stop-color:#93291E"/>
</linearGradient>
<path class="st1" d="M131.2,164.4L113,182.6c-2.9,2.9-2.9,7.7,0,10.6c1.5,1.5,3.4,2.2,5.3,2.2s3.8-0.7,5.3-2.2l23.5-23.5
	c2.9-2.9,2.9-7.7,0-10.6l-23.5-23.5c-2.9-2.9-7.7-2.9-10.6,0s-2.9,7.7,0,10.6L131.2,164.4z"/>
<linearGradient id="SVGID_3_" gradientUnits="userSpaceOnUse" x1="91.05" y1="316.6" x2="91.05" y2="378.4137" gradientTransform="matrix(1 0 0 -1 0 512)">
	<stop  offset="0" style="stop-color:#ED213A"/>
	<stop  offset="3.095973e-02" style="stop-color:#E92139"/>
	<stop  offset="0.3164" style="stop-color:#C4252D"/>
	<stop  offset="0.582" style="stop-color:#A92725"/>
	<stop  offset="0.8179" style="stop-color:#992820"/>
	<stop  offset="1" style="stop-color:#93291E"/>
</linearGradient>
<path class="st2" d="M79.1,194.9c0.9,0.4,1.8,0.5,2.7,0.5c3,0,5.8-1.8,7-4.7l18.4-46.9c1.5-3.8-0.4-8.2-4.2-9.7
	c-3.8-1.5-8.2,0.4-9.7,4.2l-18.4,46.9C73.4,189,75.3,193.3,79.1,194.9z"/>
<linearGradient id="SVGID_4_" gradientUnits="userSpaceOnUse" x1="65.9" y1="190.7709" x2="65.9" y2="205.73" gradientTransform="matrix(1 0 0 -1 0 512)">
	<stop  offset="0" style="stop-color:#ED213A"/>
	<stop  offset="3.095973e-02" style="stop-color:#E92139"/>
	<stop  offset="0.3164" style="stop-color:#C4252D"/>
	<stop  offset="0.582" style="stop-color:#A92725"/>
	<stop  offset="0.8179" style="stop-color:#992820"/>
	<stop  offset="1" style="stop-color:#93291E"/>
</linearGradient>
<path class="st3" d="M40.7,321.2h50.4c4.1,0,7.5-3.3,7.5-7.5c0-4.1-3.3-7.5-7.5-7.5H40.7c-4.1,0-7.5,3.3-7.5,7.5
	C33.2,317.9,36.6,321.2,40.7,321.2z"/>
<linearGradient id="SVGID_5_" gradientUnits="userSpaceOnUse" x1="162.8" y1="190.7709" x2="162.8" y2="205.73" gradientTransform="matrix(1 0 0 -1 0 512)">
	<stop  offset="0" style="stop-color:#ED213A"/>
	<stop  offset="3.095973e-02" style="stop-color:#E92139"/>
	<stop  offset="0.3164" style="stop-color:#C4252D"/>
	<stop  offset="0.582" style="stop-color:#A92725"/>
	<stop  offset="0.8179" style="stop-color:#992820"/>
	<stop  offset="1" style="stop-color:#93291E"/>
</linearGradient>
<path class="st4" d="M207.1,306.3h-88.6c-4.1,0-7.5,3.3-7.5,7.5c0,4.1,3.3,7.5,7.5,7.5h88.6c4.1,0,7.5-3.3,7.5-7.5
	C214.6,309.6,211.2,306.3,207.1,306.3z"/>
<linearGradient id="SVGID_6_" gradientUnits="userSpaceOnUse" x1="183.6" y1="341.5562" x2="183.6" y2="356.5152" gradientTransform="matrix(1 0 0 -1 0 512)">
	<stop  offset="0" style="stop-color:#ED213A"/>
	<stop  offset="3.095973e-02" style="stop-color:#E92139"/>
	<stop  offset="0.3164" style="stop-color:#C4252D"/>
	<stop  offset="0.582" style="stop-color:#A92725"/>
	<stop  offset="0.8179" style="stop-color:#992820"/>
	<stop  offset="1" style="stop-color:#93291E"/>
</linearGradient>
<path class="st5" d="M170.7,170.4h25.8c4.1,0,7.5-3.3,7.5-7.5c0-4.1-3.3-7.5-7.5-7.5h-25.8c-4.1,0-7.5,3.3-7.5,7.5
	C163.2,167.1,166.5,170.4,170.7,170.4z"/>
<linearGradient id="SVGID_7_" gradientUnits="userSpaceOnUse" x1="304.2" y1="341.5562" x2="304.2" y2="356.5152" gradientTransform="matrix(1 0 0 -1 0 512)">
	<stop  offset="0" style="stop-color:#ED213A"/>
	<stop  offset="3.095973e-02" style="stop-color:#E92139"/>
	<stop  offset="0.3164" style="stop-color:#C4252D"/>
	<stop  offset="0.582" style="stop-color:#A92725"/>
	<stop  offset="0.8179" style="stop-color:#992820"/>
	<stop  offset="1" style="stop-color:#93291E"/>
</linearGradient>
<path class="st6" d="M225.4,170.4H383c4.1,0,7.5-3.3,7.5-7.5c0-4.1-3.3-7.5-7.5-7.5H225.4c-4.1,0-7.5,3.3-7.5,7.5
	C217.9,167.1,221.3,170.4,225.4,170.4z"/>
<linearGradient id="SVGID_8_" gradientUnits="userSpaceOnUse" x1="195.3" y1="253.7" x2="195.3" y2="268.6591" gradientTransform="matrix(1 0 0 -1 0 512)">
	<stop  offset="0" style="stop-color:#ED213A"/>
	<stop  offset="3.095973e-02" style="stop-color:#E92139"/>
	<stop  offset="0.3164" style="stop-color:#C4252D"/>
	<stop  offset="0.582" style="stop-color:#A92725"/>
	<stop  offset="0.8179" style="stop-color:#992820"/>
	<stop  offset="1" style="stop-color:#93291E"/>
</linearGradient>
<path class="st7" d="M227.2,243.3h-63.8c-4.1,0-7.5,3.3-7.5,7.5c0,4.1,3.3,7.5,7.5,7.5h63.8c4.1,0,7.5-3.3,7.5-7.5
	C234.6,246.7,231.3,243.3,227.2,243.3z"/>
<linearGradient id="SVGID_9_" gradientUnits="userSpaceOnUse" x1="128.45" y1="253.7" x2="128.45" y2="268.6591" gradientTransform="matrix(1 0 0 -1 0 512)">
	<stop  offset="0" style="stop-color:#ED213A"/>
	<stop  offset="3.095973e-02" style="stop-color:#E92139"/>
	<stop  offset="0.3164" style="stop-color:#C4252D"/>
	<stop  offset="0.582" style="stop-color:#A92725"/>
	<stop  offset="0.8179" style="stop-color:#992820"/>
	<stop  offset="1" style="stop-color:#93291E"/>
</linearGradient>
<path class="st8" d="M139.4,243.3h-21.9c-4.1,0-7.5,3.3-7.5,7.5c0,4.1,3.3,7.5,7.5,7.5h21.9c4.1,0,7.5-3.3,7.5-7.5
	C146.9,246.7,143.5,243.3,139.4,243.3z"/>
<linearGradient id="SVGID_10_" gradientUnits="userSpaceOnUse" x1="65.65" y1="253.7" x2="65.65" y2="268.6591" gradientTransform="matrix(1 0 0 -1 0 512)">
	<stop  offset="0" style="stop-color:#ED213A"/>
	<stop  offset="3.095973e-02" style="stop-color:#E92139"/>
	<stop  offset="0.3164" style="stop-color:#C4252D"/>
	<stop  offset="0.582" style="stop-color:#A92725"/>
	<stop  offset="0.8179" style="stop-color:#992820"/>
	<stop  offset="1" style="stop-color:#93291E"/>
</linearGradient>
<path class="st9" d="M38.8,258.3h53.7c4.1,0,7.5-3.3,7.5-7.5c0-4.1-3.3-7.5-7.5-7.5H38.8c-4.1,0-7.5,3.3-7.5,7.5
	C31.3,255,34.7,258.3,38.8,258.3z"/>
<linearGradient id="SVGID_11_" gradientUnits="userSpaceOnUse" x1="319.2" y1="254.348" x2="319.2" y2="269.307" gradientTransform="matrix(1 0 0 -1 0 512)">
	<stop  offset="0" style="stop-color:#ED213A"/>
	<stop  offset="3.095973e-02" style="stop-color:#E92139"/>
	<stop  offset="0.3164" style="stop-color:#C4252D"/>
	<stop  offset="0.582" style="stop-color:#A92725"/>
	<stop  offset="0.8179" style="stop-color:#992820"/>
	<stop  offset="1" style="stop-color:#93291E"/>
</linearGradient>
<path class="st10" d="M337.2,242.7h-36c-4.1,0-7.5,3.3-7.5,7.5c0,4.1,3.3,7.5,7.5,7.5h36c4.1,0,7.5-3.3,7.5-7.5
	C344.7,246,341.4,242.7,337.2,242.7z"/>
<linearGradient id="SVGID_12_" gradientUnits="userSpaceOnUse" x1="425.1" y1="254.348" x2="425.1" y2="269.307" gradientTransform="matrix(1 0 0 -1 0 512)">
	<stop  offset="0" style="stop-color:#ED213A"/>
	<stop  offset="3.095973e-02" style="stop-color:#E92139"/>
	<stop  offset="0.3164" style="stop-color:#C4252D"/>
	<stop  offset="0.582" style="stop-color:#A92725"/>
	<stop  offset="0.8179" style="stop-color:#992820"/>
	<stop  offset="1" style="stop-color:#93291E"/>
</linearGradient>
<path class="st11" d="M399.7,257.7h50.8c4.1,0,7.5-3.3,7.5-7.5c0-4.1-3.3-7.5-7.5-7.5h-50.8c-4.1,0-7.5,3.3-7.5,7.5
	C392.2,254.3,395.6,257.7,399.7,257.7z"/>
<linearGradient id="SVGID_13_" gradientUnits="userSpaceOnUse" x1="368.5" y1="254.348" x2="368.5" y2="269.307" gradientTransform="matrix(1 0 0 -1 0 512)">
	<stop  offset="0" style="stop-color:#ED213A"/>
	<stop  offset="3.095973e-02" style="stop-color:#E92139"/>
	<stop  offset="0.3164" style="stop-color:#C4252D"/>
	<stop  offset="0.582" style="stop-color:#A92725"/>
	<stop  offset="0.8179" style="stop-color:#992820"/>
	<stop  offset="1" style="stop-color:#93291E"/>
</linearGradient>
<path class="st12" d="M374.3,242.7h-11.6c-4.1,0-7.5,3.3-7.5,7.5c0,4.1,3.3,7.5,7.5,7.5h11.6c4.1,0,7.5-3.3,7.5-7.5
	C381.8,246,378.4,242.7,374.3,242.7z"/>
<linearGradient id="SVGID_14_" gradientUnits="userSpaceOnUse" x1="319.3" y1="172.8509" x2="319.3" y2="187.806" gradientTransform="matrix(1 0 0 -1 0 512)">
	<stop  offset="0" style="stop-color:#ED213A"/>
	<stop  offset="3.095973e-02" style="stop-color:#E92139"/>
	<stop  offset="0.3164" style="stop-color:#C4252D"/>
	<stop  offset="0.582" style="stop-color:#A92725"/>
	<stop  offset="0.8179" style="stop-color:#992820"/>
	<stop  offset="1" style="stop-color:#93291E"/>
</linearGradient>
<path class="st13" d="M301.3,339.1h36c4.1,0,7.5-3.3,7.5-7.5c0-4.1-3.3-7.5-7.5-7.5h-36c-4.1,0-7.5,3.3-7.5,7.5
	C293.8,335.8,297.1,339.1,301.3,339.1z"/>
<linearGradient id="SVGID_15_" gradientUnits="userSpaceOnUse" x1="425.1" y1="172.8509" x2="425.1" y2="187.806" gradientTransform="matrix(1 0 0 -1 0 512)">
	<stop  offset="0" style="stop-color:#ED213A"/>
	<stop  offset="3.095973e-02" style="stop-color:#E92139"/>
	<stop  offset="0.3164" style="stop-color:#C4252D"/>
	<stop  offset="0.582" style="stop-color:#A92725"/>
	<stop  offset="0.8179" style="stop-color:#992820"/>
	<stop  offset="1" style="stop-color:#93291E"/>
</linearGradient>
<path class="st14" d="M399.7,339.1h50.8c4.1,0,7.5-3.3,7.5-7.5c0-4.1-3.3-7.5-7.5-7.5h-50.8c-4.1,0-7.5,3.3-7.5,7.5
	C392.2,335.8,395.6,339.1,399.7,339.1z"/>
<linearGradient id="SVGID_16_" gradientUnits="userSpaceOnUse" x1="368.4" y1="172.8509" x2="368.4" y2="187.806" gradientTransform="matrix(1 0 0 -1 0 512)">
	<stop  offset="0" style="stop-color:#ED213A"/>
	<stop  offset="3.095973e-02" style="stop-color:#E92139"/>
	<stop  offset="0.3164" style="stop-color:#C4252D"/>
	<stop  offset="0.582" style="stop-color:#A92725"/>
	<stop  offset="0.8179" style="stop-color:#992820"/>
	<stop  offset="1" style="stop-color:#93291E"/>
</linearGradient>
<path class="st15" d="M362.6,339.1h11.6c4.1,0,7.5-3.3,7.5-7.5c0-4.1-3.3-7.5-7.5-7.5h-11.6c-4.1,0-7.5,3.3-7.5,7.5
	C355.2,335.8,358.5,339.1,362.6,339.1z"/>
<linearGradient id="SVGID_17_" gradientUnits="userSpaceOnUse" x1="319.2" y1="91.3499" x2="319.2" y2="106.3051" gradientTransform="matrix(1 0 0 -1 0 512)">
	<stop  offset="0" style="stop-color:#ED213A"/>
	<stop  offset="3.095973e-02" style="stop-color:#E92139"/>
	<stop  offset="0.3164" style="stop-color:#C4252D"/>
	<stop  offset="0.582" style="stop-color:#A92725"/>
	<stop  offset="0.8179" style="stop-color:#992820"/>
	<stop  offset="1" style="stop-color:#93291E"/>
</linearGradient>
<path class="st16" d="M337.2,405.7h-36c-4.1,0-7.5,3.3-7.5,7.5c0,4.1,3.3,7.5,7.5,7.5h36c4.1,0,7.5-3.3,7.5-7.5
	S341.4,405.7,337.2,405.7z"/>
<linearGradient id="SVGID_18_" gradientUnits="userSpaceOnUse" x1="425.1" y1="91.3499" x2="425.1" y2="106.3051" gradientTransform="matrix(1 0 0 -1 0 512)">
	<stop  offset="0" style="stop-color:#ED213A"/>
	<stop  offset="3.095973e-02" style="stop-color:#E92139"/>
	<stop  offset="0.3164" style="stop-color:#C4252D"/>
	<stop  offset="0.582" style="stop-color:#A92725"/>
	<stop  offset="0.8179" style="stop-color:#992820"/>
	<stop  offset="1" style="stop-color:#93291E"/>
</linearGradient>
<path class="st17" d="M450.5,405.7h-50.8c-4.1,0-7.5,3.3-7.5,7.5c0,4.1,3.3,7.5,7.5,7.5h50.8c4.1,0,7.5-3.3,7.5-7.5
	S454.6,405.7,450.5,405.7z"/>
<linearGradient id="SVGID_19_" gradientUnits="userSpaceOnUse" x1="368.5" y1="91.3499" x2="368.5" y2="106.3051" gradientTransform="matrix(1 0 0 -1 0 512)">
	<stop  offset="0" style="stop-color:#ED213A"/>
	<stop  offset="3.095973e-02" style="stop-color:#E92139"/>
	<stop  offset="0.3164" style="stop-color:#C4252D"/>
	<stop  offset="0.582" style="stop-color:#A92725"/>
	<stop  offset="0.8179" style="stop-color:#992820"/>
	<stop  offset="1" style="stop-color:#93291E"/>
</linearGradient>
<path class="st18" d="M374.3,405.7h-11.6c-4.1,0-7.5,3.3-7.5,7.5c0,4.1,3.3,7.5,7.5,7.5h11.6c4.1,0,7.5-3.3,7.5-7.5
	S378.4,405.7,374.3,405.7z"/>
<linearGradient id="SVGID_20_" gradientUnits="userSpaceOnUse" x1="255.5" y1="0.5" x2="255.5" y2="511" gradientTransform="matrix(1 0 0 -1 0 512)">
	<stop  offset="0" style="stop-color:#ED213A"/>
	<stop  offset="3.095973e-02" style="stop-color:#E92139"/>
	<stop  offset="0.3164" style="stop-color:#C4252D"/>
	<stop  offset="0.582" style="stop-color:#A92725"/>
	<stop  offset="0.8179" style="stop-color:#992820"/>
	<stop  offset="1" style="stop-color:#93291E"/>
</linearGradient>
<path class="st19" d="M478.1,1H32.9C14.8,1,0,15.8,0,33.9v361.9c0,18.1,14.8,32.9,32.9,32.9H61c4.1,0,7.5-3.3,7.5-7.5
	c0-4.1-3.3-7.5-7.5-7.5H32.9c-9.9,0-18-8.1-18-18v-28.4h272.5v12.9h-5.9c-8.1,0-14.7,6.6-14.7,14.7v18.7H106.5
	c-4.1,0-7.5,3.3-7.5,7.5c0,4.1,3.3,7.5,7.5,7.5h71.9v26.8h-22.6c-15.1,0-27.3,12.3-27.3,27.3V499c0,6.9,5.6,12.5,12.5,12.5h228.4
	c6.9,0,12.5-5.6,12.5-12.5v-16.2c0-15.1-12.3-27.3-27.3-27.3H332V446h138.3c8.1,0,14.7-6.6,14.7-14.7v-3.5
	c14.6-3.4,25.5-16.5,25.5-32.1L511,33.9C511,15.8,496.2,1,478.1,1z M281.7,349.6v-35.8H470v35.8H281.7z M302.4,298.8v-15.7h147v15.7
	H302.4z M449.4,364.6v15.7h-147v-15.7H449.4z M193.4,428.7h73.4v2.7c0,8.1,6.6,14.7,14.7,14.7H317v9.5H193.4V428.7z M354.6,470.5
	c6.8,0,12.4,5.5,12.4,12.4v13.7H143.5v-13.7c0-6.8,5.5-12.4,12.4-12.4H354.6z M470,431.1H281.7v-35.8H470V431.1z M495.5,395.8
	c0,7.2-4.3,13.5-10.5,16.3V395c0-8.1-6.6-14.7-14.7-14.7h-5.9v-12.9h31.2v28.4H495.5z M495.5,352.4h-10.8c0.2-0.8,0.2-38.9,0.2-38.9
	c0-8.1-6.6-14.7-14.7-14.7h-5.9v-15.7h5.9c8.1,0,14.7-6.6,14.7-14.7V232c0-8.1-6.6-14.7-14.7-14.7H428c-4.1,0-7.5,3.3-7.5,7.5
	c0,4.1,3.3,7.5,7.5,7.5h42v35.8H281.7v-35.8h99.7c4.1,0,7.5-3.3,7.5-7.5c0-4.1-3.3-7.5-7.5-7.5h-100c-8.1,0-14.7,6.6-14.7,14.7v36.3
	c0,8.1,6.6,14.7,14.7,14.7h5.9v15.7h-5.9c-8.1,0-14.7,6.6-14.7,14.7c0,0,0.1,38.1,0.2,38.9H15V102.7h480.5V352.4z M495.5,87.8h-480
	V33.9c0-9.9,8.1-18,18-18h444.1c9.9,0,18,8.1,18,18v53.9H495.5z"/>
<linearGradient id="SVGID_21_" gradientUnits="userSpaceOnUse" x1="44.5481" y1="450.6631" x2="44.5481" y2="469.6733" gradientTransform="matrix(1 0 0 -1 0 512)">
	<stop  offset="0" style="stop-color:#ED213A"/>
	<stop  offset="3.095973e-02" style="stop-color:#E92139"/>
	<stop  offset="0.3164" style="stop-color:#C4252D"/>
	<stop  offset="0.582" style="stop-color:#A92725"/>
	<stop  offset="0.8179" style="stop-color:#992820"/>
	<stop  offset="1" style="stop-color:#93291E"/>
</linearGradient>
<path class="st20" d="M35.1,42.4h19v19h-19V42.4z"/>
<linearGradient id="SVGID_22_" gradientUnits="userSpaceOnUse" x1="82.6152" y1="450.6631" x2="82.6152" y2="469.6733" gradientTransform="matrix(1 0 0 -1 0 512)">
	<stop  offset="0" style="stop-color:#ED213A"/>
	<stop  offset="3.095973e-02" style="stop-color:#E92139"/>
	<stop  offset="0.3164" style="stop-color:#C4252D"/>
	<stop  offset="0.582" style="stop-color:#A92725"/>
	<stop  offset="0.8179" style="stop-color:#992820"/>
	<stop  offset="1" style="stop-color:#93291E"/>
</linearGradient>
<path class="st21" d="M73.1,42.4h19v19h-19V42.4z"/>
<linearGradient id="SVGID_23_" gradientUnits="userSpaceOnUse" x1="120.563" y1="450.6631" x2="120.563" y2="469.6733" gradientTransform="matrix(1 0 0 -1 0 512)">
	<stop  offset="0" style="stop-color:#ED213A"/>
	<stop  offset="3.095973e-02" style="stop-color:#E92139"/>
	<stop  offset="0.3164" style="stop-color:#C4252D"/>
	<stop  offset="0.582" style="stop-color:#A92725"/>
	<stop  offset="0.8179" style="stop-color:#992820"/>
	<stop  offset="1" style="stop-color:#93291E"/>
</linearGradient>
<path class="st22" d="M111.1,42.4h19v19h-19V42.4z"/>
</svg>
