<?xml version="1.0" encoding="utf-8"?>
<!-- Generator: Adobe Illustrator 25.0.1, SVG Export Plug-In . SVG Version: 6.00 Build 0)  -->
<svg version="1.1" id="Layer_1" xmlns="http://www.w3.org/2000/svg" xmlns:xlink="http://www.w3.org/1999/xlink" x="0px" y="0px"
	 viewBox="0 0 512 512" style="enable-background:new 0 0 512 512;" xml:space="preserve">
<style type="text/css">
	.st0{fill:url(#SVGID_1_);}
	.st1{fill:url(#SVGID_2_);}
	.st2{fill:url(#SVGID_3_);}
	.st3{fill:url(#SVGID_4_);}
	.st4{fill:url(#SVGID_5_);}
</style>
<g>
	<linearGradient id="SVGID_1_" gradientUnits="userSpaceOnUse" x1="256" y1="501.1188" x2="256" y2="10.8812">
		<stop  offset="0" style="stop-color:#EF9921"/>
		<stop  offset="0.4329" style="stop-color:#EF792F"/>
		<stop  offset="0.7998" style="stop-color:#F06035"/>
		<stop  offset="1" style="stop-color:#F15537"/>
	</linearGradient>
	<path class="st0" d="M263.3,105.9c2.9,0,4.8,0,6.8,0c40.4,0,80.9,0.8,121.2-0.3c30.3-0.8,62.5,21.7,62,62.3c-0.2,20.5,0,41,0,61.5
		c0,2,0,4,0,6.4c1.7,0.1,3.1,0.4,4.5,0.4c6.8,0,13.6,0,20.5,0c15,0.1,27.1,11.2,28.1,26.3c0.5,7.3,0.3,14.7,0.3,22
		c0,22-0.1,44,0.1,66c0.2,18.2-12.7,32.8-31.5,31.4c-5.5-0.4-11-0.1-16.5-0.1c-1.6,0-3.3,0-5.6,0c0,2.3,0,4.2,0,6.2
		c-0.1,19.3,0.5,38.7-0.6,58c-1.7,31.7-26.8,54.8-58.6,55c-33.4,0.2-66.9,0-100.3,0c-58.4,0-116.8,0-175.1,0
		c-29.3,0-52.7-18.4-58.7-46.5c-1.1-5.3-1.4-10.9-1.5-16.4c-0.2-18.5-0.1-37-0.1-56.3c-2.9,0-5.7,0-8.4,0c-5.3,0-10.6,0-16,0
		c-15.4,0-27.6-11-28.5-26.4c-0.6-10.3-0.4-20.7-0.4-31c0-19,0.1-38-0.1-57c-0.2-17.4,12-32.6,31.6-31.3c7,0.4,14,0.1,21.8,0.1
		c0-2,0-3.7,0-5.5c0.1-22.8-0.3-45.7,0.3-68.5c0.8-31.7,26.7-56.4,58.3-56.4c41.6,0,83.2,0,124.7,0c2,0,4,0,6.8,0
		c0-9.3,0.1-18.2-0.2-27.1c0-1-2.5-2.2-4-2.8c-21.1-8.2-28.8-33.7-15.5-51.6c8.6-11.5,23.2-16.3,36.9-12.1
		c13.5,4.1,22.9,16.4,23.4,30.4c0.5,15-7.4,27.8-21.2,32.8c-4,1.5-4.9,3.4-4.8,7.2C263.4,90.3,263.3,97.7,263.3,105.9z M256,120.6
		c-45.4,0-90.8,0-136.2,0c-27.6,0-46.4,18.6-46.5,46.3c-0.1,91-0.1,182,0,273c0,27.7,18.9,46.3,46.6,46.3c90.7,0,181.3,0,272,0
		c3.5,0,7-0.1,10.4-0.8c22.5-4.5,36.4-22.2,36.4-46.4c0.1-28.5,0-57,0-85.5c0-61.8-0.2-123.7,0.1-185.5c0.1-30.7-23.3-48.1-47-47.7
		C346.5,121.2,301.2,120.6,256,120.6z M58.3,251.1c-9.2,0-17.8-0.2-26.4,0.1c-4.9,0.2-8.5,3.4-10.2,7.8c-1.3,3.3-1.9,7.1-1.9,10.7
		c-0.2,26.3-0.1,52.6-0.1,79c0,2.5,0.1,5,0.7,7.4c1.4,5.5,4.6,10.3,10.4,10.8c9,0.7,18.1,0.2,27.4,0.2
		C58.3,328.3,58.3,290,58.3,251.1z M453.6,367.1c9.2,0,18,0.6,26.7-0.3c3.3-0.3,7.1-3.5,9.3-6.5c1.9-2.5,2.6-6.5,2.6-9.9
		c0.2-27.5,0.1-54.9,0.1-82.4c0-2-0.2-4-0.7-5.9c-1.5-5.5-4.7-10.2-10.5-10.7c-9-0.7-18.1-0.2-27.5-0.2
		C453.6,289.9,453.6,328.2,453.6,367.1z M255.9,25.7c-10.2,0-18.8,8.5-18.9,18.6c-0.1,10.1,8.4,18.8,18.5,19
		c10.4,0.2,19.1-8.5,19.1-18.9C274.6,34.2,266.1,25.7,255.9,25.7z"/>
	<linearGradient id="SVGID_2_" gradientUnits="userSpaceOnUse" x1="334.9233" y1="296.2777" x2="334.9233" y2="220.3066">
		<stop  offset="0" style="stop-color:#EF9921"/>
		<stop  offset="0.4329" style="stop-color:#EF792F"/>
		<stop  offset="0.7998" style="stop-color:#F06035"/>
		<stop  offset="1" style="stop-color:#F15537"/>
	</linearGradient>
	<path class="st1" d="M372.8,258.2c0.1,21.4-16.6,38.2-37.9,38.1c-20.9-0.1-37.8-16.9-37.9-37.8c-0.1-21,17.1-38.3,38.1-38.2
		C356,220.4,372.7,237.2,372.8,258.2z M358.1,258.5c0-12.8-10.2-23.2-22.9-23.5c-12.6-0.2-23.5,10.7-23.5,23.5
		c0.1,12.5,10.8,23.2,23.2,23.2C347.7,281.6,358.1,271.2,358.1,258.5z"/>
	<linearGradient id="SVGID_3_" gradientUnits="userSpaceOnUse" x1="184.8321" y1="296.278" x2="184.8321" y2="220.3065">
		<stop  offset="0" style="stop-color:#EF9921"/>
		<stop  offset="0.4329" style="stop-color:#EF792F"/>
		<stop  offset="0.7998" style="stop-color:#F06035"/>
		<stop  offset="1" style="stop-color:#F15537"/>
	</linearGradient>
	<path class="st2" d="M184.7,296.3c-21.2,0-37.9-16.8-37.8-38.2c0.1-20.9,17-37.8,37.8-37.8c20.9,0,38.2,17.4,38,38.3
		C222.5,279.5,205.6,296.3,184.7,296.3z M184.7,235c-12.5,0.1-23.1,10.7-23.2,23.3c0,12.7,11,23.6,23.6,23.4
		c12.6-0.3,23.2-11.1,23-23.5C207.9,245.6,197,234.9,184.7,235z"/>
	<linearGradient id="SVGID_4_" gradientUnits="userSpaceOnUse" x1="261.8747" y1="406.6172" x2="261.8747" y2="392.6992">
		<stop  offset="0" style="stop-color:#EF9921"/>
		<stop  offset="0.4329" style="stop-color:#EF792F"/>
		<stop  offset="0.7998" style="stop-color:#F06035"/>
		<stop  offset="1" style="stop-color:#F15537"/>
	</linearGradient>
	<path class="st3" d="M338.5,392.7c0,4.6,0,9,0,13.9c-50.9,0-101.8,0-153.2,0c0-4.5,0-9,0-13.9C236.3,392.7,287.2,392.7,338.5,392.7
		z"/>
</g>
</svg>
