<svg xmlns="http://www.w3.org/2000/svg" viewBox="0 0 501 500.99"><defs><style>.a{fill:#141414;}.b{fill:#e21928;}</style></defs><path class="a" d="M495.59,409.15H321.7a10.85,10.85,0,0,0-10.08,6.76l-8.49,20.6H208.67l-8.48-20.6a10.87,10.87,0,0,0-10.09-6.76H16.41A10.91,10.91,0,0,0,5.5,420v53.85A32.74,32.74,0,0,0,38.29,506.5H473.71a32.74,32.74,0,0,0,32.79-32.61V420A10.91,10.91,0,0,0,495.59,409.15Zm-10.91,64.74a10.76,10.76,0,0,1-11,10.78H38.29a10.76,10.76,0,0,1-11-10.78V431H182.79l8.48,20.6a10.89,10.89,0,0,0,10.09,6.76H310.44a10.89,10.89,0,0,0,10.09-6.76L329,431H484.68Z" transform="translate(-5.5 -5.51)"/><path class="a" d="M102.66,88.93l42.87,18v101l-.06.43a10.87,10.87,0,0,0,5.85,11.45,233.2,233.2,0,0,0,209.46,0,11,11,0,0,0,5.79-11.83l-.11-.53V106.89l42.88-18a11.06,11.06,0,0,0,0-20.14L260.21,6.35a11,11,0,0,0-8.42,0L102.66,68.79a11.06,11.06,0,0,0,0,20.14Zm242,114.43-3.28,1.45a211.18,211.18,0,0,1-170.74-.05l-3.28-1.45V116l84.44,35.36a11,11,0,0,0,8.42,0L344.65,116ZM256,28.25,376.87,78.86,256,129.48,135.13,78.86Z" transform="translate(-5.5 -5.51)"/><path class="a" d="M449.67,183V370.79h21.82V183c0-18-14.38-32.16-32.73-32.16H408.1v21.84h30.66C445,172.71,449.67,177.14,449.67,183Z" transform="translate(-5.5 -5.51)"/><path class="a" d="M103.9,150.87H73.36c-18.11,0-32.85,14.43-32.85,32.16V370.79H62.33V183c0-5.89,4.74-10.32,11-10.32H103.9Z" transform="translate(-5.5 -5.51)"/><rect class="a" x="185.32" y="280.62" width="187.41" height="16.38" rx="8.19"/><rect class="a" x="185.32" y="329.07" width="187.41" height="16.38" rx="8.19"/><rect class="b" x="117.21" y="280.62" width="35.65" height="16.38" rx="8.19"/><rect class="b" x="117.21" y="329.07" width="35.65" height="16.38" rx="8.19"/></svg>