<?xml version="1.0" encoding="utf-8"?>
<!-- Generator: Adobe Illustrator 25.0.1, SVG Export Plug-In . SVG Version: 6.00 Build 0)  -->
<svg version="1.1" id="Layer_1" xmlns="http://www.w3.org/2000/svg" xmlns:xlink="http://www.w3.org/1999/xlink" x="0px" y="0px"
	 viewBox="0 0 512 512" style="enable-background:new 0 0 512 512;" xml:space="preserve">
<style type="text/css">
	.st0{fill:url(#SVGID_1_);}
	.st1{fill:url(#SVGID_2_);}
	.st2{fill:url(#SVGID_3_);}
	.st3{fill:#ED213A;stroke:#000000;stroke-miterlimit:10;}
	.st4{fill:#93291E;stroke:#000000;stroke-miterlimit:10;}
</style>
<g id="database">
	
		<linearGradient id="SVGID_1_" gradientUnits="userSpaceOnUse" x1="132" y1="935.4" x2="132" y2="857" gradientTransform="matrix(1 0 0 1 0 -569)">
		<stop  offset="0" style="stop-color:#93291E"/>
		<stop  offset="5.803043e-02" style="stop-color:#A12822"/>
		<stop  offset="0.1987" style="stop-color:#BC252B"/>
		<stop  offset="0.3512" style="stop-color:#D22332"/>
		<stop  offset="0.519" style="stop-color:#E12236"/>
		<stop  offset="0.7139" style="stop-color:#EA2139"/>
		<stop  offset="1" style="stop-color:#ED213A"/>
	</linearGradient>
	<path class="st0" d="M104,344c0,7.7,1.6,15.3,4.7,22.4l14.6-6.4c-2.2-5-3.4-10.5-3.3-16c0-22.1,17.9-40,40-40v-16
		C129.1,288,104,313.1,104,344z"/>
	
		<linearGradient id="SVGID_2_" gradientUnits="userSpaceOnUse" x1="256.0184" y1="1065.1" x2="256.0184" y2="585" gradientTransform="matrix(1 0 0 1 0 -569)">
		<stop  offset="0" style="stop-color:#93291E"/>
		<stop  offset="5.803043e-02" style="stop-color:#A12822"/>
		<stop  offset="0.1987" style="stop-color:#BC252B"/>
		<stop  offset="0.3512" style="stop-color:#D22332"/>
		<stop  offset="0.519" style="stop-color:#E12236"/>
		<stop  offset="0.7139" style="stop-color:#EA2139"/>
		<stop  offset="1" style="stop-color:#ED213A"/>
	</linearGradient>
	<path class="st1" d="M496,248v-32c0-3.7-2.5-6.9-6.1-7.8l-10.3-2.6l5.5-9.2c1.8-3.2,1.4-7.1-1.2-9.8L461.3,164
		c-2.6-2.6-6.6-3-9.8-1.2l-9.2,5.5l-2.6-10.3c-0.9-3.6-4.1-6.1-7.8-6.1h-32c-3.7,0-6.9,2.5-7.8,6.1l-2.6,10.3l-9.2-5.5
		c-3.2-1.8-7.1-1.4-9.8,1.2l-22.6,22.6c-2.6,2.6-3,6.6-1.2,9.8l3.5,5.8c-7.4-1.5-14.9-2.3-22.4-2.3c-2.7,0-5.4,0.2-8,0.3V56h0.1
		C308.2,29.8,236.8,16,168,16C92.5,16,16,32.5,16,64v240c0,20.1,29.1,31.7,56.1,38.1c0,0.6-0.1,1.3-0.1,1.9c0,8.2,1.1,16.3,3.4,24.2
		c-35.3,2.5-61.8,33.1-59.3,68.4c2.4,33.6,30.3,59.5,64,59.5h352c35.3,0,64-28.7,64-64s-28.7-64-64-64h-7c9.9-17,15.1-36.3,15-56
		c0-2.1-0.2-4.1-0.2-6.1l2.6-10.3l9.2,5.5c3.2,1.8,7.1,1.4,9.8-1.2l22.6-22.6c2.6-2.6,3-6.6,1.2-9.8l-5.5-9.2l10.3-2.6
		C493.5,254.9,496,251.7,496,248z M168,32c88,0,136,21.1,136,32s-48,32-136,32S32,74.9,32,64S80,32,168,32z M32,86.6
		c26.3,16.7,81.3,25.4,136,25.4s109.7-8.7,136-25.4V144c0,10.9-48,32-136,32S32,154.9,32,144V86.6z M32,166.6
		c26.3,16.7,81.3,25.4,136,25.4s109.7-8.7,136-25.4v36.2c-28.8,6.4-53.8,23.9-69.8,48.6c-21.9,3.2-44,4.7-66.2,4.6
		c-88,0-136-21.1-136-32V166.6z M224.9,268.8c-1.6,3.8-3,7.6-4.2,11.5c-3.9-3.7-8.2-7-12.6-9.9C213.8,269.9,219.4,269.4,224.9,268.8
		z M73.8,326C43.4,318.5,32,309,32,304v-57.4c17.5,11.1,47.6,18.7,82.1,22.6C93.4,281.8,78.9,302.3,73.8,326z M432,384
		c26.5,0,48,21.5,48,48s-21.5,48-48,48H80c-26.5,0-48-21.5-48-48s21.5-48,48-48h6.7c2.7,0,5.2-1.4,6.7-3.6c1.4-2.3,1.7-5.1,0.6-7.6
		c-4-9.1-6.1-18.9-6.1-28.8c0-39.8,32.3-72,72-72c23.3,0,45.1,11.3,58.6,30.2c1.9,2.7,5.2,3.9,8.4,3.1s5.5-3.4,6-6.6
		c6.7-47.3,47.2-82.6,95-82.7c2.7,0,5.4,0.2,8,0.3V248c0,3.7,2.5,6.9,6.1,7.8l10.3,2.6l-5.5,9.2c-1.8,3.2-1.4,7.1,1.2,9.8l22.6,22.6
		c2.6,2.6,6.6,3,9.8,1.2l9.2-5.5l2.6,10.3c0.9,3.6,4.1,6.1,7.8,6.1h24c0.1,21.4-7.2,42.3-20.5,59c-2.7,3.5-2.1,8.5,1.3,11.2
		c1.4,1.1,3.2,1.7,5,1.7L432,384L432,384z M480,241.8l-14.7,3.7c-2.5,0.7-4.5,2.4-5.5,4.7c-0.9,2.4-0.7,5,0.6,7.2l7.8,13l-13.8,13.8
		l-13-7.8c-2.2-1.3-4.8-1.5-7.2-0.6c-2.3,1-4.1,3.1-4.7,5.5l-3.7,14.7h-19.5l-3.7-14.7c-0.7-2.5-2.4-4.5-4.7-5.5
		c-2.4-0.9-5-0.7-7.2,0.6l-13,7.8l-13.8-13.8l7.8-13c1.3-2.2,1.5-4.8,0.6-7.2c-1-2.3-3.1-4.1-5.5-4.7l-14.7-3.7v-19.5l14.7-3.7
		c2.5-0.7,4.5-2.4,5.5-4.7c0.9-2.4,0.7-5-0.6-7.2l-7.8-13l13.8-13.8l13,7.8c2.2,1.3,4.8,1.5,7.2,0.6c2.3-1,4.1-3.1,4.7-5.5l3.7-14.7
		h19.5l3.7,14.7c0.7,2.5,2.4,4.5,4.7,5.5c2.4,0.9,5,0.7,7.2-0.6l13-7.8l13.8,13.8l-7.8,13c-1.3,2.2-1.5,4.8-0.6,7.2
		c1,2.3,3.1,4.1,5.5,4.7l14.7,3.7V241.8z"/>
	
		<linearGradient id="SVGID_3_" gradientUnits="userSpaceOnUse" x1="416" y1="833" x2="416" y2="769" gradientTransform="matrix(1 0 0 1 0 -569)">
		<stop  offset="0" style="stop-color:#93291E"/>
		<stop  offset="5.803043e-02" style="stop-color:#A12822"/>
		<stop  offset="0.1987" style="stop-color:#BC252B"/>
		<stop  offset="0.3512" style="stop-color:#D22332"/>
		<stop  offset="0.519" style="stop-color:#E12236"/>
		<stop  offset="0.7139" style="stop-color:#EA2139"/>
		<stop  offset="1" style="stop-color:#ED213A"/>
	</linearGradient>
	<path class="st2" d="M416,200c-17.7,0-32,14.3-32,32s14.3,32,32,32s32-14.3,32-32S433.7,200,416,200z M416,248c-8.8,0-16-7.2-16-16
		s7.2-16,16-16s16,7.2,16,16S424.8,248,416,248z"/>
</g>
</svg>
