<?xml version="1.0" encoding="utf-8"?>
<!-- Generator: Adobe Illustrator 25.0.1, SVG Export Plug-In . SVG Version: 6.00 Build 0)  -->
<svg version="1.1" id="Layer_1" xmlns="http://www.w3.org/2000/svg" xmlns:xlink="http://www.w3.org/1999/xlink" x="0px" y="0px"
	 viewBox="0 0 512 512" style="enable-background:new 0 0 512 512;" xml:space="preserve">
<style type="text/css">
	.st0{fill:none;stroke:#000000;stroke-width:15;stroke-miterlimit:10;}
	.st1{fill:url(#SVGID_1_);}
	.st2{fill:none;stroke:url(#SVGID_2_);stroke-width:15;stroke-miterlimit:10;}
	.st3{fill:url(#SVGID_3_);}
	.st4{fill:url(#SVGID_4_);}
	.st5{fill:url(#SVGID_5_);}
	.st6{fill:#C31432;}
	.st7{fill:#660000;}
</style>
<linearGradient id="SVGID_1_" gradientUnits="userSpaceOnUse" x1="256" y1="331.3277" x2="256" y2="180.6723">
	<stop  offset="0" style="stop-color:#660000"/>
	<stop  offset="3.448999e-02" style="stop-color:#6D0204"/>
	<stop  offset="0.2009" style="stop-color:#8C0815"/>
	<stop  offset="0.3752" style="stop-color:#A40D22"/>
	<stop  offset="0.5588" style="stop-color:#B6112B"/>
	<stop  offset="0.7578" style="stop-color:#C01330"/>
	<stop  offset="1" style="stop-color:#C31432"/>
</linearGradient>
<path class="st1" d="M255.5,244.7c17.9-17.9,34.8-34.4,54.8-47.3c14.7-9.4,30.3-16.2,48-16.7c45.6-1.2,79.9,33.8,78,79.6
	c-1.9,48.4-51.3,81.9-98.5,66.8c-21.3-6.8-38.7-19.8-55.1-34.4c-4.7-4.2-9.3-8.6-13.9-12.9c-4.4-4.2-5.1-9.3-1.7-12.6
	c3.5-3.4,7.8-2.9,12.2,1.5c14.9,14.6,30.5,28.4,49.1,38.2c26.5,14,55.3,10.8,75-8.3c19.6-19,23.8-49.7,10.1-73.1
	c-14.3-24.5-42.8-35.5-70.3-27.3c-14.2,4.2-26.4,11.9-37.8,21c-16.6,13.2-31.3,28.3-45.7,43.9c-20.9,22.7-42.9,44.4-71.2,58.2
	c-21.9,10.7-44.7,14.2-67.4,3.3c-26.8-12.8-44.3-33.5-45.6-64.1c-1.3-30,13.1-63.1,50.5-75.7c2.2-0.7,4.5-1.4,6.6-2.2
	c5.3-1.9,10.1,0,11.3,4.7c1.3,4.9-1.4,8.9-6.9,10.2c-16.9,3.9-30.2,12.7-38.6,28.3c-20.5,37.7,0.6,82.1,42.7,89.5
	c17.9,3.1,33.9-3.1,49-11.8c16.2-9.3,29.5-22.2,43-34.8c4.4-4.1,8.3-8.6,12.9-13.6c-9.3-8.7-18.5-18.3-28.7-26.7
	c-9.7-8.1-20.3-15.1-30.7-22.3c-4.2-2.9-6-7-3.6-10.9c2.3-3.9,6.8-4.9,11.3-2.3c17.9,10.3,33.5,23.5,48.1,37.9
	C247.1,235.1,251.1,239.9,255.5,244.7z"/>
<linearGradient id="SVGID_2_" gradientUnits="userSpaceOnUse" x1="256" y1="436.8333" x2="256" y2="75.1667">
	<stop  offset="0" style="stop-color:#660000"/>
	<stop  offset="9.031695e-02" style="stop-color:#82060F"/>
	<stop  offset="0.1916" style="stop-color:#9A0B1C"/>
	<stop  offset="0.3075" style="stop-color:#AC0F26"/>
	<stop  offset="0.4445" style="stop-color:#B9122D"/>
	<stop  offset="0.6234" style="stop-color:#C11431"/>
	<stop  offset="1" style="stop-color:#C31432"/>
</linearGradient>
<path class="st2" d="M472,429.3H40c-10.7,0-19.3-8.7-19.3-19.3V102c0-10.7,8.7-19.3,19.3-19.3h432c10.7,0,19.3,8.7,19.3,19.3v308
	C491.3,420.7,482.7,429.3,472,429.3z"/>
</svg>
