<?xml version="1.0" encoding="utf-8"?>
<!-- Generator: Adobe Illustrator 25.0.1, SVG Export Plug-In . SVG Version: 6.00 Build 0)  -->
<svg version="1.1" id="Layer_1" xmlns="http://www.w3.org/2000/svg" xmlns:xlink="http://www.w3.org/1999/xlink" x="0px" y="0px"
	 viewBox="0 0 512 512" style="enable-background:new 0 0 512 512;" xml:space="preserve">
<style type="text/css">
	.st0{fill:url(#SVGID_1_);}
	.st1{fill:url(#SVGID_2_);}
	.st2{fill:url(#SVGID_3_);}
	.st3{fill:url(#SVGID_4_);}
	.st4{fill:url(#SVGID_5_);}
	.st5{fill:url(#SVGID_6_);}
	.st6{fill:url(#SVGID_7_);}
</style>
<g id="Report-Papers-Business-Graph-Financial">
	<linearGradient id="SVGID_1_" gradientUnits="userSpaceOnUse" x1="272" y1="496" x2="272" y2="48">
		<stop  offset="0" style="stop-color:#1D976C"/>
		<stop  offset="0.2524" style="stop-color:#209A6E"/>
		<stop  offset="0.4476" style="stop-color:#2AA373"/>
		<stop  offset="0.6236" style="stop-color:#3AB37D"/>
		<stop  offset="0.7883" style="stop-color:#52C98A"/>
		<stop  offset="0.9436" style="stop-color:#6FE69C"/>
		<stop  offset="1" style="stop-color:#7CF2A3"/>
	</linearGradient>
	<path class="st0" d="M373.7,50.3c-1.5-1.5-3.5-2.3-5.7-2.3H144c-18.2,0-34.2,12.3-38.7,30l15.5,4c2.7-10.6,12.3-18,23.2-18h216v40
		c0,13.3,10.7,24,24,24h40v328c0,13.3-10.7,24-24,24H144c-13.3,0-24-10.7-24-24V272h-16v184c0,22.1,17.9,40,40,40h256
		c22.1,0,40-17.9,40-40V120c0-2.1-0.8-4.2-2.3-5.7L373.7,50.3z M376,104V75.3l36.7,36.7H384C379.6,112,376,108.4,376,104z"/>
	<linearGradient id="SVGID_2_" gradientUnits="userSpaceOnUse" x1="310.75" y1="450.5" x2="310.75" y2="16">
		<stop  offset="0" style="stop-color:#1D976C"/>
		<stop  offset="0.2524" style="stop-color:#209A6E"/>
		<stop  offset="0.4476" style="stop-color:#2AA373"/>
		<stop  offset="0.6236" style="stop-color:#3AB37D"/>
		<stop  offset="0.7883" style="stop-color:#52C98A"/>
		<stop  offset="0.9436" style="stop-color:#6FE69C"/>
		<stop  offset="1" style="stop-color:#7CF2A3"/>
	</linearGradient>
	<path class="st1" d="M432,16H176c-9.7,0-19.2,3.6-26.5,10l10.6,12c4.4-3.9,10-6,15.9-6h256c13.3,0,24,10.7,24,24v368
		c0,5.8-2.1,11.5-6,15.9l12,10.6c6.4-7.3,10-16.7,10-26.5V56C472,33.9,454.1,16,432,16L432,16z"/>
	<linearGradient id="SVGID_3_" gradientUnits="userSpaceOnUse" x1="120" y1="224" x2="120" y2="128">
		<stop  offset="0" style="stop-color:#1D976C"/>
		<stop  offset="0.2524" style="stop-color:#209A6E"/>
		<stop  offset="0.4476" style="stop-color:#2AA373"/>
		<stop  offset="0.6236" style="stop-color:#3AB37D"/>
		<stop  offset="0.7883" style="stop-color:#52C98A"/>
		<stop  offset="0.9436" style="stop-color:#6FE69C"/>
		<stop  offset="1" style="stop-color:#7CF2A3"/>
	</linearGradient>
	<path class="st2" d="M128,224v-8c13.3,0,24-10.7,24-24s-10.7-24-24-24h-16c-4.4,0-8-3.6-8-8s3.6-8,8-8h16c4.4,0,8,3.6,8,8h16
		c0-13.3-10.7-24-24-24v-8h-16v8c-13.3,0-24,10.7-24,24s10.7,24,24,24h16c4.4,0,8,3.6,8,8s-3.6,8-8,8h-16c-4.4,0-8-3.6-8-8H88
		c0,13.3,10.7,24,24,24v8H128z"/>
	<linearGradient id="SVGID_4_" gradientUnits="userSpaceOnUse" x1="120" y1="256" x2="120" y2="96">
		<stop  offset="0" style="stop-color:#1D976C"/>
		<stop  offset="0.2524" style="stop-color:#209A6E"/>
		<stop  offset="0.4476" style="stop-color:#2AA373"/>
		<stop  offset="0.6236" style="stop-color:#3AB37D"/>
		<stop  offset="0.7883" style="stop-color:#52C98A"/>
		<stop  offset="0.9436" style="stop-color:#6FE69C"/>
		<stop  offset="1" style="stop-color:#7CF2A3"/>
	</linearGradient>
	<path class="st3" d="M200,176c0-44.2-35.8-80-80-80s-80,35.8-80,80s35.8,80,80,80S200,220.2,200,176z M56,176c0-35.3,28.7-64,64-64
		s64,28.7,64,64s-28.7,64-64,64S56,211.3,56,176z"/>
	<linearGradient id="SVGID_5_" gradientUnits="userSpaceOnUse" x1="244.8" y1="169.7" x2="244.8" y2="152.1">
		<stop  offset="0" style="stop-color:#1D976C"/>
		<stop  offset="0.2524" style="stop-color:#209A6E"/>
		<stop  offset="0.4476" style="stop-color:#2AA373"/>
		<stop  offset="0.6236" style="stop-color:#3AB37D"/>
		<stop  offset="0.7883" style="stop-color:#52C98A"/>
		<stop  offset="0.9436" style="stop-color:#6FE69C"/>
		<stop  offset="1" style="stop-color:#7CF2A3"/>
	</linearGradient>
	<path class="st4" d="M236,152.1h17.6v17.6H236V152.1z"/>
	<linearGradient id="SVGID_6_" gradientUnits="userSpaceOnUse" x1="320.55" y1="169.7" x2="320.55" y2="152.1">
		<stop  offset="0" style="stop-color:#1D976C"/>
		<stop  offset="0.2524" style="stop-color:#209A6E"/>
		<stop  offset="0.4476" style="stop-color:#2AA373"/>
		<stop  offset="0.6236" style="stop-color:#3AB37D"/>
		<stop  offset="0.7883" style="stop-color:#52C98A"/>
		<stop  offset="0.9436" style="stop-color:#6FE69C"/>
		<stop  offset="1" style="stop-color:#7CF2A3"/>
	</linearGradient>
	<path class="st5" d="M271.2,152.1h98.7v17.6h-98.7V152.1z"/>
	<linearGradient id="SVGID_7_" gradientUnits="userSpaceOnUse" x1="278" y1="410.1" x2="278" y2="246.9">
		<stop  offset="0" style="stop-color:#1D976C"/>
		<stop  offset="0.2524" style="stop-color:#209A6E"/>
		<stop  offset="0.4476" style="stop-color:#2AA373"/>
		<stop  offset="0.6236" style="stop-color:#3AB37D"/>
		<stop  offset="0.7883" style="stop-color:#52C98A"/>
		<stop  offset="0.9436" style="stop-color:#6FE69C"/>
		<stop  offset="1" style="stop-color:#7CF2A3"/>
	</linearGradient>
	<path class="st6" d="M175.9,328.5c-5.6,0-10.2,4.6-10.2,10.2v51h-20.4v20.4h265.4v-20.4h-20.4V257.1c0-5.6-4.6-10.2-10.2-10.2
		h-40.8c-5.6,0-10.2,4.6-10.2,10.2v132.7h-20.4v-91.9c0-5.6-4.6-10.2-10.2-10.2h-40.8c-5.6,0-10.2,4.6-10.2,10.2v91.9H227v-51
		c0-5.6-4.6-10.2-10.2-10.2L175.9,328.5L175.9,328.5z M349.4,267.3h20.4v122.5h-20.4V267.3z M267.8,308.1h20.4v81.7h-20.4V308.1z
		 M186.1,389.8V349h20.4v40.8H186.1z"/>
</g>
</svg>
