<?xml version="1.0" encoding="utf-8"?>
<!-- Generator: Adobe Illustrator 25.0.1, SVG Export Plug-In . SVG Version: 6.00 Build 0)  -->
<svg version="1.1" id="Layer_1" xmlns:svgjs="http://svgjs.com/svgjs"
	 xmlns="http://www.w3.org/2000/svg" xmlns:xlink="http://www.w3.org/1999/xlink" x="0px" y="0px" viewBox="0 0 512 512"
	 style="enable-background:new 0 0 512 512;" xml:space="preserve">
<style type="text/css">
	.st0{fill:none;stroke:url(#SVGID_1_);stroke-width:15;stroke-miterlimit:10;}
	.st1{fill:none;stroke:url(#SVGID_2_);stroke-width:15;stroke-miterlimit:10;}
	.st2{fill:none;stroke:url(#SVGID_3_);stroke-width:15;stroke-miterlimit:10;}
	.st3{fill:none;stroke:url(#SVGID_4_);stroke-width:15;stroke-miterlimit:10;}
	.st4{fill:none;stroke:url(#SVGID_5_);stroke-width:15;stroke-miterlimit:10;}
</style>
<g>
	<g>
		
			<linearGradient id="SVGID_1_" gradientUnits="userSpaceOnUse" x1="123.9954" y1="889.2631" x2="123.9954" y2="574.9989" gradientTransform="matrix(1 0 0 1 0 -566)">
			<stop  offset="0" style="stop-color:#0083B0"/>
			<stop  offset="1" style="stop-color:#00B4DB"/>
		</linearGradient>
		<path class="st0" d="M154.7,165.6c0,40.4,0,80.9,0,121.2c0,13-8.9,24.2-21.8,27.8c-19.4,5.4-38.9-7.8-39.4-26.7c0-0.9,0-2,0-2.9
			c0-79.3,0-158.7,0-238c0-1.4-0.8-3.1,1.3-4.2c0.5-0.3,0.3-1.5,0.4-2.3c1.6-11,8-18.9,19.1-23.3c1.1-0.4,2.5-0.7,3.7-0.7
			c3.8-0.1,7.6,0.2,11.4-0.1c5.1-0.3,9.1,1.4,12.9,4.2c8.2,5.9,12.4,13.9,12.4,23.5C154.7,84.6,154.7,125.1,154.7,165.6z"/>
		
			<linearGradient id="SVGID_2_" gradientUnits="userSpaceOnUse" x1="303.548" y1="889.2631" x2="303.548" y2="628.5" gradientTransform="matrix(1 0 0 1 0 -566)">
			<stop  offset="0" style="stop-color:#0083B0"/>
			<stop  offset="1" style="stop-color:#00B4DB"/>
		</linearGradient>
		<path class="st1" d="M334,192.6c0,31.3,0,62.5,0,93.7c0,13.8-9.3,25.1-23.1,28.5c-19.4,4.7-37.9-8.6-37.9-27.3
			c-0.1-62.2,0-124.4,0-186.7c2.5-6.9,2.9-14.5,8.5-20.3c5.6-5.8,12.2-9.5,20.6-10.3c16.7-1.7,30.9,9.5,31.9,25.5
			c0.1,1.9,0.2,3.7,0.2,5.6C334,131.7,334,162.2,334,192.6z"/>
		
			<linearGradient id="SVGID_3_" gradientUnits="userSpaceOnUse" x1="211.4953" y1="889.2631" x2="211.4953" y2="674.5" gradientTransform="matrix(1 0 0 1 0 -566)">
			<stop  offset="0" style="stop-color:#0083B0"/>
			<stop  offset="1" style="stop-color:#00B4DB"/>
		</linearGradient>
		<path class="st2" d="M181,216.3c0-22.7,0-45.4,0-68.1c0-15.9,10.5-28.7,25.5-31.7c18.2-3.5,35.4,10.8,35.5,30
			c0.2,46.2,0.1,92.5,0,138.7c0,16.6-14.1,30.6-30.3,30.6c-17,0.1-30.4-12.8-30.6-30.1C180.8,262.6,181,239.4,181,216.3L181,216.3z"
			/>
		
			<linearGradient id="SVGID_4_" gradientUnits="userSpaceOnUse" x1="388.7248" y1="889.2631" x2="388.7248" y2="708.9528" gradientTransform="matrix(1 0 0 1 0 -566)">
			<stop  offset="0" style="stop-color:#0083B0"/>
			<stop  offset="1" style="stop-color:#00B4DB"/>
		</linearGradient>
		<path class="st3" d="M418.6,232.9c0,16.3-0.3,32.5,0.1,48.8c0.2,9.5-2.9,16.8-8,22.9c-9.1,10.9-20.1,14-31.9,8.5
			c-11.9-5.6-18.4-16.9-19.8-32.7c-0.1-1.4-0.2-2.9-0.2-4.3c0-28.7,0-57.4,0-86.2c0-17.9,8.6-32.9,21.8-37.8
			c15.1-5.7,31.3,3.6,37,21.3c0.6,1.7,0.9,3.9,0.9,5.9C418.6,197.2,418.6,215.1,418.6,232.9z"/>
	</g>
	
		<linearGradient id="SVGID_5_" gradientUnits="userSpaceOnUse" x1="256" y1="27.6" x2="256" y2="326.9" gradientTransform="matrix(1 0 0 -1 0 514)">
		<stop  offset="0" style="stop-color:#0083B0"/>
		<stop  offset="1" style="stop-color:#00B4DB"/>
	</linearGradient>
	<path class="st4" d="M439,194.6h34.8c13.1,0,23.8,11.5,23.8,25.7v232.9c0,14.2-10.6,25.7-23.8,25.7H38.2
		c-13.1,0-23.8-11.5-23.8-25.7V220.4c0-14.2,10.6-25.7,23.8-25.7H68"/>
</g>
</svg>
