<?xml version="1.0" encoding="utf-8"?>
<!-- Generator: Adobe Illustrator 25.0.1, SVG Export Plug-In . SVG Version: 6.00 Build 0)  -->
<svg version="1.1" id="Layer_1" xmlns="http://www.w3.org/2000/svg" xmlns:xlink="http://www.w3.org/1999/xlink" x="0px" y="0px"
	 viewBox="0 0 512 512" style="enable-background:new 0 0 512 512;" xml:space="preserve">
<style type="text/css">
	.st0{fill:url(#SVGID_1_);}
</style>
<g id="cloud_computing-storage-database-cloudserver-cloud">
	<linearGradient id="SVGID_1_" gradientUnits="userSpaceOnUse" x1="255.6911" y1="496.0027" x2="255.6911" y2="15.7174">
		<stop  offset="0" style="stop-color:#FF416C"/>
		<stop  offset="1" style="stop-color:#FF6955"/>
	</linearGradient>
	<path class="st0" d="M496,224c0.2-114.9-92.8-208.1-207.7-208.3C173.4,15.6,80.2,108.6,80,223.4c0,33.8,8.2,67.2,23.9,97.1
		c-6.1,9.7-10.6,20.4-13.2,31.5c-39.7-1.8-73.4,28.9-75.3,68.6s28.9,73.4,68.6,75.3c1.3,0.1,2.6,0.1,4,0.1h208
		c39.7-0.1,71.9-32.3,72-72c0-2.6-0.2-5.3-0.5-7.9C445.1,383.7,495.7,308,496,224z M480,224c-0.1,45.4-16.4,89.4-45.8,124
		L299.5,223.8L429.2,94.1C461.9,129.4,480,175.8,480,224z M296,32.2c45.4,1.8,88.6,19.8,121.9,50.6L296,204.7V32.2z M296,480H88
		c-30.9,0-56-25.1-56-56s25.1-56,56-56c2.7,0,5.5,0.2,8.2,0.6c4.3,0.6,8.3-2.4,9-6.6c7.7-48,52.9-80.6,100.9-72.9
		c37.5,6,66.8,35.4,72.9,72.9c0.7,4.3,4.7,7.2,9,6.6c2.7-0.4,5.4-0.6,8.2-0.6c30.9,0,56,25.1,56,56S326.9,480,296,480z M363.9,400.2
		c-10.4-29.9-39.1-49.4-70.6-48.2c-13.3-56-69.6-90.6-125.6-77.2c-20.5,4.9-39,15.9-53.1,31.5c-45.5-95.7-4.7-210.2,91-255.7
		c23.3-11.1,48.6-17.3,74.4-18.4v195.3l143.4,132.2C406.3,376.9,386.1,390.7,363.9,400.2L363.9,400.2z"/>
</g>
</svg>
