<?xml version="1.0" encoding="utf-8"?>
<!-- Generator: Adobe Illustrator 25.0.1, SVG Export Plug-In . SVG Version: 6.00 Build 0)  -->
<svg version="1.1" id="outline" xmlns="http://www.w3.org/2000/svg" xmlns:xlink="http://www.w3.org/1999/xlink" x="0px" y="0px"
	 viewBox="0 0 512 512" style="enable-background:new 0 0 512 512;" xml:space="preserve">
<style type="text/css">
	.st0{fill:url(#SVGID_1_);}
	.st1{fill:url(#SVGID_2_);}
	.st2{fill:url(#SVGID_3_);}
	.st3{fill:url(#SVGID_4_);}
	.st4{fill:url(#SVGID_5_);}
	.st5{fill:url(#SVGID_6_);}
	.st6{fill:url(#SVGID_7_);}
	.st7{fill:url(#SVGID_8_);}
</style>
<linearGradient id="SVGID_1_" gradientUnits="userSpaceOnUse" x1="110.3943" y1="163.6" x2="110.3943" y2="224.4" gradientTransform="matrix(1 0 0 -1 0 514)">
	<stop  offset="0" style="stop-color:#007991"/>
	<stop  offset="1" style="stop-color:#78FFD6"/>
</linearGradient>
<path class="st0" d="M123.2,289.6l-32,24c-3.5,2.7-4.3,7.7-1.6,11.2c0.5,0.6,1,1.1,1.6,1.6l32,24l9.6-12.8L109.3,320l23.5-17.6
	L123.2,289.6z"/>
<linearGradient id="SVGID_2_" gradientUnits="userSpaceOnUse" x1="225.6057" y1="163.6" x2="225.6057" y2="224.4" gradientTransform="matrix(1 0 0 -1 0 514)">
	<stop  offset="0" style="stop-color:#007991"/>
	<stop  offset="1" style="stop-color:#78FFD6"/>
</linearGradient>
<path class="st1" d="M244.8,313.6l-32-24l-9.6,12.8l23.5,17.6l-23.5,17.6l9.6,12.8l32-24c3.5-2.7,4.3-7.7,1.6-11.2
	C245.9,314.6,245.4,314.1,244.8,313.6z"/>
<linearGradient id="SVGID_3_" gradientUnits="userSpaceOnUse" x1="168" y1="134.6" x2="168" y2="245.4" gradientTransform="matrix(1 0 0 -1 0 514)">
	<stop  offset="0" style="stop-color:#007991"/>
	<stop  offset="1" style="stop-color:#78FFD6"/>
</linearGradient>
<polygon class="st2" points="136.7,372.6 184.7,268.6 199.3,275.4 151.3,379.4 "/>
<linearGradient id="SVGID_4_" gradientUnits="userSpaceOnUse" x1="256" y1="18" x2="256" y2="498.0403" gradientTransform="matrix(1 0 0 -1 0 514)">
	<stop  offset="0" style="stop-color:#007991"/>
	<stop  offset="1" style="stop-color:#78FFD6"/>
</linearGradient>
<path class="st3" d="M488,104h-14.3c-3.6,0-6.5-2.9-6.5-6.5c0-1.7,0.7-3.4,1.9-4.6l10.1-10.1c3.1-3.1,3.1-8.2,0-11.3l0,0l-22.6-22.6
	c-3.1-3.1-8.2-3.1-11.3,0L435.2,59c-2.6,2.6-6.7,2.6-9.2,0c-1.2-1.2-1.9-2.9-1.9-4.6V40c0-4.4-3.6-8-8-8h-32c-4.4,0-8,3.6-8,8v14.3
	c0,3.6-2.9,6.5-6.5,6.5c-1.7,0-3.4-0.7-4.6-1.9l-10.1-10.1c-3.1-3.1-8.2-3.1-11.3,0L321,71.4c-3.1,3.1-3.1,8.2,0,11.3l0,0l10.1,10.1
	l0,0c2.6,2.6,2.5,6.7,0,9.2c-1.2,1.2-2.9,1.9-4.6,1.9H312c-4.4,0-8,3.6-8,8v8h-40.8c-3.8-18.6-20.2-32-39.2-32h-8
	c0-22.1-17.9-40-40-40h-18.8C148.4,23,121,9.9,96,18.7c-19.2,6.8-32,25-32,45.3v8c-26.5,0-48,21.5-48,48s21.5,48,48,48h160
	c19,0,35.4-13.4,39.2-32H304v8c0,4.4,3.6,8,8,8h14.3c3.6,0,6.5,2.9,6.5,6.5c0,1.7-0.7,3.4-1.9,4.6l-10.1,10.1
	c-3.1,3.1-3.1,8.2,0,11.3l0,0l22.6,22.6c3.1,3.1,8.2,3.1,11.3,0l10.1-10.1c2.6-2.6,6.7-2.6,9.2,0c1.2,1.2,1.9,2.9,1.9,4.6V216
	c0,4.4,3.6,8,8,8h8v81.4c-6.8,2.4-12.2,7.8-14.6,14.6H320V208c0-13.2-10.8-24-24-24H40c-13.2,0-24,10.8-24,24v184
	c0,13.2,10.8,24,24,24h88v40h-16c-4.4,0-8,3.6-8,8v24c0,4.4,3.6,8,8,8h112c4.4,0,8-3.6,8-8v-24c0-4.4-3.6-8-8-8h-16v-40h88
	c13.2,0,24-10.8,24-24v-56h57.4c4.4,12.5,18.1,19,30.6,14.6s19-18.1,14.6-30.6c-2.4-6.8-7.8-12.2-14.6-14.6V224h8c4.4,0,8-3.6,8-8
	v-14.3c0-3.6,2.9-6.5,6.5-6.5c1.7,0,3.4,0.7,4.6,1.9l10.1,10.1c3.1,3.1,8.2,3.1,11.3,0l22.6-22.6c3.1-3.1,3.1-8.2,0-11.3l0,0
	L469,163.2c-2.6-2.6-2.6-6.7,0-9.2c1.2-1.2,2.9-1.9,4.6-1.9H488c4.4,0,8-3.6,8-8v-32C496,107.6,492.4,104,488,104z M224,152H64
	c-17.7,0-32-14.3-32-32s14.3-32,32-32h32V72H80v-8c0-17.7,14.3-32,32-32s32,14.3,32,32v24h16V64h16c13.2,0,24,10.8,24,24v8
	c0,4.4,3.6,8,8,8h16c13.3,0,24,10.7,24,24S237.3,152,224,152z M40,200h256c4.4,0,8,3.6,8,8v24H32v-24C32,203.6,35.6,200,40,200z
	 M216,480h-96v-8h96V480z M192,456h-48v-40h16v16c0,4.4,3.6,8,8,8s8-3.6,8-8v-16h16V456z M296,400H40c-4.4,0-8-3.6-8-8V248h272v144
	C304,396.4,300.4,400,296,400z M400,336c-4.4,0-8-3.6-8-8s3.6-8,8-8s8,3.6,8,8S404.4,336,400,336z M480,136h-6.3
	c-12.4,0-22.5,10.1-22.5,22.5c0,6,2.4,11.7,6.6,15.9l4.4,4.4l-11.3,11.3l-4.4-4.4c-8.8-8.8-23.1-8.8-31.9,0
	c-4.2,4.2-6.6,10-6.6,15.9v6.3h-16v-6.3c0-12.4-10.1-22.5-22.5-22.5c-6,0-11.7,2.4-15.9,6.6l-4.4,4.4l-11.3-11.3l4.4-4.4
	c8.8-8.8,8.8-23.1,0-31.9c-4.2-4.2-10-6.6-15.9-6.6H320v-16h6.3c12.4,0,22.5-10.1,22.5-22.5c0-6-2.4-11.7-6.6-15.9l-4.4-4.4
	l11.3-11.3l4.4,4.4c8.8,8.8,23.1,8.8,31.9,0c4.2-4.2,6.6-10,6.6-15.9V48h16v6.3c0,12.4,10.1,22.5,22.5,22.5c6,0,11.7-2.4,15.9-6.6
	l4.4-4.4l11.3,11.3l-4.4,4.4c-8.8,8.8-8.8,23.1,0,31.9c4.2,4.2,10,6.6,15.9,6.6h6.3v16H480z"/>
<linearGradient id="SVGID_5_" gradientUnits="userSpaceOnUse" x1="400" y1="160" x2="400" y2="96">
	<stop  offset="0" style="stop-color:#007991"/>
	<stop  offset="1" style="stop-color:#78FFD6"/>
</linearGradient>
<path class="st4" d="M400,96c-17.7,0-32,14.3-32,32s14.3,32,32,32s32-14.3,32-32S417.7,96,400,96z M400,144c-8.8,0-16-7.2-16-16
	s7.2-16,16-16s16,7.2,16,16S408.8,144,400,144z"/>
<linearGradient id="SVGID_6_" gradientUnits="userSpaceOnUse" x1="40" y1="216" x2="56" y2="216">
	<stop  offset="0" style="stop-color:#007991"/>
	<stop  offset="1" style="stop-color:#78FFD6"/>
</linearGradient>
<circle class="st5" cx="48" cy="216" r="8"/>
<linearGradient id="SVGID_7_" gradientUnits="userSpaceOnUse" x1="64" y1="216" x2="80" y2="216">
	<stop  offset="0" style="stop-color:#007991"/>
	<stop  offset="1" style="stop-color:#78FFD6"/>
</linearGradient>
<circle class="st6" cx="72" cy="216" r="8"/>
<linearGradient id="SVGID_8_" gradientUnits="userSpaceOnUse" x1="88" y1="216" x2="104" y2="216">
	<stop  offset="0" style="stop-color:#007991"/>
	<stop  offset="1" style="stop-color:#78FFD6"/>
</linearGradient>
<circle class="st7" cx="96" cy="216" r="8"/>
</svg>
