<?xml version="1.0" encoding="utf-8"?>
<!-- Generator: Adobe Illustrator 25.0.1, SVG Export Plug-In . SVG Version: 6.00 Build 0)  -->
<svg version="1.1" id="Layer_1" xmlns="http://www.w3.org/2000/svg" xmlns:xlink="http://www.w3.org/1999/xlink" x="0px" y="0px"
	 viewBox="0 0 512 512" style="enable-background:new 0 0 512 512;" xml:space="preserve">
<style type="text/css">
	.st0{fill:url(#SVGID_1_);}
	.st1{fill:url(#SVGID_2_);}
	.st2{fill:url(#SVGID_3_);}
	.st3{fill:url(#SVGID_4_);}
	.st4{fill:url(#SVGID_5_);}
	.st5{fill:url(#SVGID_6_);}
	.st6{fill:url(#SVGID_7_);}
	.st7{fill:url(#SVGID_8_);}
	.st8{fill:url(#SVGID_9_);}
	.st9{fill:url(#SVGID_10_);}
	.st10{fill:url(#SVGID_11_);}
	.st11{fill:url(#SVGID_12_);}
	.st12{fill:url(#SVGID_13_);}
</style>
<g>
	
		<linearGradient id="SVGID_1_" gradientUnits="userSpaceOnUse" x1="104" y1="1064.5941" x2="104" y2="309.93" gradientTransform="matrix(1 0 0 1 0 -566)">
		<stop  offset="0" style="stop-color:#5D26C1"/>
		<stop  offset="1" style="stop-color:#A17FE0"/>
	</linearGradient>
	<path class="st0" d="M104,232c-13.3,0-24,10.7-24,24c0,13.3,10.7,24,24,24s24-10.7,24-24C128,242.8,117.2,232,104,232z M104,264
		c-4.4,0-8-3.6-8-8s3.6-8,8-8s8,3.6,8,8S108.4,264,104,264z"/>
	
		<linearGradient id="SVGID_2_" gradientUnits="userSpaceOnUse" x1="160" y1="1104.2013" x2="160" y2="349.5372" gradientTransform="matrix(1 0 0 1 0 -566)">
		<stop  offset="0" style="stop-color:#5D26C1"/>
		<stop  offset="1" style="stop-color:#A17FE0"/>
	</linearGradient>
	<path class="st1" d="M160,232c-13.3,0-24,10.7-24,24c0,13.3,10.7,24,24,24s24-10.7,24-24C184,242.8,173.2,232,160,232z M160,264
		c-4.4,0-8-3.6-8-8s3.6-8,8-8s8,3.6,8,8S164.4,264,160,264z"/>
	
		<linearGradient id="SVGID_3_" gradientUnits="userSpaceOnUse" x1="216" y1="1143.8085" x2="216" y2="389.1443" gradientTransform="matrix(1 0 0 1 0 -566)">
		<stop  offset="0" style="stop-color:#5D26C1"/>
		<stop  offset="1" style="stop-color:#A17FE0"/>
	</linearGradient>
	<path class="st2" d="M216,232c-13.3,0-24,10.7-24,24c0,13.3,10.7,24,24,24s24-10.7,24-24C240,242.8,229.2,232,216,232z M216,264
		c-4.4,0-8-3.6-8-8s3.6-8,8-8s8,3.6,8,8S220.4,264,216,264z"/>
	
		<linearGradient id="SVGID_4_" gradientUnits="userSpaceOnUse" x1="368" y1="996.8595" x2="368" y2="689.4888" gradientTransform="matrix(1 0 0 1 0 -566)">
		<stop  offset="0" style="stop-color:#5D26C1"/>
		<stop  offset="1" style="stop-color:#A17FE0"/>
	</linearGradient>
	<path class="st3" d="M304,240v32c0,4.4,3.6,8,8,8h112c4.4,0,8-3.6,8-8v-32c0-4.4-3.6-8-8-8H312C307.6,232,304,235.6,304,240z
		 M320,248h96v16h-96V248z"/>
	
		<linearGradient id="SVGID_5_" gradientUnits="userSpaceOnUse" x1="104" y1="1109.0889" x2="104" y2="354.4246" gradientTransform="matrix(1 0 0 1 0 -566)">
		<stop  offset="0" style="stop-color:#5D26C1"/>
		<stop  offset="1" style="stop-color:#A17FE0"/>
	</linearGradient>
	<path class="st4" d="M104,384c-13.3,0-24,10.7-24,24s10.7,24,24,24s24-10.7,24-24C128,394.8,117.2,384,104,384z M104,416
		c-4.4,0-8-3.6-8-8s3.6-8,8-8s8,3.6,8,8S108.4,416,104,416z"/>
	
		<linearGradient id="SVGID_6_" gradientUnits="userSpaceOnUse" x1="160" y1="1148.696" x2="160" y2="394.0319" gradientTransform="matrix(1 0 0 1 0 -566)">
		<stop  offset="0" style="stop-color:#5D26C1"/>
		<stop  offset="1" style="stop-color:#A17FE0"/>
	</linearGradient>
	<path class="st5" d="M160,384c-13.3,0-24,10.7-24,24s10.7,24,24,24s24-10.7,24-24C184,394.8,173.2,384,160,384z M160,416
		c-4.4,0-8-3.6-8-8s3.6-8,8-8s8,3.6,8,8S164.4,416,160,416z"/>
	
		<linearGradient id="SVGID_7_" gradientUnits="userSpaceOnUse" x1="216" y1="1188.3033" x2="216" y2="433.6391" gradientTransform="matrix(1 0 0 1 0 -566)">
		<stop  offset="0" style="stop-color:#5D26C1"/>
		<stop  offset="1" style="stop-color:#A17FE0"/>
	</linearGradient>
	<path class="st6" d="M216,384c-13.3,0-24,10.7-24,24s10.7,24,24,24s24-10.7,24-24C240,394.8,229.2,384,216,384z M216,416
		c-4.4,0-8-3.6-8-8s3.6-8,8-8s8,3.6,8,8S220.4,416,216,416z"/>
	
		<linearGradient id="SVGID_8_" gradientUnits="userSpaceOnUse" x1="368" y1="1105.0732" x2="368" y2="797.7025" gradientTransform="matrix(1 0 0 1 0 -566)">
		<stop  offset="0" style="stop-color:#5D26C1"/>
		<stop  offset="1" style="stop-color:#A17FE0"/>
	</linearGradient>
	<path class="st7" d="M304,392v32c0,4.4,3.6,8,8,8h112c4.4,0,8-3.6,8-8v-32c0-4.4-3.6-8-8-8H312C307.6,384,304,387.6,304,392z
		 M320,400h96v16h-96V400z"/>
	
		<linearGradient id="SVGID_9_" gradientUnits="userSpaceOnUse" x1="256" y1="1129.2277" x2="256" y2="466.9871" gradientTransform="matrix(1 0 0 1 0 -566)">
		<stop  offset="0" style="stop-color:#5D26C1"/>
		<stop  offset="1" style="stop-color:#A17FE0"/>
	</linearGradient>
	<path class="st8" d="M428,168c15.5,0,28-12.5,28-28V68c0-15.5-12.5-28-28-28H288V16c0-4.4-3.6-8-8-8h-48c-4.4,0-8,3.6-8,8v24H84
		c-15.5,0-28,12.5-28,28v72c0,15.5,12.5,28,28,28h4v24h-4c-15.5,0-28,12.5-28,28v72c0,15.5,12.5,28,28,28h4v24h-4
		c-15.5,0-28,12.5-28,28v72c0,15.5,12.5,28,28,28h140v24c0,4.4,3.6,8,8,8h48c4.4,0,8-3.6,8-8v-24h140c15.5,0,28-12.5,28-28v-72
		c0-15.5-12.5-28-28-28h-4v-24h4c15.5,0,28-12.5,28-28v-72c0-15.5-12.5-28-28-28h-4v-24H428z M240,24h32v16h-32V24z M272,488h-32
		v-16h32V488z M428,360c6.6,0,12,5.4,12,12v72c0,6.6-5.4,12-12,12H84c-6.6,0-12-5.4-12-12v-72c0-6.6,5.4-12,12-12H428z M104,344v-24
		h304v24H104z M428,208c6.6,0,12,5.4,12,12v72c0,6.6-5.4,12-12,12H84c-6.6,0-12-5.4-12-12v-72c0-6.6,5.4-12,12-12H428z M104,192v-24
		h304v24H104z M84,152c-6.6,0-12-5.4-12-12V68c0-6.6,5.4-12,12-12h344c6.6,0,12,5.4,12,12v72c0,6.6-5.4,12-12,12H84z"/>
	
		<linearGradient id="SVGID_10_" gradientUnits="userSpaceOnUse" x1="104" y1="1020.0235" x2="104" y2="265.5349" gradientTransform="matrix(1 0 0 1 0 -566)">
		<stop  offset="0" style="stop-color:#5D26C1"/>
		<stop  offset="1" style="stop-color:#A17FE0"/>
	</linearGradient>
	<path class="st9" d="M128,104c0-13.3-10.7-24-24-24s-24,10.7-24,24s10.7,24,24,24C117.2,128,128,117.2,128,104z M96,104
		c0-4.4,3.6-8,8-8s8,3.6,8,8s-3.6,8-8,8S96,108.4,96,104z"/>
	
		<linearGradient id="SVGID_11_" gradientUnits="userSpaceOnUse" x1="160" y1="1059.7177" x2="160" y2="305.0536" gradientTransform="matrix(1 0 0 1 0 -566)">
		<stop  offset="0" style="stop-color:#5D26C1"/>
		<stop  offset="1" style="stop-color:#A17FE0"/>
	</linearGradient>
	<path class="st10" d="M160,128c13.3,0,24-10.7,24-24s-10.7-24-24-24s-24,10.7-24,24C136,117.2,146.8,128,160,128z M160,96
		c4.4,0,8,3.6,8,8s-3.6,8-8,8s-8-3.6-8-8S155.6,96,160,96z"/>
	
		<linearGradient id="SVGID_12_" gradientUnits="userSpaceOnUse" x1="216" y1="1099.325" x2="216" y2="344.6608" gradientTransform="matrix(1 0 0 1 0 -566)">
		<stop  offset="0" style="stop-color:#5D26C1"/>
		<stop  offset="1" style="stop-color:#A17FE0"/>
	</linearGradient>
	<path class="st11" d="M216,128c13.3,0,24-10.7,24-24s-10.7-24-24-24s-24,10.7-24,24C192,117.2,202.8,128,216,128z M216,96
		c4.4,0,8,3.6,8,8s-3.6,8-8,8s-8-3.6-8-8S211.6,96,216,96z"/>
	
		<linearGradient id="SVGID_13_" gradientUnits="userSpaceOnUse" x1="368" y1="888.6458" x2="368" y2="581.2751" gradientTransform="matrix(1 0 0 1 0 -566)">
		<stop  offset="0" style="stop-color:#5D26C1"/>
		<stop  offset="1" style="stop-color:#A17FE0"/>
	</linearGradient>
	<path class="st12" d="M312,128h112c4.4,0,8-3.6,8-8V88c0-4.4-3.6-8-8-8H312c-4.4,0-8,3.6-8,8v32C304,124.4,307.6,128,312,128z
		 M320,96h96v16h-96V96z"/>
</g>
</svg>
