<?xml version="1.0" encoding="utf-8"?>
<!-- Generator: Adobe Illustrator 25.0.1, SVG Export Plug-In . SVG Version: 6.00 Build 0)  -->
<svg version="1.1" id="Layer_1" xmlns="http://www.w3.org/2000/svg" xmlns:xlink="http://www.w3.org/1999/xlink" x="0px" y="0px"
	 viewBox="0 0 512 512" style="enable-background:new 0 0 512 512;" xml:space="preserve">
<style type="text/css">
	.st0{fill:url(#SVGID_1_);}
	.st1{fill:url(#SVGID_2_);}
	.st2{fill:url(#SVGID_3_);}
	.st3{fill:url(#SVGID_4_);}
	.st4{fill:none;stroke:url(#SVGID_5_);stroke-width:15;stroke-miterlimit:10;}
</style>
<g>
	<linearGradient id="SVGID_1_" gradientUnits="userSpaceOnUse" x1="257.7074" y1="406.0185" x2="257.7074" y2="135.5567">
		<stop  offset="0" style="stop-color:#24243E"/>
		<stop  offset="7.014516e-02" style="stop-color:#333258"/>
		<stop  offset="0.1514" style="stop-color:#3F3E6E"/>
		<stop  offset="0.2473" style="stop-color:#48477F"/>
		<stop  offset="0.3659" style="stop-color:#4F4D8A"/>
		<stop  offset="0.5323" style="stop-color:#535191"/>
		<stop  offset="0.9944" style="stop-color:#545293"/>
	</linearGradient>
	<path class="st0" d="M127.7,246c-44.2,0-80,35.8-80,80c0,2.7,0.1,5.4,0.4,8l3.3,16c13.3,42.2,58.2,65.6,100.3,52.3
		c24.9-7.8,44.5-27.4,52.3-52.3l3.3-16c0.1-0.7,0.1-1.4,0.2-2.1c0.1-1,0.1-2,0.2-3c0-0.9,0.1-1.9,0.1-2.9
		C207.7,281.8,171.8,246,127.7,246z M135.6,262.5c7.9,1,15.5,3.4,22.4,7.2L123.5,318H64.2C68.6,282.9,100.6,258.1,135.6,262.5z
		 M127.7,390c-32.2,0-59.4-24-63.5-56h59.7l37.6,45.1c0.2,0.3,0.5,0.5,0.7,0.7C151.9,386.5,139.9,390,127.7,390z M174.8,369.2
		c-0.1,0.2-0.3,0.3-0.4,0.4c-0.2-0.3-0.4-0.5-0.6-0.8l-36-43.3l33.3-46.6C197,302.9,198.7,343.3,174.8,369.2z M464.6,157.8
		c-8.3-18.8-30.3-27.3-49.1-19c-13.4,5.9-22.1,19.2-22.2,33.8l2.5,13.8c0.2,0.5,0.4,1,0.6,1.6c2.5,5.8,6.5,10.8,11.6,14.7
		l-11.6,30.1c-8-2.9-17-0.5-22.6,6c0,0,0,0,0,0l-36.3-14c0.2-8.7-5-16.7-13.2-19.9c-10.6-4.1-22.6,1.2-26.7,11.8
		c-3.2,8.2-0.8,17.4,5.8,23.1l-14,36.3c-11.5-0.4-21.1,8.6-21.5,20.1c-0.4,11.5,8.6,21.1,20.1,21.5c11.5,0.4,21.1-8.6,21.5-20.1
		c0.2-6.3-2.5-12.4-7.2-16.5c0,0,0,0,0,0l14.1-36.3v0c0.2,0,0.4,0,0.6,0c6,0,11.7-2.6,15.6-7.2c0,0,0,0,0,0l36.3,14
		c-0.3,11.4,8.6,20.9,20,21.3c11.4,0.3,20.9-8.6,21.3-20c0.1-3.1-0.5-6.1-1.8-9c-0.3-0.6-0.5-1.1-0.8-1.7l12.9-33.3
		c8.3,2.4,17.2,1.7,25.2-1.8c2.8-1.2,5.5-2.9,8-4.8c2.1-1.8,4.8-4.4,7.2-7.9c3.1-4.4,4.7-8.6,5.7-11.6
		C468.7,174.3,468,165.6,464.6,157.8z M295.1,299c-0.7,1.7-2,3.1-3.6,3.8c-3.5,1.5-7.5,0-9.1-3.5c-1.5-3.5,0-7.5,3.5-9.1
		c0.9-0.4,1.8-0.6,2.8-0.6c0.9,0,1.7,0.2,2.5,0.5C294.7,291.5,296.5,295.5,295.1,299z M323.2,226.4c-1.4,3.5-5.4,5.3-8.9,3.9
		c-3.5-1.4-5.3-5.4-3.9-8.9c0.7-1.7,2-3.1,3.6-3.8c0.9-0.4,1.8-0.6,2.8-0.6c0.9,0,1.7,0.2,2.5,0.5
		C322.8,218.9,324.6,222.9,323.2,226.4z M392.2,258.3c-3.4,1.6-7.5,0.1-9.1-3.3c-1.6-3.4-0.1-7.5,3.3-9.1c0.1,0,0.2-0.1,0.2-0.1
		c0.9-0.4,1.8-0.6,2.8-0.6c3.8,0,6.9,3.1,6.9,6.9C396.3,254.7,394.7,257.2,392.2,258.3z M440.3,194.2c-0.1,0-0.2,0.1-0.3,0.1
		c-11.9,5.3-25.7-0.1-31-12c-5.2-11.9,0.1-25.7,12-31c11.9-5.2,25.8,0.1,31,12c0,0,0,0,0,0C457.3,175.1,452,188.9,440.3,194.2z"/>
	
		<linearGradient id="SVGID_2_" gradientUnits="userSpaceOnUse" x1="644.5616" y1="112.5205" x2="644.5616" y2="95.7308" gradientTransform="matrix(1 0 0 1 -247.1044 259.7736)">
		<stop  offset="0" style="stop-color:#24243E"/>
		<stop  offset="7.014516e-02" style="stop-color:#333258"/>
		<stop  offset="0.1514" style="stop-color:#3F3E6E"/>
		<stop  offset="0.2473" style="stop-color:#48477F"/>
		<stop  offset="0.3659" style="stop-color:#4F4D8A"/>
		<stop  offset="0.5323" style="stop-color:#535191"/>
		<stop  offset="0.9944" style="stop-color:#545293"/>
	</linearGradient>
	<path class="st1" d="M453.2,355.5H341.7c-6.2,0-11.2,3.8-11.2,8.4c0,4.6,5,8.4,11.2,8.4h111.5c6.2,0,11.2-3.8,11.2-8.4
		C464.4,359.3,459.4,355.5,453.2,355.5z"/>
	
		<linearGradient id="SVGID_3_" gradientUnits="userSpaceOnUse" x1="671.006" y1="147.921" x2="671.006" y2="131.1313" gradientTransform="matrix(1 0 0 1 -247.1044 259.7736)">
		<stop  offset="0" style="stop-color:#24243E"/>
		<stop  offset="7.014516e-02" style="stop-color:#333258"/>
		<stop  offset="0.1514" style="stop-color:#3F3E6E"/>
		<stop  offset="0.2473" style="stop-color:#48477F"/>
		<stop  offset="0.3659" style="stop-color:#4F4D8A"/>
		<stop  offset="0.5323" style="stop-color:#535191"/>
		<stop  offset="0.9944" style="stop-color:#545293"/>
	</linearGradient>
	<path class="st2" d="M457.6,390.9h-67.4c-3.7,0-6.7,3.8-6.7,8.4c0,4.6,3,8.4,6.7,8.4h67.4c3.7,0,6.7-3.8,6.7-8.4
		C464.4,394.7,461.3,390.9,457.6,390.9z"/>
	<linearGradient id="SVGID_4_" gradientUnits="userSpaceOnUse" x1="163.1394" y1="187.5567" x2="163.1394" y2="83.5567">
		<stop  offset="0" style="stop-color:#24243E"/>
		<stop  offset="7.014516e-02" style="stop-color:#333258"/>
		<stop  offset="0.1514" style="stop-color:#3F3E6E"/>
		<stop  offset="0.2473" style="stop-color:#48477F"/>
		<stop  offset="0.3659" style="stop-color:#4F4D8A"/>
		<stop  offset="0.5323" style="stop-color:#535191"/>
		<stop  offset="0.9944" style="stop-color:#545293"/>
	</linearGradient>
	<path class="st3" d="M271.7,171.6v-64.1c0-4.4-3.6-8-8-8h-32c-4.4,0-8,3.6-8,8v64h-8v-80c0-4.4-3.6-8-8-8h-32c-4.4,0-8,3.6-8,8v80
		h-8v-24c0-4.4-3.6-8-8-8h-32c-4.4,0-8,3.6-8,8v24h-8v-64c0-4.4-3.6-8-8-8h-32c-4.4,0-8,3.6-8,8v64c-4.4,0-8,3.6-8,8s3.6,8,8,8h215
		c4.4,0,8-3.6,7.9-8.1C278.6,175.5,275.6,172.2,271.7,171.6z M87.7,171.6h-16v-56h16V171.6z M143.7,171.6h-16v-16h16V171.6z
		 M199.7,171.6h-16v-72h16V171.6z M255.7,171.6h-16v-56h16V171.6z"/>
</g>
<linearGradient id="SVGID_5_" gradientUnits="userSpaceOnUse" x1="255.6667" y1="472.5" x2="255.6667" y2="46.8333">
	<stop  offset="0" style="stop-color:#302B63"/>
	<stop  offset="4.959568e-02" style="stop-color:#38346E"/>
	<stop  offset="0.1565" style="stop-color:#45417F"/>
	<stop  offset="0.2895" style="stop-color:#4E4B8A"/>
	<stop  offset="0.4762" style="stop-color:#535091"/>
	<stop  offset="0.9944" style="stop-color:#545293"/>
</linearGradient>
<path class="st4" d="M465,465H46.3c-14,0-25.3-11.3-25.3-25.3v-360c0-14,11.3-25.3,25.3-25.3H465c14,0,25.3,11.3,25.3,25.3v360
	C490.3,453.7,479,465,465,465z"/>
</svg>
